<svg width="520.948" height="89.552" viewBox="0 0 520.948 89.552" xmlns="http://www.w3.org/2000/svg"><g id="svgGroup" stroke-linecap="round" fill-rule="evenodd" font-size="9pt" stroke="#abb3bc" stroke-width="0.25mm" fill="#abb3bc" style="stroke:#abb3bc;stroke-width:0.25mm;fill:#abb3bc"><path d="M 260.645 70.704 L 260.645 30.421 Q 260.645 26.173 263.673 23.145 Q 266.7 20.118 270.997 20.118 L 286.427 20.118 Q 292.677 20.118 296.681 24.024 Q 300.587 20.118 306.935 20.118 L 314.552 20.118 Q 319.581 20.118 323.731 22.584 Q 327.882 25.05 330.348 29.176 Q 332.813 33.302 332.813 38.331 L 332.813 70.704 L 322.56 70.704 L 322.56 38.477 Q 322.56 35.108 320.216 32.74 Q 317.872 30.372 314.552 30.372 L 306.935 30.372 Q 304.786 30.372 303.272 31.715 Q 301.759 33.058 301.759 34.962 L 301.759 70.704 L 291.456 70.704 L 291.456 34.962 Q 291.456 33.058 289.991 31.715 Q 288.526 30.372 286.427 30.372 L 270.948 30.372 L 270.948 70.704 L 260.645 70.704 Z M 173.145 89.552 L 173.145 30.421 Q 173.145 26.173 176.173 23.145 Q 179.2 20.118 183.448 20.118 L 201.368 20.118 Q 206.397 20.118 210.548 22.584 Q 214.698 25.05 217.164 29.151 Q 219.63 33.253 219.63 38.282 L 219.63 52.442 Q 219.63 57.472 217.164 61.622 Q 214.698 65.772 210.548 68.238 Q 206.397 70.704 201.368 70.704 L 189.308 70.704 L 189.308 60.401 L 201.368 60.401 Q 204.688 60.401 207.008 58.033 Q 209.327 55.665 209.327 52.345 L 209.327 38.38 Q 209.327 35.059 207.008 32.74 Q 204.688 30.421 201.368 30.421 L 183.448 30.421 L 183.448 89.552 L 173.145 89.552 Z M 0.001 52.54 L 0.001 38.38 Q 0.001 33.35 2.467 29.2 Q 4.933 25.05 9.083 22.584 Q 13.233 20.118 18.263 20.118 L 30.323 20.118 L 30.323 30.421 L 18.263 30.421 Q 14.991 30.421 12.647 32.789 Q 10.304 35.157 10.304 38.477 L 10.304 52.442 Q 10.304 55.714 12.647 58.058 Q 14.991 60.401 18.263 60.401 L 36.183 60.401 L 36.183 1.27 L 46.485 1.27 L 46.485 60.401 Q 46.485 64.649 43.458 67.677 Q 40.431 70.704 36.183 70.704 L 18.263 70.704 Q 13.233 70.704 9.083 68.238 Q 4.933 65.772 2.467 61.646 Q 0.001 57.52 0.001 52.54 Z M 58.204 56.446 L 58.204 30.567 Q 58.204 26.222 61.378 23.17 Q 64.552 20.118 68.995 20.118 L 90.089 20.118 Q 94.142 20.118 97.437 22.096 Q 100.733 24.073 102.711 27.418 Q 104.688 30.763 104.688 34.815 L 104.688 36.231 Q 104.688 40.235 102.711 43.531 Q 100.733 46.827 97.437 48.805 Q 94.142 50.782 90.089 50.782 L 74.366 50.782 L 74.366 40.528 L 90.187 40.528 Q 91.944 40.528 93.189 39.259 Q 94.435 37.989 94.435 36.183 L 94.435 34.815 Q 94.435 32.96 93.189 31.69 Q 91.944 30.421 90.187 30.421 L 68.507 30.421 L 68.507 56.397 Q 68.507 58.058 69.63 59.229 Q 70.753 60.401 72.364 60.401 L 101.124 60.401 L 101.124 70.704 L 72.364 70.704 Q 68.458 70.704 65.235 68.775 Q 62.013 66.847 60.108 63.6 Q 58.204 60.352 58.204 56.446 Z M 115.919 56.446 L 115.919 30.567 Q 115.919 26.222 119.093 23.17 Q 122.267 20.118 126.71 20.118 L 147.804 20.118 Q 151.856 20.118 155.152 22.096 Q 158.448 24.073 160.426 27.418 Q 162.403 30.763 162.403 34.815 L 162.403 36.231 Q 162.403 40.235 160.426 43.531 Q 158.448 46.827 155.152 48.805 Q 151.856 50.782 147.804 50.782 L 132.081 50.782 L 132.081 40.528 L 147.901 40.528 Q 149.659 40.528 150.904 39.259 Q 152.149 37.989 152.149 36.183 L 152.149 34.815 Q 152.149 32.96 150.904 31.69 Q 149.659 30.421 147.901 30.421 L 126.222 30.421 L 126.222 56.397 Q 126.222 58.058 127.345 59.229 Q 128.468 60.401 130.079 60.401 L 158.839 60.401 L 158.839 70.704 L 130.079 70.704 Q 126.173 70.704 122.95 68.775 Q 119.728 66.847 117.823 63.6 Q 115.919 60.352 115.919 56.446 Z M 436.329 52.442 L 436.329 38.38 Q 436.329 33.35 438.795 29.2 Q 441.261 25.05 445.411 22.584 Q 449.562 20.118 454.591 20.118 L 465.626 20.118 Q 470.655 20.118 474.806 22.584 Q 478.956 25.05 481.422 29.2 Q 483.888 33.35 483.888 38.38 L 483.888 52.442 Q 483.888 57.472 481.422 61.622 Q 478.956 65.772 474.806 68.238 Q 470.655 70.704 465.626 70.704 L 454.591 70.704 Q 449.562 70.704 445.411 68.238 Q 441.261 65.772 438.795 61.622 Q 436.329 57.472 436.329 52.442 Z M 366.603 70.704 L 366.603 34.278 Q 366.603 30.372 368.58 27.149 Q 370.558 23.927 373.853 22.022 Q 377.149 20.118 381.153 20.118 L 392.433 20.118 L 392.433 30.372 L 381.153 30.372 Q 379.395 30.372 378.15 31.568 Q 376.905 32.765 376.905 34.474 L 376.905 70.704 L 366.603 70.704 Z M 401.71 70.704 L 401.71 34.278 Q 401.71 30.372 403.687 27.149 Q 405.665 23.927 408.961 22.022 Q 412.257 20.118 416.261 20.118 L 427.54 20.118 L 427.54 30.372 L 416.261 30.372 Q 414.503 30.372 413.258 31.568 Q 412.013 32.765 412.013 34.474 L 412.013 70.704 L 401.71 70.704 Z M 495.118 70.704 L 495.118 34.278 Q 495.118 30.372 497.096 27.149 Q 499.073 23.927 502.369 22.022 Q 505.665 20.118 509.669 20.118 L 520.948 20.118 L 520.948 30.372 L 509.669 30.372 Q 507.911 30.372 506.666 31.568 Q 505.421 32.765 505.421 34.474 L 505.421 70.704 L 495.118 70.704 Z M 344.532 70.704 L 344.532 20.118 L 354.884 20.118 L 354.884 70.704 L 344.532 70.704 Z M 446.632 38.477 L 446.632 52.345 Q 446.632 55.665 448.976 58.033 Q 451.319 60.401 454.591 60.401 L 465.626 60.401 Q 468.946 60.401 471.266 58.033 Q 473.585 55.665 473.585 52.345 L 473.585 38.477 Q 473.585 35.157 471.266 32.789 Q 468.946 30.421 465.626 30.421 L 454.591 30.421 Q 451.319 30.421 448.976 32.789 Q 446.632 35.157 446.632 38.477 Z M 343.36 6.349 Q 343.36 3.712 345.216 1.856 Q 347.071 0.001 349.708 0.001 Q 352.345 0.001 354.2 1.856 Q 356.056 3.712 356.056 6.349 Q 356.056 8.985 354.2 10.841 Q 352.345 12.696 349.708 12.696 Q 347.071 12.696 345.216 10.841 Q 343.36 8.985 343.36 6.349 Z" vector-effect="non-scaling-stroke"/></g></svg>