<?xml version="1.0" encoding="utf-8"?>
<!DOCTYPE svg PUBLIC "-//W3C//DTD SVG 1.0//EN" "http://www.w3.org/TR/2001/REC-SVG-20010904/DTD/svg10.dtd">
<svg version="1.0" xmlns="http://www.w3.org/2000/svg" width="33px" height="33px" viewBox="0 0 33 33" preserveAspectRatio="xMidYMid meet">
 <g fill="#303dbb">
  <path d="M15.82 25.50 c-0.03 -0.01 -0.12 -0.03 -0.20 -0.06 -0.08 -0.03 -0.15 -0.05 -0.16 -0.05 -0.06 0 -0.43 -0.20 -0.50 -0.27 -0.08 -0.08 -0.12 -0.11 -0.33 -0.27 -0.05 -0.04 -0.09 -0.08 -0.09 -0.09 0 -0.01 -0.03 -0.05 -0.07 -0.10 -0.09 -0.09 -0.14 -0.20 -0.12 -0.24 0.01 -0.03 0.03 -0.03 0.17 -0.02 0.08 0.01 0.22 0.03 0.30 0.06 0.08 0.03 0.17 0.05 0.19 0.05 0.02 0 0.06 0.01 0.08 0.02 0.03 0.01 0.13 0.03 0.22 0.04 0.10 0.01 0.21 0.03 0.26 0.04 0.04 0.01 0.15 0.03 0.25 0.05 0.09 0.01 0.18 0.03 0.20 0.04 0.07 0.03 1.10 -0.02 1.20 -0.06 0.02 -0.01 0.08 -0.02 0.14 -0.03 0.18 -0.03 0.34 -0.05 0.41 -0.08 0.04 -0.01 0.14 -0.03 0.22 -0.04 0.08 -0.01 0.20 -0.03 0.26 -0.04 0.06 -0.01 0.16 -0.03 0.21 -0.03 0.09 -0.01 0.10 -0.01 0.10 0.03 0 0.02 -0.03 0.09 -0.07 0.15 -0.04 0.06 -0.08 0.13 -0.10 0.15 -0.01 0.02 -0.09 0.10 -0.17 0.17 -0.12 0.11 -0.19 0.16 -0.44 0.28 -0.35 0.17 -0.39 0.19 -0.49 0.21 -0.07 0.02 -0.11 0.03 -0.35 0.07 -0.09 0.02 -0.98 0.02 -1.10 0.01z"/>
  <path d="M15.81 23.67 c-0.02 -0.01 -0.13 -0.03 -0.25 -0.04 -0.34 -0.03 -0.61 -0.08 -0.80 -0.15 -0.05 -0.02 -0.14 -0.05 -0.21 -0.06 -0.06 -0.02 -0.14 -0.04 -0.17 -0.05 -0.03 -0.01 -0.09 -0.02 -0.14 -0.03 -0.05 -0.01 -0.11 -0.03 -0.14 -0.04 -0.03 -0.02 -0.07 -0.03 -0.09 -0.03 -0.02 0 -0.08 -0.02 -0.13 -0.05 -0.05 -0.03 -0.11 -0.05 -0.13 -0.05 -0.04 0 -0.29 -0.10 -0.36 -0.15 -0.02 -0.01 -0.06 -0.03 -0.09 -0.04 -0.03 -0.01 -0.07 -0.03 -0.10 -0.05 -0.03 -0.02 -0.06 -0.04 -0.07 -0.04 -0.01 0 -0.09 -0.03 -0.17 -0.07 -0.18 -0.10 -0.20 -0.11 -0.25 -0.15 -0.02 -0.02 -0.04 -0.03 -0.05 -0.03 -0.01 0 -0.05 -0.03 -0.09 -0.05 -0.04 -0.03 -0.11 -0.08 -0.17 -0.11 -0.26 -0.15 -0.41 -0.30 -0.51 -0.50 -0.05 -0.11 -0.07 -0.16 -0.06 -0.20 0.01 -0.05 0.02 -0.05 0.11 -0.04 0.05 0.01 0.16 0.05 0.25 0.09 0.47 0.22 0.47 0.23 0.72 0.30 0.05 0.02 0.14 0.05 0.19 0.08 0.06 0.03 0.12 0.05 0.13 0.05 0.02 0 0.06 0.02 0.10 0.04 0.04 0.02 0.15 0.06 0.24 0.09 0.15 0.05 0.20 0.05 0.62 0.06 0.25 0.01 0.61 0 0.81 -0.01 0.19 -0.01 0.39 -0.02 0.44 -0.02 0.18 -0 0.45 0.05 0.68 0.14 0.11 0.04 0.26 0.07 0.41 0.09 0.11 0.01 0.25 -0.03 0.44 -0.12 0.07 -0.03 0.18 -0.07 0.26 -0.09 0.17 -0.04 0.71 -0.05 0.77 -0.02 0.06 0.03 0.89 0.05 1.07 0.02 0.08 -0.01 0.17 -0.03 0.22 -0.04 0.04 -0.01 0.14 -0.03 0.21 -0.05 0.16 -0.03 0.36 -0.10 0.46 -0.15 0.04 -0.02 0.08 -0.04 0.10 -0.04 0.02 0 0.07 -0.02 0.12 -0.05 0.05 -0.03 0.10 -0.05 0.12 -0.05 0.01 0 0.07 -0.03 0.14 -0.07 0.11 -0.06 0.29 -0.14 0.55 -0.25 0.19 -0.07 0.27 -0.01 0.20 0.16 -0.03 0.07 -0.14 0.24 -0.20 0.29 -0.01 0.01 -0.07 0.07 -0.14 0.13 -0.12 0.12 -0.20 0.17 -0.34 0.27 -0.04 0.02 -0.09 0.06 -0.13 0.08 -0.08 0.05 -0.24 0.14 -0.34 0.18 -0.04 0.01 -0.09 0.04 -0.12 0.06 -0.03 0.02 -0.12 0.06 -0.21 0.10 -0.09 0.03 -0.20 0.08 -0.26 0.11 -0.23 0.11 -0.34 0.14 -0.63 0.21 -0.05 0.01 -0.09 0.03 -0.11 0.03 -0.02 0.01 -0.10 0.04 -0.28 0.08 -0.06 0.01 -0.15 0.04 -0.20 0.05 -0.04 0.01 -0.16 0.04 -0.26 0.05 -0.10 0.02 -0.22 0.04 -0.28 0.05 -0.05 0.01 -0.11 0.02 -0.13 0.03 -0.02 0.01 -0.30 0.02 -0.63 0.03 -0.33 0.01 -0.71 0.02 -0.85 0.03 -0.14 0.01 -0.27 0 -0.28 -0.01z"/>
  <path d="M16.28 20.65 c-0.01 -0.01 -0.05 -0.02 -0.28 -0.07 -0.05 -0.01 -0.13 -0.04 -0.17 -0.06 -0.04 -0.02 -0.12 -0.04 -0.17 -0.05 -0.17 -0.02 -0.46 -0.15 -0.97 -0.43 -0.11 -0.06 -0.25 -0.14 -0.30 -0.16 -0.05 -0.03 -0.11 -0.05 -0.12 -0.06 -0.01 -0.01 -0.08 -0.06 -0.15 -0.12 -0.07 -0.05 -0.13 -0.11 -0.13 -0.12 0 -0.01 -0.01 -0.04 -0.03 -0.05 -0.02 -0.02 -0.06 -0.08 -0.09 -0.15 -0.06 -0.12 -0.06 -0.12 -0.07 -0.49 -0.01 -0.42 0.02 -0.65 0.10 -0.96 0.04 -0.14 0.06 -0.26 0.09 -0.46 0.01 -0.08 0.03 -0.18 0.05 -0.23 0.02 -0.04 0.04 -0.15 0.06 -0.23 0.04 -0.21 0.06 -0.32 0.07 -0.35 0.01 -0.03 0.05 -0.46 0.05 -0.52 0 -0.01 0 -0.06 0 -0.10 0.02 -0.45 0.02 -1.29 0 -1.34 -0.01 -0.04 -0.03 -0.13 -0.04 -0.20 -0.01 -0.07 -0.03 -0.17 -0.04 -0.23 -0.01 -0.05 -0.03 -0.15 -0.04 -0.22 -0.01 -0.06 -0.03 -0.16 -0.05 -0.21 -0.02 -0.05 -0.05 -0.12 -0.05 -0.16 -0.01 -0.04 -0.07 -0.19 -0.14 -0.33 -0.07 -0.14 -0.13 -0.27 -0.13 -0.27 0 -0.01 -0.08 -0.12 -0.16 -0.19 -0.02 -0.02 -0.04 -0.05 -0.04 -0.06 -0.01 -0.04 -0.22 -0.24 -0.27 -0.27 -0.03 -0.02 -0.07 -0.05 -0.08 -0.06 -0.01 -0.02 -0.05 -0.05 -0.08 -0.07 -0.03 -0.02 -0.08 -0.07 -0.12 -0.10 -0.03 -0.04 -0.08 -0.07 -0.10 -0.08 -0.02 -0.01 -0.07 -0.04 -0.10 -0.06 -0.03 -0.02 -0.09 -0.05 -0.13 -0.07 -0.04 -0.02 -0.11 -0.05 -0.17 -0.08 -0.05 -0.03 -0.13 -0.06 -0.18 -0.08 -0.04 -0.02 -0.09 -0.04 -0.11 -0.05 -0.02 -0.01 -0.05 -0.02 -0.06 -0.02 -0.01 0 -0.05 -0.01 -0.08 -0.03 -0.04 -0.02 -0.08 -0.03 -0.10 -0.04 -0.05 -0.02 -0.28 -0.06 -0.82 -0.15 -0.16 -0.03 -1.23 -0.03 -1.51 0 -0.11 0.01 -0.28 0.03 -0.36 0.05 -0.09 0.02 -0.20 0.04 -0.26 0.05 -0.06 0.01 -0.12 0.03 -0.13 0.03 -0.05 0.03 -0.56 0.09 -0.59 0.06 -0.03 -0.03 0 -0.09 0.05 -0.12 0.03 -0.02 0.08 -0.05 0.12 -0.09 0.11 -0.09 0.24 -0.19 0.32 -0.26 0.04 -0.03 0.12 -0.08 0.17 -0.11 0.05 -0.03 0.14 -0.07 0.18 -0.10 0.04 -0.03 0.09 -0.05 0.09 -0.05 0.01 0 0.05 -0.01 0.08 -0.03 0.04 -0.02 0.10 -0.04 0.13 -0.06 0.04 -0.02 0.08 -0.03 0.10 -0.03 0.02 0 0.06 -0.02 0.10 -0.05 0.04 -0.03 0.09 -0.05 0.12 -0.05 0.02 0 0.05 -0.01 0.05 -0.02 0.01 -0.01 0.05 -0.03 0.10 -0.03 0.05 -0.01 0.12 -0.03 0.16 -0.05 0.04 -0.02 0.16 -0.04 0.27 -0.06 0.11 -0.01 0.26 -0.04 0.34 -0.05 0.19 -0.03 1.24 -0.03 1.43 0 0.19 0.03 0.37 0.07 0.44 0.11 0.03 0.02 0.13 0.04 0.21 0.05 0.17 0.02 0.20 0.03 0.47 0.16 0.10 0.05 0.18 0.09 0.20 0.09 0.01 0 0.04 0.01 0.05 0.03 0.02 0.01 0.07 0.04 0.13 0.06 0.05 0.02 0.11 0.05 0.13 0.07 0.02 0.02 0.07 0.05 0.11 0.08 0.04 0.03 0.11 0.08 0.15 0.12 0.04 0.04 0.09 0.08 0.11 0.09 0.11 0.06 0.37 0.33 0.49 0.50 0.03 0.04 0.08 0.11 0.11 0.15 0.03 0.04 0.06 0.08 0.07 0.09 0.01 0.01 0.04 0.08 0.08 0.16 0.04 0.08 0.08 0.18 0.11 0.24 0.04 0.09 0.08 0.19 0.13 0.33 0.01 0.03 0.03 0.07 0.05 0.10 0.02 0.02 0.03 0.06 0.03 0.09 0 0.02 0.01 0.09 0.03 0.15 0.02 0.06 0.04 0.14 0.05 0.17 0.01 0.04 0.03 0.19 0.04 0.33 0.01 0.15 0.03 0.31 0.04 0.37 0.01 0.06 0.02 0.19 0.02 0.30 0 0.10 -0 0.26 -0 0.35 0.01 1.35 0 1.45 -0.06 1.90 -0.01 0.09 -0.03 0.17 -0.04 0.19 -0.01 0.02 -0.02 0.11 -0.03 0.21 -0.02 0.23 -0.07 0.58 -0.10 0.71 -0.01 0.05 -0.03 0.17 -0.03 0.25 -0.01 0.13 -0 0.18 0.05 0.32 0.06 0.18 0.10 0.24 0.32 0.47 0.13 0.14 0.19 0.19 0.29 0.25 0.02 0.01 0.06 0.04 0.09 0.06 0.03 0.02 0.07 0.04 0.08 0.04 0.01 0 0.04 0.01 0.05 0.03 0.01 0.02 0.06 0.05 0.10 0.06 0.04 0.02 0.07 0.04 0.07 0.05 0 0.01 0.04 0.03 0.18 0.07 0.11 0.04 0.29 0.03 0.40 -0 0.05 -0.02 0.19 -0.08 0.29 -0.14 0.11 -0.06 0.28 -0.15 0.38 -0.20 0.18 -0.09 0.18 -0.09 0.35 -0.08 0.33 0.02 0.52 0.06 0.70 0.18 0.11 0.07 0.12 0.08 0.15 0.20 0.04 0.15 0.01 0.27 -0.07 0.37 -0.09 0.11 -0.18 0.15 -0.49 0.19 -0.07 0.01 -0.15 0.03 -0.18 0.04 -0.03 0.01 -0.09 0.03 -0.14 0.04 -0.10 0.03 -0.26 0.11 -0.35 0.17 -0.07 0.05 -0.20 0.13 -0.29 0.17 -0.04 0.02 -0.11 0.05 -0.17 0.08 -0.05 0.03 -0.12 0.05 -0.15 0.05 -0.03 0.01 -0.07 0.02 -0.11 0.03 -0.15 0.05 -0.21 0.06 -0.30 0.06 -0.05 0 -0.10 -0.01 -0.11 -0.01z"/>
  <path d="M10.94 15.01 c-0.01 -0.01 -0.06 -0.02 -0.11 -0.03 -0.09 -0.01 -0.30 -0.06 -0.44 -0.10 -0.04 -0.01 -0.13 -0.03 -0.20 -0.05 -0.16 -0.04 -0.39 -0.12 -0.48 -0.17 -0.04 -0.02 -0.07 -0.04 -0.08 -0.04 -0.03 0 -0.20 -0.08 -0.35 -0.17 -0.06 -0.04 -0.16 -0.09 -0.20 -0.11 -0.12 -0.06 -0.11 -0.11 0.02 -0.19 0.06 -0.03 0.12 -0.06 0.13 -0.06 0.01 0 0.05 -0.02 0.08 -0.04 0.08 -0.06 0.12 -0.09 0.19 -0.12 0.03 -0.01 0.10 -0.05 0.15 -0.07 0.43 -0.23 0.51 -0.27 0.80 -0.33 0.06 -0.01 0.16 -0.04 0.21 -0.06 0.05 -0.02 0.20 -0.04 0.32 -0.05 0.13 -0.01 0.31 -0.03 0.40 -0.04 0.19 -0.02 0.77 0 0.96 0.04 0.07 0.01 0.18 0.04 0.24 0.06 0.06 0.02 0.14 0.04 0.18 0.05 0.12 0.02 0.59 0.24 0.80 0.37 0.10 0.07 0.19 0.13 0.20 0.14 0.01 0.01 0.04 0.03 0.08 0.05 0.04 0.02 0.08 0.05 0.09 0.06 0.01 0.02 0.04 0.04 0.07 0.05 0.07 0.04 0.07 0.13 -0.01 0.17 -0.19 0.12 -0.31 0.17 -0.54 0.23 -0.08 0.02 -0.20 0.06 -0.27 0.09 -0.54 0.21 -0.57 0.22 -0.68 0.24 -0.05 0.01 -0.14 0.03 -0.19 0.04 -0.10 0.03 -1.34 0.05 -1.36 0.02z"/>
  <path d="M20.84 14.97 c-0.02 -0.01 -0.12 -0.02 -0.24 -0.03 -0.12 -0.01 -0.22 -0.02 -0.22 -0.03 -0.01 -0.01 -0.05 -0.02 -0.11 -0.02 -0.05 0 -0.10 -0.01 -0.11 -0.02 -0.01 -0.01 -0.04 -0.02 -0.08 -0.02 -0.04 0 -0.12 -0.02 -0.18 -0.05 -0.12 -0.05 -0.31 -0.12 -0.54 -0.18 -0.08 -0.02 -0.18 -0.06 -0.22 -0.08 -0.09 -0.05 -0.14 -0.04 -0.17 0.03 -0.01 0.03 -0.05 0.06 -0.08 0.08 -0.03 0.02 -0.06 0.04 -0.06 0.05 -0.02 0.03 -0.23 0.09 -0.40 0.13 -0.05 0.01 -0.24 -0.05 -0.35 -0.10 -0.14 -0.07 -0.23 -0.19 -0.28 -0.37 -0.03 -0.11 -0.04 -0.87 -0.02 -0.96 0.04 -0.13 0.08 -0.31 0.12 -0.51 0.02 -0.08 0.07 -0.20 0.14 -0.34 0.01 -0.02 0.03 -0.06 0.05 -0.10 0.02 -0.03 0.05 -0.08 0.06 -0.10 0.02 -0.02 0.04 -0.06 0.05 -0.09 0.01 -0.03 0.04 -0.08 0.06 -0.11 0.03 -0.03 0.05 -0.07 0.05 -0.08 0 -0.03 0.43 -0.47 0.46 -0.47 0.01 0 0.04 -0.02 0.05 -0.04 0.01 -0.02 0.05 -0.05 0.08 -0.07 0.03 -0.02 0.07 -0.04 0.08 -0.05 0.05 -0.04 0.24 -0.16 0.31 -0.19 0.04 -0.02 0.08 -0.05 0.09 -0.05 0.03 -0.05 0.43 -0.21 0.67 -0.27 0.08 -0.02 0.19 -0.06 0.24 -0.07 0.05 -0.02 0.13 -0.04 0.19 -0.05 0.05 -0.01 0.12 -0.03 0.15 -0.04 0.17 -0.06 0.22 -0.06 0.74 -0.05 1.01 0.02 1.38 0.05 1.50 0.14 0.03 0.02 0.07 0.03 0.10 0.03 0.03 0 0.07 0.01 0.10 0.03 0.03 0.02 0.07 0.03 0.09 0.03 0.09 0 0.62 0.21 0.65 0.26 0.01 0.01 0.04 0.03 0.08 0.05 0.04 0.02 0.08 0.04 0.10 0.06 0.01 0.02 0.03 0.03 0.04 0.03 0.03 0 0.21 0.15 0.44 0.37 0.10 0.09 0.13 0.13 0.12 0.16 -0.01 0.03 -0.03 0.03 -0.10 0.02 -0.25 -0.03 -0.34 -0.05 -0.38 -0.06 -0.02 -0.01 -0.11 -0.02 -0.20 -0.03 -0.18 -0.02 -0.43 -0.06 -0.56 -0.10 -0.22 -0.06 -1.48 -0.06 -1.79 -0 -0.23 0.04 -0.48 0.11 -0.61 0.16 -0.05 0.02 -0.17 0.06 -0.26 0.10 -0.09 0.04 -0.19 0.08 -0.21 0.09 -0.06 0.05 -0.27 0.17 -0.36 0.21 -0.08 0.04 -0.11 0.05 -0.19 0.13 -0.03 0.02 -0.07 0.05 -0.09 0.07 -0.12 0.08 -0.35 0.29 -0.35 0.32 0 0.01 -0.02 0.04 -0.04 0.05 -0.06 0.04 -0.23 0.33 -0.33 0.55 -0.09 0.20 -0.12 0.32 -0.14 0.57 -0.02 0.18 -0.02 0.18 0.22 0.06 0.12 -0.06 0.23 -0.12 0.24 -0.14 0.02 -0.02 0.04 -0.03 0.05 -0.03 0.02 0 0.11 -0.04 0.28 -0.12 0.04 -0.02 0.13 -0.06 0.20 -0.09 0.44 -0.18 0.30 -0.16 1.15 -0.16 0.58 0 0.77 0.01 0.79 0.03 0.01 0.01 0.05 0.02 0.09 0.02 0.04 0 0.07 0.01 0.07 0.02 0.01 0.01 0.06 0.02 0.13 0.03 0.07 0.01 0.14 0.03 0.17 0.05 0.03 0.02 0.09 0.04 0.14 0.05 0.05 0.01 0.10 0.02 0.12 0.03 0.02 0.01 0.05 0.03 0.08 0.04 0.02 0.01 0.07 0.03 0.11 0.03 0.04 0.01 0.10 0.03 0.13 0.04 0.03 0.02 0.06 0.03 0.07 0.03 0.01 0 0.06 0.02 0.12 0.05 0.05 0.03 0.11 0.05 0.12 0.05 0.01 0 0.09 0.04 0.16 0.09 0.08 0.05 0.15 0.09 0.15 0.09 0.01 0 0.06 0.04 0.12 0.09 0.15 0.14 0.15 0.15 -0.12 0.29 -0.25 0.13 -0.41 0.19 -0.46 0.19 -0.02 0 -0.05 0.01 -0.07 0.02 -0.02 0.01 -0.06 0.03 -0.08 0.04 -0.02 0.01 -0.09 0.03 -0.15 0.03 -0.06 0.01 -0.11 0.02 -0.12 0.03 -0.01 0.01 -0.05 0.02 -0.09 0.02 -0.05 0 -0.10 0.01 -0.12 0.03 -0.02 0.02 -0.08 0.03 -0.13 0.03 -0.05 0 -0.10 0.01 -0.11 0.02 -0.01 0.01 -0.04 0.02 -0.07 0.02 -0.03 0 -0.06 0.01 -0.07 0.02 -0.01 0.01 -0.09 0.03 -0.18 0.03 -0.09 0.01 -0.17 0.02 -0.17 0.03 -0.01 0.02 -0.91 0.02 -0.95 0z"/>
 </g>
 <g fill="#576cfb">
  <path d="M15.83 32.67 c0 -0.01 -0.13 -0.02 -0.34 -0.02 -0.21 0 -0.35 -0.01 -0.35 -0.02 -0 -0.01 -0.15 -0.02 -0.35 -0.03 -0.20 -0.01 -0.35 -0.02 -0.35 -0.03 -0 -0.01 -0.04 -0.02 -0.07 -0.02 -0.04 0 -0.07 -0.01 -0.07 -0.02 0 -0.01 -0.11 -0.02 -0.26 -0.03 -0.14 -0.01 -0.26 -0.02 -0.26 -0.03 0 -0.01 -0.04 -0.02 -0.08 -0.02 -0.04 0 -0.08 -0.01 -0.08 -0.02 0 -0.01 -0.06 -0.02 -0.14 -0.03 -0.08 -0.01 -0.15 -0.02 -0.15 -0.03 -0.01 -0.01 -0.05 -0.03 -0.11 -0.03 -0.05 -0.01 -0.10 -0.02 -0.10 -0.03 -0 -0.01 -0.05 -0.02 -0.10 -0.02 -0.05 0 -0.10 -0.01 -0.10 -0.02 0 -0.01 -0.09 -0.02 -0.20 -0.03 -0.16 -0.01 -0.21 -0.02 -0.23 -0.05 -0.02 -0.03 -0.07 -0.04 -0.17 -0.05 -0.08 -0.01 -0.14 -0.02 -0.14 -0.03 0 -0.01 -0.02 -0.02 -0.05 -0.02 -0.03 0 -0.05 -0.01 -0.05 -0.02 -0 -0.01 -0.07 -0.02 -0.15 -0.03 -0.08 -0.01 -0.14 -0.02 -0.14 -0.03 0 -0.01 -0.03 -0.02 -0.06 -0.03 -0.03 -0.01 -0.06 -0.02 -0.06 -0.03 0 -0.01 -0.03 -0.02 -0.07 -0.02 -0.04 0 -0.07 -0.01 -0.07 -0.02 0 -0.01 -0.05 -0.02 -0.11 -0.03 -0.06 -0.01 -0.11 -0.02 -0.11 -0.03 0 -0.01 -0.03 -0.02 -0.07 -0.02 -0.04 0 -0.07 -0.01 -0.07 -0.02 0 -0.01 -0.04 -0.03 -0.08 -0.03 -0.04 -0.01 -0.08 -0.02 -0.08 -0.03 0 -0.01 -0.02 -0.02 -0.05 -0.02 -0.03 0 -0.05 -0.01 -0.05 -0.02 0 -0.01 -0.05 -0.02 -0.10 -0.03 -0.07 -0.01 -0.12 -0.03 -0.15 -0.06 -0.03 -0.03 -0.07 -0.05 -0.10 -0.05 -0.03 0 -0.06 -0.01 -0.06 -0.02 0 -0.01 -0.03 -0.02 -0.07 -0.03 -0.04 -0.01 -0.09 -0.03 -0.10 -0.05 -0.02 -0.03 -0.06 -0.04 -0.13 -0.05 -0.06 -0.01 -0.10 -0.02 -0.10 -0.03 0 -0.01 -0.02 -0.02 -0.04 -0.02 -0.02 0 -0.04 -0.01 -0.04 -0.02 0 -0.01 -0.02 -0.02 -0.05 -0.02 -0.03 0 -0.06 -0.02 -0.08 -0.05 -0.03 -0.04 -0.06 -0.05 -0.14 -0.06 -0.06 -0.01 -0.10 -0.02 -0.10 -0.03 0 -0.01 -0.02 -0.02 -0.04 -0.02 -0.02 0 -0.04 -0.01 -0.04 -0.02 0 -0.01 -0.03 -0.02 -0.07 -0.03 -0.05 -0.01 -0.10 -0.04 -0.14 -0.08 -0.05 -0.05 -0.08 -0.07 -0.16 -0.08 -0.06 -0.01 -0.10 -0.02 -0.10 -0.03 0 -0.01 -0.02 -0.02 -0.04 -0.02 -0.02 0 -0.04 -0.01 -0.05 -0.03 -0.01 -0.02 -0.03 -0.03 -0.05 -0.03 -0.02 0 -0.04 -0.01 -0.04 -0.02 0 -0.04 -0.06 -0.08 -0.12 -0.08 -0.03 0 -0.06 -0.01 -0.06 -0.02 0 -0.01 -0.02 -0.02 -0.04 -0.02 -0.02 0 -0.05 -0.01 -0.05 -0.03 -0.01 -0.02 -0.03 -0.03 -0.05 -0.03 -0.02 0 -0.04 -0.01 -0.04 -0.02 0 -0.01 -0.03 -0.02 -0.05 -0.03 -0.03 -0.01 -0.07 -0.03 -0.08 -0.05 -0.02 -0.02 -0.05 -0.04 -0.07 -0.04 -0.02 0 -0.05 -0.01 -0.05 -0.03 -0.01 -0.02 -0.03 -0.03 -0.05 -0.03 -0.02 0 -0.04 -0.01 -0.04 -0.02 0 -0.01 -0.03 -0.02 -0.05 -0.03 -0.03 -0.01 -0.07 -0.03 -0.08 -0.05 -0.02 -0.02 -0.05 -0.04 -0.07 -0.04 -0.02 0 -0.05 -0.02 -0.07 -0.04 -0.02 -0.02 -0.05 -0.04 -0.06 -0.04 -0.01 0 -0.04 -0.02 -0.05 -0.04 -0.02 -0.02 -0.06 -0.05 -0.09 -0.05 -0.04 -0.01 -0.07 -0.03 -0.07 -0.05 -0.01 -0.02 -0.03 -0.04 -0.04 -0.04 -0.02 0 -0.05 -0.02 -0.08 -0.05 -0.03 -0.03 -0.06 -0.05 -0.08 -0.05 -0.02 0 -0.05 -0.02 -0.07 -0.04 -0.02 -0.02 -0.05 -0.04 -0.06 -0.04 -0.01 0 -0.04 -0.02 -0.06 -0.05 -0.02 -0.03 -0.05 -0.05 -0.07 -0.05 -0.02 0 -0.04 -0.01 -0.04 -0.02 0 -0.04 -0.06 -0.08 -0.11 -0.08 -0.03 0 -0.05 -0.01 -0.05 -0.04 0 -0.03 -0.02 -0.04 -0.05 -0.05 -0.03 -0.01 -0.05 -0.02 -0.05 -0.03 0 -0.01 -0.02 -0.02 -0.04 -0.02 -0.05 0 -0.18 -0.12 -0.18 -0.16 0 -0.03 -0.04 -0.05 -0.09 -0.05 -0.02 0 -0.05 -0.02 -0.06 -0.04 -0.02 -0.02 -0.05 -0.04 -0.08 -0.05 -0.05 -0.02 -0.12 -0.08 -0.12 -0.11 0 -0.03 -0.05 -0.07 -0.12 -0.09 -0.03 -0.01 -0.06 -0.02 -0.07 -0.04 -0.01 -0.02 -0.03 -0.03 -0.05 -0.03 -0.02 0 -0.04 -0.01 -0.04 -0.02 0 -0.01 -0.06 -0.08 -0.13 -0.15 -0.07 -0.07 -0.13 -0.14 -0.13 -0.15 0 -0.01 -0.02 -0.02 -0.05 -0.03 -0.06 -0.02 -0.26 -0.21 -0.26 -0.26 0 -0.01 -0.02 -0.03 -0.04 -0.04 -0.03 -0.01 -0.06 -0.03 -0.08 -0.05 -0.02 -0.02 -0.04 -0.04 -0.05 -0.04 -0.03 0 -0.14 -0.11 -0.14 -0.14 0 -0.01 -0.01 -0.02 -0.03 -0.02 -0.02 0 -0.09 -0.06 -0.17 -0.14 -0.08 -0.07 -0.15 -0.14 -0.16 -0.14 -0.01 0 -0.02 -0.02 -0.02 -0.04 0 -0.02 -0.02 -0.04 -0.04 -0.05 -0.02 -0.01 -0.04 -0.03 -0.04 -0.05 0 -0.02 -0.02 -0.05 -0.04 -0.05 -0.02 -0.01 -0.05 -0.03 -0.05 -0.05 -0.01 -0.02 -0.03 -0.04 -0.05 -0.05 -0.02 -0.01 -0.04 -0.03 -0.05 -0.05 -0.01 -0.02 -0.03 -0.04 -0.05 -0.05 -0.02 -0.01 -0.04 -0.02 -0.04 -0.04 0 -0.01 -0.06 -0.09 -0.14 -0.17 -0.07 -0.08 -0.14 -0.15 -0.14 -0.17 0 -0.02 -0.02 -0.03 -0.04 -0.03 -0.03 0 -0.04 -0.02 -0.05 -0.05 -0.01 -0.03 -0.03 -0.05 -0.05 -0.06 -0.02 -0.01 -0.04 -0.03 -0.05 -0.05 -0.01 -0.02 -0.02 -0.04 -0.04 -0.05 -0.02 -0.01 -0.03 -0.03 -0.03 -0.05 0 -0.02 -0.02 -0.04 -0.04 -0.05 -0.02 -0.01 -0.05 -0.03 -0.05 -0.05 -0.01 -0.02 -0.03 -0.04 -0.05 -0.05 -0.02 -0.01 -0.04 -0.03 -0.04 -0.04 0 -0.02 -0.02 -0.05 -0.05 -0.08 -0.03 -0.03 -0.05 -0.07 -0.06 -0.10 -0.01 -0.03 -0.02 -0.05 -0.03 -0.05 -0.01 0 -0.02 -0.02 -0.02 -0.04 0 -0.02 -0.02 -0.04 -0.05 -0.05 -0.03 -0.01 -0.05 -0.03 -0.06 -0.05 -0.01 -0.02 -0.05 -0.08 -0.10 -0.12 -0.05 -0.05 -0.09 -0.10 -0.10 -0.13 -0.01 -0.02 -0.02 -0.04 -0.03 -0.04 -0.01 0 -0.02 -0.01 -0.02 -0.03 0 -0.02 -0.01 -0.03 -0.02 -0.03 -0.01 0 -0.03 -0.02 -0.03 -0.04 -0.01 -0.02 -0.04 -0.07 -0.08 -0.11 -0.04 -0.04 -0.07 -0.08 -0.07 -0.10 0 -0.02 -0.03 -0.06 -0.06 -0.09 -0.03 -0.03 -0.06 -0.07 -0.06 -0.08 0 -0.02 -0.01 -0.03 -0.02 -0.03 -0.01 0 -0.02 -0.01 -0.02 -0.03 0 -0.02 -0.01 -0.03 -0.02 -0.03 -0.01 0 -0.03 -0.02 -0.03 -0.04 -0.01 -0.03 -0.03 -0.06 -0.05 -0.08 -0.02 -0.02 -0.04 -0.05 -0.05 -0.08 -0.01 -0.03 -0.02 -0.05 -0.03 -0.05 -0.01 0 -0.02 -0.02 -0.03 -0.04 -0.01 -0.02 -0.03 -0.06 -0.06 -0.09 -0.03 -0.03 -0.05 -0.06 -0.05 -0.08 0 -0.02 -0.02 -0.05 -0.04 -0.06 -0.02 -0.02 -0.04 -0.04 -0.04 -0.05 0 -0.01 -0.02 -0.05 -0.05 -0.07 -0.02 -0.03 -0.05 -0.08 -0.06 -0.12 -0.01 -0.04 -0.02 -0.07 -0.03 -0.07 -0.01 0 -0.02 -0.02 -0.02 -0.04 0 -0.02 -0.03 -0.06 -0.06 -0.10 -0.03 -0.03 -0.06 -0.08 -0.06 -0.11 0 -0.03 -0.01 -0.05 -0.04 -0.06 -0.02 -0.01 -0.04 -0.04 -0.05 -0.08 -0.01 -0.04 -0.03 -0.07 -0.05 -0.08 -0.02 -0.01 -0.04 -0.04 -0.05 -0.08 -0.01 -0.04 -0.02 -0.07 -0.03 -0.07 -0.01 0 -0.02 -0.01 -0.02 -0.03 0 -0.02 -0.01 -0.03 -0.02 -0.03 -0.01 0 -0.02 -0.03 -0.03 -0.07 -0.01 -0.04 -0.02 -0.07 -0.03 -0.07 -0.01 0 -0.02 -0.03 -0.03 -0.06 -0.01 -0.03 -0.02 -0.06 -0.03 -0.06 -0.01 0 -0.02 -0.02 -0.02 -0.04 0 -0.02 -0.01 -0.04 -0.02 -0.04 -0.01 0 -0.03 -0.05 -0.03 -0.10 -0.01 -0.08 -0.03 -0.11 -0.06 -0.14 -0.03 -0.02 -0.05 -0.05 -0.05 -0.07 0 -0.02 -0.01 -0.04 -0.02 -0.04 -0.01 0 -0.02 -0.01 -0.02 -0.03 0 -0.02 -0.01 -0.03 -0.02 -0.03 -0.01 0 -0.03 -0.04 -0.03 -0.08 -0.01 -0.04 -0.02 -0.08 -0.03 -0.08 -0.01 0 -0.02 -0.02 -0.02 -0.04 0 -0.02 -0.01 -0.04 -0.02 -0.04 -0.01 0 -0.02 -0.04 -0.03 -0.08 -0.01 -0.04 -0.02 -0.08 -0.03 -0.08 -0.01 0 -0.02 -0.03 -0.02 -0.06 0 -0.03 -0.01 -0.07 -0.03 -0.09 -0.02 -0.02 -0.03 -0.04 -0.03 -0.05 0 -0.01 -0.01 -0.02 -0.02 -0.02 -0.01 0 -0.03 -0.04 -0.03 -0.08 -0.01 -0.04 -0.02 -0.08 -0.03 -0.08 -0.01 0 -0.02 -0.02 -0.02 -0.04 0 -0.02 -0.01 -0.04 -0.02 -0.04 -0.01 0 -0.02 -0.05 -0.03 -0.10 -0.01 -0.06 -0.03 -0.12 -0.05 -0.13 -0.02 -0.02 -0.04 -0.07 -0.05 -0.12 -0.01 -0.05 -0.02 -0.09 -0.03 -0.09 -0.01 0 -0.02 -0.05 -0.03 -0.10 -0.01 -0.06 -0.03 -0.12 -0.05 -0.13 -0.02 -0.02 -0.04 -0.07 -0.05 -0.15 -0.01 -0.07 -0.02 -0.12 -0.03 -0.12 -0.01 0 -0.02 -0.02 -0.02 -0.05 0 -0.03 -0.01 -0.05 -0.02 -0.05 -0.01 0 -0.02 -0.04 -0.03 -0.10 -0.01 -0.05 -0.02 -0.10 -0.03 -0.10 -0.01 0 -0.02 -0.03 -0.02 -0.06 0 -0.03 -0.01 -0.06 -0.02 -0.06 -0.01 0 -0.02 -0.05 -0.03 -0.12 -0.01 -0.06 -0.02 -0.12 -0.03 -0.12 -0.01 0 -0.02 -0.03 -0.02 -0.06 0 -0.03 -0.01 -0.06 -0.02 -0.06 -0.01 0 -0.02 -0.04 -0.02 -0.10 0 -0.06 -0.01 -0.11 -0.03 -0.13 -0.02 -0.02 -0.03 -0.09 -0.04 -0.20 -0.01 -0.09 -0.02 -0.17 -0.03 -0.17 -0.01 0 -0.02 -0.03 -0.02 -0.06 0 -0.03 -0.01 -0.06 -0.02 -0.06 -0.01 0 -0.02 -0.06 -0.03 -0.14 -0.01 -0.08 -0.02 -0.15 -0.03 -0.15 -0.01 -0 -0.02 -0.06 -0.02 -0.13 0 -0.07 -0.01 -0.13 -0.02 -0.13 -0.01 0 -0.02 -0.07 -0.03 -0.17 -0.01 -0.09 -0.02 -0.17 -0.03 -0.17 -0.01 0 -0.02 -0.07 -0.02 -0.16 0 -0.09 -0.01 -0.16 -0.02 -0.16 -0.01 0 -0.02 -0.11 -0.03 -0.24 -0.01 -0.13 -0.02 -0.24 -0.03 -0.25 -0.01 -0 -0.02 -0.08 -0.02 -0.16 0 -0.10 -0.01 -0.16 -0.02 -0.16 -0.03 -0.01 -0.03 -2.63 0 -2.64 0.01 -0 0.02 -0.02 0.02 -0.03 0 -0.01 0.01 -0.03 0.02 -0.03 0.01 -0 0.03 -0.21 0.03 -0.46 0.01 -0.25 0.02 -0.46 0.03 -0.46 0.01 0 0.02 -0.04 0.02 -0.09 0 -0.05 0.01 -0.09 0.02 -0.09 0.01 0 0.02 -0.09 0.03 -0.21 0.01 -0.11 0.02 -0.21 0.03 -0.21 0.01 0 0.02 -0.02 0.02 -0.05 0 -0.03 0.01 -0.05 0.02 -0.05 0.01 0 0.02 -0.08 0.03 -0.18 0.01 -0.10 0.02 -0.18 0.03 -0.18 0.01 0 0.02 -0.03 0.02 -0.07 0 -0.04 0.01 -0.07 0.02 -0.07 0.01 0 0.02 -0.07 0.03 -0.16 0.01 -0.09 0.02 -0.16 0.03 -0.16 0.01 0 0.02 -0.03 0.03 -0.07 0.01 -0.04 0.02 -0.07 0.03 -0.07 0.01 0 0.02 -0.04 0.02 -0.08 0 -0.04 0.01 -0.08 0.02 -0.08 0.01 0 0.02 -0.07 0.03 -0.15 0.01 -0.08 0.02 -0.16 0.03 -0.16 0.01 -0 0.02 -0.02 0.02 -0.04 0 -0.02 0.01 -0.03 0.02 -0.03 0.01 0 0.02 -0.06 0.03 -0.14 0.01 -0.08 0.02 -0.14 0.03 -0.14 0.01 0 0.02 -0.01 0.02 -0.03 0 -0.02 0.01 -0.03 0.02 -0.04 0.01 -0 0.03 -0.05 0.03 -0.11 0 -0.06 0.02 -0.10 0.03 -0.10 0.01 0 0.02 -0.02 0.02 -0.04 0 -0.02 0.01 -0.04 0.02 -0.04 0.01 0 0.02 -0.04 0.03 -0.08 0.01 -0.04 0.02 -0.08 0.03 -0.08 0.01 0 0.02 -0.05 0.03 -0.11 0.01 -0.06 0.02 -0.11 0.03 -0.11 0.01 0 0.02 -0.02 0.02 -0.04 0 -0.02 0.01 -0.04 0.02 -0.04 0.01 0 0.03 -0.04 0.03 -0.09 0.01 -0.05 0.02 -0.09 0.03 -0.09 0.01 0 0.02 -0.02 0.02 -0.04 0 -0.02 0.01 -0.04 0.02 -0.04 0.01 0 0.02 -0.05 0.03 -0.10 0.01 -0.05 0.02 -0.10 0.03 -0.10 0.01 0 0.02 -0.01 0.02 -0.03 0 -0.02 0.01 -0.03 0.02 -0.03 0.01 0 0.02 -0.04 0.03 -0.10 0.01 -0.05 0.03 -0.10 0.04 -0.11 0.02 -0.01 0.03 -0.03 0.03 -0.06 0 -0.03 0.01 -0.05 0.02 -0.05 0.01 0 0.02 -0.01 0.02 -0.03 0 -0.02 0.01 -0.03 0.03 -0.03 0.02 0 0.03 -0.02 0.03 -0.09 0 -0.07 0.01 -0.09 0.04 -0.10 0.03 -0.01 0.04 -0.03 0.04 -0.06 0 -0.03 0.02 -0.07 0.05 -0.10 0.03 -0.03 0.05 -0.08 0.06 -0.14 0.01 -0.05 0.03 -0.11 0.05 -0.12 0.02 -0.02 0.04 -0.06 0.05 -0.10 0.01 -0.04 0.03 -0.08 0.04 -0.08 0.02 -0.01 0.03 -0.03 0.03 -0.05 0 -0.03 0.02 -0.06 0.04 -0.07 0.02 -0.02 0.05 -0.06 0.05 -0.09 0.01 -0.04 0.02 -0.06 0.03 -0.06 0.01 0 0.02 -0.01 0.02 -0.03 0 -0.02 0.01 -0.03 0.02 -0.03 0.01 0 0.02 -0.02 0.03 -0.05 0.01 -0.03 0.02 -0.05 0.03 -0.05 0.01 0 0.02 -0.01 0.02 -0.03 0 -0.02 0.01 -0.03 0.02 -0.03 0.01 0 0.02 -0.02 0.03 -0.05 0.01 -0.03 0.02 -0.05 0.03 -0.05 0.01 0 0.02 -0.03 0.03 -0.07 0.01 -0.04 0.02 -0.07 0.03 -0.07 0.01 0 0.02 -0.01 0.02 -0.03 0 -0.02 0.01 -0.03 0.02 -0.03 0.01 0 0.02 -0.02 0.03 -0.05 0.01 -0.03 0.03 -0.07 0.05 -0.09 0.02 -0.02 0.04 -0.06 0.05 -0.09 0.01 -0.04 0.02 -0.06 0.05 -0.06 0.03 0 0.04 -0.02 0.05 -0.08 0.01 -0.05 0.03 -0.08 0.05 -0.09 0.02 -0.01 0.04 -0.03 0.05 -0.06 0.01 -0.03 0.02 -0.05 0.03 -0.05 0.01 0 0.02 -0.02 0.02 -0.04 0 -0.02 0.01 -0.05 0.03 -0.05 0.02 -0.01 0.03 -0.03 0.03 -0.06 0 -0.03 0.01 -0.05 0.02 -0.05 0.01 0 0.02 -0.02 0.03 -0.05 0.01 -0.03 0.03 -0.06 0.06 -0.08 0.03 -0.02 0.05 -0.05 0.05 -0.07 0 -0.02 0.02 -0.04 0.04 -0.05 0.02 -0.01 0.04 -0.03 0.04 -0.05 0 -0.02 0.02 -0.05 0.05 -0.07 0.03 -0.02 0.05 -0.05 0.05 -0.06 0 -0.01 0.02 -0.04 0.04 -0.06 0.02 -0.02 0.04 -0.05 0.04 -0.07 0 -0.02 0.02 -0.06 0.05 -0.08 0.03 -0.03 0.05 -0.06 0.05 -0.07 0 -0.03 0.05 -0.07 0.09 -0.08 0.03 -0.01 0.04 -0.03 0.04 -0.05 0 -0.02 0.01 -0.04 0.02 -0.04 0.01 0 0.02 -0.02 0.03 -0.05 0.02 -0.06 0.17 -0.22 0.21 -0.22 0.02 0 0.03 -0.03 0.04 -0.06 0.01 -0.04 0.03 -0.08 0.05 -0.09 0.02 -0.02 0.04 -0.04 0.04 -0.05 0 -0.01 0.02 -0.04 0.05 -0.06 0.03 -0.02 0.05 -0.05 0.05 -0.06 0 -0.01 0.01 -0.03 0.03 -0.03 0.02 0 0.03 -0.01 0.03 -0.03 0 -0.02 0.07 -0.10 0.16 -0.18 0.10 -0.10 0.16 -0.17 0.16 -0.19 0 -0.02 0.01 -0.04 0.03 -0.04 0.02 0 0.03 -0.02 0.03 -0.04 0 -0.02 0.02 -0.04 0.04 -0.05 0.02 -0.01 0.05 -0.03 0.05 -0.05 0.01 -0.02 0.03 -0.04 0.05 -0.04 0.02 0 0.04 -0.01 0.04 -0.03 0 -0.02 0.02 -0.03 0.05 -0.04 0.03 -0.01 0.05 -0.03 0.05 -0.04 0 -0.05 0.37 -0.42 0.42 -0.42 0.02 0 0.04 -0.02 0.04 -0.04 0.01 -0.02 0.03 -0.05 0.05 -0.05 0.02 -0.01 0.04 -0.03 0.05 -0.05 0.01 -0.04 0.04 -0.08 0.08 -0.12 0.01 -0.01 0.06 -0.06 0.11 -0.11 0.05 -0.05 0.10 -0.08 0.12 -0.08 0.02 0 0.03 -0.02 0.03 -0.04 0 -0.03 0.06 -0.10 0.09 -0.10 0.01 0 0.05 -0.05 0.11 -0.10 0.05 -0.05 0.11 -0.10 0.12 -0.10 0.01 0 0.06 -0.04 0.12 -0.10 0.05 -0.05 0.11 -0.10 0.14 -0.11 0.03 -0.01 0.08 -0.05 0.12 -0.09 0.04 -0.04 0.09 -0.08 0.10 -0.08 0.01 0 0.04 -0.02 0.06 -0.05 0.02 -0.03 0.05 -0.05 0.07 -0.05 0.02 0 0.04 -0.02 0.05 -0.04 0.01 -0.02 0.03 -0.04 0.05 -0.05 0.03 -0 0.05 -0.02 0.05 -0.05 0 -0.03 0.02 -0.04 0.04 -0.04 0.02 0 0.05 -0.02 0.07 -0.05 0.02 -0.03 0.05 -0.05 0.06 -0.05 0.01 0 0.04 -0.02 0.06 -0.04 0.02 -0.02 0.05 -0.04 0.07 -0.04 0.02 0 0.04 -0.02 0.05 -0.04 0.01 -0.02 0.03 -0.04 0.04 -0.04 0.02 0 0.06 -0.03 0.09 -0.06 0.03 -0.03 0.06 -0.06 0.08 -0.06 0.01 0 0.04 -0.02 0.05 -0.04 0.02 -0.02 0.05 -0.04 0.08 -0.05 0.03 -0.01 0.07 -0.04 0.09 -0.06 0.02 -0.03 0.06 -0.05 0.07 -0.05 0.02 0 0.03 -0.01 0.03 -0.02 0 -0.01 0.02 -0.02 0.05 -0.03 0.03 -0.01 0.05 -0.02 0.05 -0.03 0 -0.01 0.01 -0.02 0.03 -0.02 0.02 0 0.03 -0.01 0.04 -0.03 0.01 -0.02 0.03 -0.03 0.05 -0.03 0.02 0 0.04 -0.02 0.05 -0.04 0.01 -0.02 0.04 -0.04 0.07 -0.05 0.03 -0.01 0.07 -0.03 0.09 -0.05 0.02 -0.02 0.05 -0.04 0.08 -0.05 0.03 -0.01 0.06 -0.03 0.07 -0.04 0.01 -0.02 0.04 -0.03 0.05 -0.03 0.02 0 0.03 -0.01 0.03 -0.02 0 -0.01 0.01 -0.02 0.03 -0.02 0.02 0 0.03 -0.01 0.03 -0.02 0 -0.01 0.02 -0.03 0.05 -0.03 0.02 -0.01 0.06 -0.03 0.07 -0.05 0.02 -0.02 0.06 -0.04 0.10 -0.05 0.04 -0.01 0.08 -0.03 0.10 -0.05 0.02 -0.02 0.06 -0.05 0.09 -0.05 0.03 -0.01 0.05 -0.02 0.05 -0.03 0 -0.01 0.02 -0.02 0.04 -0.02 0.02 0 0.04 -0.01 0.04 -0.02 0 -0.01 0.04 -0.03 0.08 -0.03 0.04 -0.01 0.08 -0.02 0.08 -0.03 0 -0.01 0.02 -0.02 0.05 -0.03 0.03 -0.01 0.07 -0.04 0.10 -0.06 0.03 -0.03 0.06 -0.05 0.07 -0.05 0.01 0 0.04 -0.02 0.05 -0.04 0.02 -0.02 0.06 -0.04 0.10 -0.05 0.05 -0.01 0.08 -0.03 0.08 -0.05 0.01 -0.03 0.04 -0.04 0.10 -0.05 0.05 -0.01 0.09 -0.02 0.09 -0.03 0 -0.01 0.04 -0.02 0.08 -0.03 0.05 -0.01 0.10 -0.03 0.11 -0.05 0.02 -0.02 0.06 -0.05 0.10 -0.05 0.04 -0.01 0.08 -0.03 0.10 -0.05 0.02 -0.02 0.06 -0.04 0.10 -0.05 0.04 -0.01 0.07 -0.02 0.07 -0.03 0 -0.01 0.02 -0.02 0.05 -0.02 0.03 0 0.05 -0.01 0.05 -0.02 0 -0.01 0.04 -0.03 0.08 -0.03 0.04 -0.01 0.08 -0.02 0.08 -0.03 0 -0.01 0.03 -0.02 0.07 -0.02 0.04 0 0.08 -0.01 0.10 -0.03 0.07 -0.06 0.08 -0.07 0.15 -0.08 0.04 -0.01 0.07 -0.02 0.07 -0.03 0 -0.01 0.01 -0.02 0.03 -0.02 0.02 0 0.03 -0.01 0.04 -0.02 0 -0.01 0.06 -0.03 0.13 -0.03 0.07 -0.01 0.12 -0.02 0.12 -0.03 0 -0.01 0.07 -0.02 0.15 -0.02 0.15 0 0.15 0 0.14 -0.05 -0.01 -0.04 -0 -0.05 0.02 -0.05 0.02 0 0.03 -0.01 0.03 -0.02 0 -0.01 0.05 -0.02 0.11 -0.03 0.06 -0.01 0.11 -0.02 0.11 -0.03 0 -0.01 0.05 -0.02 0.12 -0.03 0.06 -0.01 0.12 -0.02 0.12 -0.03 0 -0.01 0.01 -0.02 0.03 -0.02 0.02 0 0.03 -0.01 0.03 -0.02 0 -0.01 0.05 -0.02 0.10 -0.03 0.05 -0.01 0.10 -0.02 0.10 -0.03 0 -0.01 0.04 -0.02 0.08 -0.02 0.04 0 0.08 0.01 0.08 0.02 0 0.01 0.02 0.02 0.05 0.02 0.04 0 0.05 -0.01 0.05 -0.04 0 -0.03 0.02 -0.04 0.10 -0.05 0.05 -0.01 0.10 -0.02 0.10 -0.03 0 -0.01 0.01 -0.02 0.03 -0.02 0.02 0 0.03 -0.01 0.03 -0.02 0 -0.01 0.07 -0.02 0.17 -0.03 0.09 -0.01 0.17 -0.02 0.17 -0.03 0 -0.01 0.03 -0.02 0.06 -0.02 0.03 0 0.06 -0.01 0.06 -0.02 0 -0.01 0.09 -0.02 0.20 -0.03 0.11 -0.01 0.21 -0.02 0.21 -0.03 0.01 -0.01 0.05 -0.02 0.09 -0.03 0.05 -0.01 0.08 -0.02 0.08 -0.03 0 -0.01 0.05 -0.02 0.11 -0.02 0.06 0 0.11 -0.01 0.11 -0.02 0 -0.01 0.12 -0.02 0.26 -0.03 0.14 -0.01 0.26 -0.02 0.26 -0.03 0 -0.01 0.02 -0.02 0.04 -0.02 0.02 0 0.04 -0.01 0.05 -0.02 0 -0.01 0.17 -0.03 0.38 -0.03 0.21 -0.01 0.38 -0.02 0.38 -0.03 0 -0.01 0.08 -0.02 0.18 -0.02 0.10 0 0.18 0.01 0.18 0.02 0 0.01 0.03 0.02 0.07 0.02 0.04 0 0.07 -0.01 0.07 -0.02 0 -0.01 0.11 -0.02 0.30 -0.02 0.19 0 0.30 -0.01 0.30 -0.02 0 -0.01 0.07 -0.02 0.18 -0.02 0.10 0 0.18 0.01 0.18 0.02 0 0.01 0.10 0.02 0.28 0.02 0.17 0 0.28 0.01 0.28 0.02 0 0.01 0.05 0.02 0.10 0.02 0.05 0 0.10 -0.01 0.10 -0.02 0 -0.01 0.09 -0.02 0.23 -0.02 0.12 0 0.23 0.01 0.23 0.02 0 0.01 0.15 0.02 0.33 0.03 0.18 0.01 0.33 0.02 0.33 0.03 0 0.01 0.04 0.02 0.07 0.02 0.04 0 0.07 0.01 0.07 0.02 0 0.01 0.12 0.02 0.26 0.03 0.14 0.01 0.26 0.02 0.26 0.03 0 0.01 0.02 0.02 0.05 0.02 0.04 0 0.05 0.01 0.05 0.05 0 0.03 0.01 0.05 0.04 0.05 0.02 0 0.05 0.01 0.08 0.01 0.04 0.01 0.04 0 0.04 -0.03 0 -0.03 0.01 -0.04 0.07 -0.04 0.04 0 0.07 0.01 0.08 0.03 0.01 0.02 0.07 0.03 0.22 0.04 0.11 0.01 0.20 0.02 0.20 0.03 0 0.01 0.03 0.02 0.07 0.02 0.04 0 0.07 0.01 0.07 0.02 0 0.01 0.07 0.03 0.15 0.03 0.10 0.01 0.16 0.02 0.18 0.05 0.02 0.02 0.06 0.04 0.10 0.05 0.04 0.01 0.08 0.02 0.08 0.04 0.01 0.02 0.01 0.02 0.02 0 0.01 -0.03 0.13 -0.04 0.13 -0.01 0 0.01 0.02 0.02 0.04 0.02 0.02 0 0.04 0.01 0.05 0.02 0 0.01 0.06 0.03 0.13 0.03 0.07 0 0.12 0.02 0.12 0.03 0 0.01 0.01 0.02 0.03 0.02 0.02 0 0.03 0.01 0.03 0.02 0 0.01 0.06 0.02 0.13 0.03 0.07 0.01 0.13 0.02 0.13 0.03 0 0.01 0.04 0.02 0.09 0.03 0.05 0.01 0.11 0.03 0.12 0.05 0.02 0.02 0.06 0.04 0.10 0.05 0.05 0.01 0.07 0.02 0.07 0.05 0 0.03 0.02 0.04 0.17 0.05 0.14 0.01 0.17 0.02 0.21 0.05 0.03 0.03 0.07 0.05 0.13 0.05 0.05 0.01 0.11 0.02 0.12 0.04 0.01 0.01 0.04 0.03 0.05 0.03 0.02 0 0.03 0.01 0.03 0.02 0 0.01 0.02 0.02 0.05 0.02 0.03 0 0.05 0.01 0.06 0.03 0.01 0.02 0.01 0.02 0.02 0 0.01 -0.02 0.02 -0.02 0.04 0 0.02 0.02 0.05 0.03 0.08 0.03 0.03 0 0.05 0.01 0.05 0.02 0 0.01 0.01 0.02 0.02 0.02 0.01 0 0.03 0.01 0.05 0.03 0.02 0.02 0.05 0.03 0.08 0.03 0.03 0 0.06 0.02 0.08 0.04 0.02 0.03 0.05 0.04 0.09 0.04 0.04 0 0.07 0.01 0.07 0.03 0.01 0.02 0.02 0.03 0.04 0.03 0.02 0 0.03 0.01 0.03 0.02 0 0.01 0.02 0.02 0.04 0.02 0.02 0 0.05 0.02 0.07 0.04 0.02 0.03 0.06 0.04 0.11 0.04 0.04 0 0.08 0.01 0.08 0.02 0 0.01 0.02 0.02 0.05 0.02 0.03 0 0.05 0.01 0.05 0.02 0 0.01 0.03 0.02 0.07 0.03 0.04 0.01 0.07 0.02 0.07 0.03 0 0.01 0.01 0.02 0.03 0.02 0.02 0 0.03 0.01 0.03 0.02 0 0.01 0.02 0.03 0.05 0.03 0.02 0.01 0.06 0.03 0.08 0.05 0.02 0.02 0.06 0.04 0.11 0.05 0.04 0.01 0.09 0.02 0.10 0.04 0.01 0.01 0.04 0.03 0.05 0.03 0.02 0 0.03 0.01 0.03 0.02 0 0.01 0.02 0.02 0.04 0.02 0.02 0 0.04 0.01 0.04 0.02 0 0.01 0.03 0.02 0.05 0.03 0.03 0.01 0.07 0.03 0.09 0.06 0.02 0.03 0.06 0.05 0.08 0.05 0.03 0 0.05 0.01 0.05 0.02 0 0.01 0.02 0.02 0.04 0.02 0.02 0 0.04 0.01 0.04 0.02 0 0.01 0.02 0.02 0.05 0.03 0.03 0.01 0.05 0.02 0.05 0.03 0 0.04 0.06 0.08 0.11 0.08 0.02 0 0.05 0.01 0.06 0.03 0.01 0.02 0.03 0.03 0.05 0.03 0.03 0 0.04 0.01 0.04 0.05 0 0.04 0.01 0.05 0.07 0.05 0.05 0 0.08 0.01 0.10 0.04 0.02 0.02 0.04 0.04 0.05 0.04 0.01 0 0.04 0.02 0.06 0.05 0.02 0.03 0.07 0.05 0.10 0.06 0.07 0.01 0.12 0.05 0.12 0.09 0 0.01 0.02 0.02 0.05 0.02 0.03 0 0.05 0.01 0.05 0.02 0 0.01 0.02 0.02 0.05 0.03 0.03 0.01 0.09 0.06 0.15 0.11 0.05 0.05 0.11 0.10 0.12 0.10 0.01 0 0.04 0.02 0.05 0.04 0.02 0.02 0.04 0.04 0.05 0.04 0.01 0 0.03 0.01 0.04 0.03 0.01 0.02 0.04 0.03 0.07 0.04 0.03 0.01 0.09 0.04 0.12 0.08 0.04 0.04 0.07 0.07 0.09 0.07 0.01 0 0.02 0.01 0.02 0.02 0 0.01 0.02 0.02 0.04 0.02 0.04 0 0.10 0.06 0.10 0.10 0 0.01 0.01 0.02 0.02 0.02 0.01 0 0.05 0.04 0.10 0.08 0.05 0.05 0.10 0.08 0.13 0.08 0.03 0 0.05 0.01 0.05 0.02 0 0.02 0.09 0.12 0.12 0.12 0.01 0 0.07 0.05 0.13 0.11 0.06 0.06 0.12 0.11 0.13 0.11 0.02 0 0.16 0.13 0.16 0.16 0 0.01 0.02 0.02 0.04 0.03 0.02 0.01 0.05 0.03 0.05 0.05 0.01 0.02 0.03 0.04 0.05 0.05 0.02 0.01 0.04 0.03 0.04 0.05 0 0.03 0.01 0.04 0.05 0.04 0.02 0 0.06 0.02 0.08 0.04 0.04 0.04 0.07 0.08 0.12 0.12 0.02 0.02 0.03 0.06 0.03 0.10 0 0.05 0.01 0.06 0.04 0.06 0.02 0 0.04 0.01 0.04 0.02 0 0.01 0.02 0.02 0.04 0.02 0.03 0 0.13 0.08 0.28 0.24 0.13 0.13 0.23 0.24 0.23 0.25 0 0.01 0.04 0.05 0.09 0.10 0.05 0.05 0.09 0.09 0.09 0.11 0 0.01 0.02 0.04 0.05 0.07 0.03 0.03 0.05 0.06 0.05 0.07 0 0.03 0.05 0.08 0.08 0.08 0.04 0 0.16 0.14 0.17 0.19 0.01 0.03 0.02 0.06 0.03 0.06 0.01 0 0.02 0.01 0.02 0.03 0 0.02 0.01 0.03 0.03 0.03 0.02 0 0.03 0.01 0.03 0.02 0 0.01 0.02 0.02 0.04 0.03 0.02 0.01 0.05 0.03 0.05 0.05 0.01 0.02 0.05 0.08 0.10 0.13 0.05 0.05 0.09 0.09 0.09 0.10 0 0.01 0.01 0.02 0.03 0.02 0.02 0 0.03 0.03 0.04 0.07 0.01 0.04 0.02 0.07 0.03 0.07 0.01 0 0.02 0.01 0.02 0.02 0 0.01 0.05 0.06 0.10 0.12 0.05 0.05 0.10 0.11 0.10 0.12 0 0.01 0.01 0.02 0.02 0.02 0.01 0 0.02 0.04 0.02 0.09 0 0.08 0 0.09 0.05 0.09 0.05 0 0.10 0.05 0.12 0.12 0.01 0.02 0.02 0.04 0.03 0.04 0.01 0 0.02 0.01 0.02 0.03 0 0.02 0.01 0.03 0.02 0.03 0.01 0 0.02 0.02 0.03 0.05 0.01 0.03 0.03 0.06 0.06 0.08 0.03 0.02 0.05 0.05 0.05 0.06 0 0.02 0.01 0.03 0.02 0.03 0.01 0 0.02 0.02 0.02 0.04 0 0.02 0.01 0.04 0.03 0.05 0.02 0.01 0.03 0.03 0.03 0.05 0 0.02 0.01 0.04 0.03 0.05 0.02 0.01 0.03 0.03 0.03 0.05 0 0.03 0.02 0.06 0.04 0.07 0.02 0.02 0.05 0.06 0.05 0.10 0.01 0.04 0.02 0.07 0.03 0.07 0.01 0 0.02 0.01 0.02 0.03 0 0.02 0.01 0.03 0.02 0.03 0.04 0 0.12 0.09 0.12 0.14 0 0.02 0.01 0.05 0.03 0.05 0.02 0.01 0.03 0.02 0.03 0.04 0 0.02 0.01 0.03 0.02 0.03 0.01 0 0.02 0.02 0.02 0.04 0 0.02 0.01 0.05 0.03 0.05 0.02 0.01 0.03 0.04 0.04 0.07 0.01 0.03 0.03 0.07 0.05 0.09 0.02 0.02 0.04 0.06 0.05 0.10 0.01 0.05 0.03 0.08 0.05 0.08 0.02 0.01 0.04 0.04 0.05 0.08 0.01 0.04 0.02 0.07 0.03 0.07 0.01 0 0.02 0.01 0.02 0.03 0 0.02 0.01 0.03 0.02 0.03 0.01 0 0.02 0.02 0.02 0.04 0 0.02 0.01 0.05 0.03 0.05 0.02 0.01 0.03 0.04 0.04 0.08 0.01 0.04 0.03 0.09 0.05 0.10 0.02 0.02 0.05 0.06 0.05 0.10 0.01 0.05 0.02 0.07 0.05 0.07 0.03 0 0.04 0.02 0.04 0.10 0 0.09 0.03 0.16 0.08 0.16 0.01 0 0.02 0.02 0.02 0.05 0 0.03 0.01 0.06 0.03 0.08 0.02 0.02 0.03 0.04 0.03 0.05 0 0.01 0.01 0.02 0.02 0.02 0.01 0 0.02 0.04 0.03 0.08 0.01 0.04 0.02 0.08 0.03 0.08 0.01 0 0.02 0.04 0.03 0.09 0.01 0.06 0.03 0.09 0.05 0.10 0.03 0.01 0.04 0.04 0.05 0.12 0.01 0.06 0.02 0.11 0.03 0.12 0.01 0 0.02 0.02 0.02 0.04 0 0.02 0.01 0.03 0.02 0.03 0.01 0 0.02 0.03 0.03 0.07 0.01 0.04 0.03 0.09 0.05 0.10 0.03 0.02 0.04 0.06 0.05 0.13 0.01 0.06 0.02 0.10 0.03 0.10 0.01 0 0.02 0.03 0.02 0.07 0 0.04 0.01 0.07 0.02 0.07 0.01 0 0.02 0.03 0.02 0.07 0 0.05 0.01 0.07 0.03 0.08 0.02 0.01 0.04 0.05 0.04 0.09 0.01 0.04 0.02 0.08 0.03 0.08 0.01 0 0.02 0.02 0.02 0.05 0 0.03 0.01 0.05 0.02 0.05 0.01 0 0.02 0.05 0.03 0.12 0.01 0.09 0.02 0.12 0.05 0.13 0.03 0.01 0.04 0.04 0.05 0.14 0.01 0.07 0.02 0.13 0.03 0.14 0.01 0 0.02 0.02 0.02 0.04 0 0.02 0.01 0.04 0.02 0.04 0.01 0 0.03 0.09 0.03 0.19 0.01 0.11 0.02 0.20 0.04 0.21 0.01 0.01 0.03 0.05 0.03 0.08 0 0.03 0.01 0.06 0.02 0.06 0.01 0 0.02 0.02 0.02 0.05 0 0.03 0.01 0.05 0.02 0.05 0.01 0 0.02 0.07 0.03 0.15 0.01 0.08 0.02 0.15 0.03 0.15 0.01 0 0.02 0.01 0.02 0.03 0 0.02 0.01 0.03 0.02 0.03 0.01 0 0.03 0.10 0.03 0.22 0.01 0.12 0.02 0.22 0.03 0.22 0.01 0 0.02 0.04 0.02 0.08 0 0.04 0.01 0.08 0.02 0.08 0.01 0 0.02 0.09 0.03 0.20 0.01 0.13 0.02 0.20 0.03 0.21 0.01 0 0.02 0.04 0.02 0.08 0 0.04 0.01 0.08 0.02 0.08 0.01 0 0.02 0.14 0.03 0.32 0.01 0.20 0.02 0.33 0.04 0.33 0.03 0.02 0.03 2.74 0 2.76 -0.02 0.01 -0.03 0.13 -0.04 0.31 -0.01 0.16 -0.02 0.30 -0.03 0.30 -0.01 0 -0.02 0.06 -0.02 0.15 0 0.08 -0.01 0.15 -0.02 0.15 -0.01 0 -0.03 0.09 -0.03 0.20 -0.01 0.10 -0.02 0.19 -0.03 0.19 -0.01 0 -0.02 0.03 -0.02 0.06 0 0.03 -0.01 0.06 -0.02 0.06 -0.01 0 -0.02 0.10 -0.03 0.22 -0.01 0.12 -0.02 0.22 -0.03 0.22 -0.01 0 -0.02 0.01 -0.02 0.03 0 0.02 -0.01 0.03 -0.02 0.03 -0.01 0 -0.02 0.07 -0.03 0.15 -0.01 0.08 -0.02 0.16 -0.03 0.16 -0.01 0 -0.02 0.05 -0.02 0.09 0 0.05 -0.01 0.09 -0.02 0.09 -0.01 0 -0.02 0.07 -0.03 0.15 -0.01 0.08 -0.03 0.16 -0.04 0.18 -0.02 0.02 -0.03 0.06 -0.03 0.11 0 0.04 -0.01 0.08 -0.02 0.08 -0.01 0 -0.02 0.03 -0.02 0.06 0 0.03 -0.01 0.06 -0.02 0.06 -0.01 0 -0.02 0.06 -0.03 0.14 -0.01 0.08 -0.02 0.14 -0.03 0.14 -0.01 0 -0.02 0.02 -0.02 0.05 0 0.03 -0.01 0.06 -0.03 0.08 -0.02 0.02 -0.03 0.06 -0.03 0.09 0 0.03 -0.01 0.06 -0.02 0.06 -0.01 0 -0.02 0.02 -0.02 0.04 0 0.02 -0.01 0.04 -0.02 0.04 -0.01 0 -0.02 0.04 -0.03 0.10 -0.01 0.06 -0.02 0.10 -0.04 0.11 -0.02 0.01 -0.03 0.04 -0.03 0.09 0 0.04 -0.01 0.08 -0.02 0.08 -0.01 0 -0.02 0.03 -0.02 0.07 0 0.04 -0.01 0.07 -0.02 0.07 -0.01 0 -0.02 0.02 -0.03 0.05 -0.01 0.03 -0.02 0.05 -0.04 0.05 -0.02 0 -0.01 0.01 0.01 0.02 0.02 0.02 0.02 0.02 0.01 0.03 -0.01 0 -0.03 0.04 -0.03 0.08 0 0.04 -0.01 0.07 -0.02 0.07 -0.01 0 -0.02 0.02 -0.03 0.05 -0.01 0.03 -0.02 0.05 -0.03 0.05 -0.01 0 -0.02 0.01 -0.02 0.03 0 0.02 -0.01 0.03 -0.02 0.03 -0.01 0 -0.02 0.05 -0.03 0.11 -0.01 0.06 -0.02 0.11 -0.03 0.11 -0.01 0 -0.02 0.02 -0.02 0.04 0 0.02 -0.01 0.04 -0.02 0.04 -0.01 0 -0.03 0.04 -0.03 0.08 -0.01 0.04 -0.02 0.08 -0.03 0.08 -0.01 0 -0.02 0.03 -0.03 0.07 -0.01 0.04 -0.03 0.09 -0.05 0.10 -0.02 0.02 -0.04 0.06 -0.05 0.09 -0.01 0.07 -0.05 0.12 -0.09 0.12 -0.01 0 -0.02 0.04 -0.02 0.08 0 0.06 -0.01 0.09 -0.04 0.11 -0.02 0.02 -0.05 0.06 -0.05 0.09 -0.01 0.04 -0.02 0.06 -0.03 0.06 -0.01 0 -0.02 0.02 -0.02 0.05 -0 0.02 -0.03 0.06 -0.06 0.09 -0.04 0.04 -0.06 0.06 -0.06 0.11 0 0.04 -0.01 0.06 -0.02 0.06 -0.01 0 -0.02 0.01 -0.02 0.03 0 0.02 -0.01 0.03 -0.02 0.03 -0.01 0 -0.02 0.03 -0.03 0.07 -0.01 0.04 -0.03 0.07 -0.05 0.08 -0.02 0.01 -0.04 0.04 -0.05 0.08 -0.01 0.04 -0.02 0.07 -0.03 0.07 -0.01 0 -0.02 0.01 -0.02 0.03 0 0.02 -0.01 0.03 -0.02 0.03 -0.01 0 -0.02 0.02 -0.02 0.04 0 0.02 -0.02 0.05 -0.04 0.07 -0.02 0.02 -0.04 0.05 -0.04 0.06 0 0.02 -0.01 0.03 -0.02 0.03 -0.01 0 -0.02 0.02 -0.02 0.05 0 0.03 -0.01 0.05 -0.02 0.05 -0.01 0 -0.02 0.03 -0.03 0.07 -0.01 0.04 -0.03 0.07 -0.05 0.08 -0.02 0.01 -0.04 0.03 -0.05 0.05 -0.01 0.02 -0.02 0.04 -0.03 0.04 -0.01 0 -0.02 0.01 -0.02 0.03 0 0.02 -0.01 0.03 -0.02 0.03 -0.01 0 -0.02 0.02 -0.03 0.05 -0.01 0.03 -0.02 0.05 -0.03 0.05 -0.01 0 -0.02 0.01 -0.02 0.03 0 0.02 -0.01 0.03 -0.02 0.03 -0.01 0 -0.02 0.01 -0.02 0.03 0 0.02 -0.02 0.05 -0.04 0.07 -0.02 0.03 -0.04 0.06 -0.04 0.09 0 0.03 -0.02 0.05 -0.04 0.06 -0.02 0.01 -0.05 0.03 -0.05 0.05 -0.01 0.02 -0.03 0.06 -0.05 0.07 -0.02 0.02 -0.04 0.05 -0.05 0.08 -0.01 0.03 -0.05 0.08 -0.09 0.12 -0.04 0.04 -0.08 0.08 -0.08 0.09 0 0.01 -0.02 0.02 -0.04 0.03 -0.02 0.01 -0.04 0.04 -0.05 0.08 -0.01 0.04 -0.02 0.07 -0.03 0.07 -0.01 0 -0.02 0.01 -0.02 0.03 0 0.02 -0.01 0.03 -0.02 0.03 -0.01 0 -0.03 0.02 -0.03 0.05 -0.01 0.02 -0.03 0.06 -0.05 0.07 -0.02 0.02 -0.04 0.04 -0.04 0.05 0 0.01 -0.04 0.05 -0.08 0.10 -0.11 0.11 -0.13 0.14 -0.13 0.17 0 0.01 -0.01 0.02 -0.02 0.02 -0.01 0 -0.03 0.02 -0.03 0.04 -0.02 0.05 -0.14 0.17 -0.18 0.17 -0.02 0 -0.03 0.01 -0.02 0.03 0.01 0.02 -0.02 0.06 -0.08 0.12 -0.05 0.05 -0.09 0.10 -0.09 0.11 0 0.01 -0.02 0.02 -0.05 0.03 -0.03 0.01 -0.05 0.02 -0.05 0.04 0 0.02 -0.01 0.03 -0.02 0.03 -0.01 0 -0.02 0.02 -0.02 0.04 0 0.02 -0.01 0.04 -0.03 0.05 -0.02 0.01 -0.03 0.03 -0.03 0.05 0 0.02 -0.02 0.04 -0.04 0.05 -0.02 0.01 -0.05 0.03 -0.05 0.05 -0.01 0.02 -0.02 0.04 -0.04 0.05 -0.02 0.01 -0.03 0.03 -0.03 0.05 0 0.03 -0.02 0.04 -0.06 0.05 -0.07 0.01 -0.10 0.05 -0.13 0.11 -0.02 0.06 -0.11 0.16 -0.15 0.16 -0.02 0 -0.04 0.02 -0.04 0.04 -0.01 0.02 -0.03 0.04 -0.04 0.04 -0.02 0 -0.03 0.01 -0.03 0.03 0 0.02 -0.01 0.03 -0.02 0.03 -0.01 0 -0.02 0.01 -0.02 0.03 0 0.02 -0.01 0.03 -0.02 0.03 -0.01 0 -0.02 0.02 -0.03 0.05 -0.01 0.03 -0.03 0.05 -0.05 0.05 -0.02 0 -0.04 0.02 -0.05 0.05 -0.01 0.03 -0.03 0.05 -0.05 0.05 -0.02 0 -0.04 0.01 -0.04 0.02 0 0.01 -0.02 0.02 -0.04 0.03 -0.02 0.01 -0.04 0.03 -0.04 0.05 0 0.02 -0.02 0.05 -0.04 0.05 -0.02 0.01 -0.04 0.02 -0.05 0.04 -0.01 0.02 -0.03 0.03 -0.05 0.03 -0.02 0 -0.04 0.02 -0.05 0.04 -0.01 0.02 -0.03 0.04 -0.04 0.04 -0.02 0 -0.10 0.07 -0.18 0.16 -0.08 0.09 -0.17 0.16 -0.18 0.16 -0.02 0 -0.03 0.01 -0.03 0.03 0 0.04 -0.09 0.13 -0.13 0.13 -0.02 0 -0.03 0.01 -0.03 0.02 0 0.01 -0.01 0.02 -0.02 0.02 -0.01 0 -0.06 0.05 -0.12 0.10 -0.05 0.05 -0.11 0.10 -0.12 0.10 -0.01 0 -0.06 0.04 -0.12 0.10 -0.05 0.05 -0.11 0.10 -0.13 0.11 -0.02 0.01 -0.05 0.03 -0.05 0.05 -0.01 0.02 -0.03 0.04 -0.05 0.04 -0.02 0 -0.05 0.02 -0.07 0.05 -0.02 0.03 -0.05 0.05 -0.06 0.05 -0.01 0 -0.05 0.03 -0.08 0.06 -0.03 0.03 -0.07 0.06 -0.08 0.06 -0.01 0 -0.02 0.01 -0.02 0.02 0 0.01 -0.03 0.02 -0.06 0.03 -0.03 0.01 -0.10 0.05 -0.14 0.10 -0.05 0.05 -0.10 0.09 -0.12 0.10 -0.02 0.01 -0.04 0.02 -0.04 0.03 0 0.01 -0.02 0.02 -0.04 0.02 -0.02 0 -0.04 0.01 -0.04 0.02 0 0.01 -0.03 0.02 -0.06 0.03 -0.03 0.01 -0.06 0.02 -0.06 0.03 0 0.04 -0.09 0.11 -0.16 0.12 -0.05 0.01 -0.07 0.03 -0.08 0.05 -0.01 0.02 -0.03 0.04 -0.05 0.05 -0.02 0.01 -0.04 0.02 -0.04 0.03 0 0.01 -0.01 0.02 -0.03 0.02 -0.02 0 -0.03 0.01 -0.03 0.02 0 0.01 -0.04 0.03 -0.08 0.03 -0.04 0.01 -0.08 0.02 -0.08 0.03 0 0.01 -0.02 0.02 -0.04 0.03 -0.02 0.01 -0.05 0.03 -0.05 0.05 -0.01 0.02 -0.04 0.04 -0.08 0.05 -0.04 0.01 -0.09 0.03 -0.10 0.05 -0.02 0.02 -0.04 0.04 -0.05 0.04 -0.01 0 -0.04 0.02 -0.07 0.05 -0.03 0.03 -0.07 0.05 -0.10 0.05 -0.05 0 -0.11 0.05 -0.11 0.08 0 0.01 -0.03 0.02 -0.06 0.03 -0.03 0.01 -0.07 0.03 -0.09 0.04 -0.02 0.02 -0.05 0.03 -0.08 0.03 -0.03 0 -0.05 0.01 -0.05 0.02 0 0.01 -0.01 0.02 -0.03 0.02 -0.02 0 -0.03 0.01 -0.03 0.02 0 0.01 -0.02 0.02 -0.05 0.03 -0.03 0.01 -0.07 0.03 -0.09 0.05 -0.02 0.02 -0.06 0.04 -0.09 0.05 -0.03 0.01 -0.06 0.02 -0.06 0.03 0 0.01 -0.01 0.02 -0.03 0.02 -0.02 0 -0.03 0.01 -0.03 0.02 0 0.01 -0.01 0.02 -0.03 0.02 -0.02 0 -0.04 0.01 -0.05 0.03 -0.01 0.02 -0.06 0.03 -0.10 0.04 -0.04 0.01 -0.07 0.02 -0.07 0.03 0 0.01 -0.03 0.02 -0.07 0.02 -0.04 0 -0.07 0.01 -0.07 0.02 0 0.01 -0.02 0.02 -0.04 0.02 -0.02 0 -0.06 0.02 -0.08 0.05 -0.03 0.02 -0.08 0.05 -0.12 0.06 -0.04 0.01 -0.07 0.02 -0.07 0.03 0 0.01 -0.01 0.02 -0.03 0.02 -0.02 0 -0.03 0.01 -0.03 0.02 0 0.01 -0.02 0.02 -0.05 0.02 -0.03 0 -0.06 0.01 -0.08 0.03 -0.02 0.02 -0.05 0.03 -0.07 0.03 -0.02 0 -0.04 0.01 -0.04 0.02 0 0.01 -0.04 0.02 -0.08 0.03 -0.04 0.01 -0.08 0.02 -0.08 0.03 0 0.01 -0.04 0.02 -0.10 0.03 -0.07 0.01 -0.10 0.02 -0.11 0.05 -0.01 0.03 -0.04 0.04 -0.13 0.05 -0.06 0.01 -0.12 0.02 -0.12 0.03 0 0.01 -0.02 0.02 -0.05 0.02 -0.03 0 -0.05 0.01 -0.05 0.02 0 0.01 -0.05 0.02 -0.12 0.03 -0.08 0.01 -0.13 0.03 -0.16 0.05 -0.02 0.02 -0.07 0.04 -0.11 0.05 -0.05 0.01 -0.08 0.02 -0.08 0.03 0 0.01 -0.04 0.02 -0.09 0.02 -0.05 0 -0.09 0.01 -0.09 0.02 0 0.01 -0.04 0.02 -0.08 0.03 -0.05 0.01 -0.09 0.03 -0.11 0.04 -0.02 0.02 -0.07 0.03 -0.15 0.03 -0.06 0 -0.12 0.01 -0.12 0.02 0 0.01 -0.01 0.02 -0.03 0.02 -0.02 0 -0.03 0.01 -0.03 0.02 0 0.01 -0.06 0.03 -0.13 0.03 -0.07 0.01 -0.13 0.02 -0.13 0.03 0 0.01 -0.01 0.02 -0.03 0.02 -0.02 0 -0.03 0.01 -0.03 0.02 0 0.01 -0.07 0.02 -0.15 0.03 -0.08 0.01 -0.15 0.02 -0.15 0.03 0 0.01 -0.03 0.02 -0.07 0.02 -0.04 0 -0.07 0.01 -0.07 0.02 0 0.01 -0.08 0.02 -0.19 0.03 -0.10 0.01 -0.19 0.02 -0.19 0.03 0 0.01 -0.06 0.02 -0.13 0.03 -0.07 0.01 -0.13 0.02 -0.13 0.03 0 0.01 -0.04 0.02 -0.10 0.02 -0.05 0 -0.10 0.01 -0.10 0.02 -0 0.01 -0.11 0.02 -0.25 0.03 -0.13 0.01 -0.24 0.02 -0.24 0.03 0 0.01 -0.02 0.02 -0.05 0.02 -0.03 0 -0.05 0.01 -0.05 0.02 -0 0.01 -0.16 0.03 -0.35 0.03 -0.19 0.01 -0.35 0.02 -0.35 0.03 0 0.01 -0.15 0.02 -0.32 0.02 -0.20 0 -0.32 0.01 -0.32 0.02 0 0.01 -0.27 0.02 -0.77 0.02 -0.50 0 -0.77 -0.01 -0.77 -0.02z m0.69 -1.28 c0.03 -0.04 0.05 -0.04 0.34 -0.04 0.19 0 0.31 0.01 0.31 0.02 0 0.01 -0.05 0.02 -0.11 0.02 -0.06 0 -0.11 0.01 -0.11 0.02 0 0.01 0.08 0.02 0.21 0.02 0.12 0 0.21 -0.01 0.21 -0.02 0 -0.01 -0.01 -0.02 -0.03 -0.02 -0.02 0 -0.03 -0.01 -0.03 -0.02 0 -0.01 0.12 -0.02 0.27 -0.03 0.15 -0.01 0.27 -0.02 0.28 -0.03 0 -0.01 0.03 -0.02 0.06 -0.02 0.03 0 0.06 -0.01 0.06 -0.02 0 -0.01 0.14 -0.02 0.32 -0.03 0.17 -0.01 0.32 -0.02 0.32 -0.03 0 -0.01 0.04 -0.02 0.08 -0.02 0.04 0 0.08 -0.01 0.08 -0.02 0 -0.01 0.10 -0.02 0.22 -0.03 0.12 -0.01 0.22 -0.02 0.23 -0.03 0.01 -0.01 0.11 -0.03 0.22 -0.03 0.12 -0.01 0.21 -0.02 0.21 -0.03 0 -0.01 0.02 -0.02 0.05 -0.02 0.03 0 0.05 -0.01 0.05 -0.02 0 -0.01 0.06 -0.03 0.14 -0.03 0.08 -0.01 0.14 -0.02 0.14 -0.03 0 -0.01 0.02 -0.02 0.04 -0.02 0.02 0 0.04 -0.01 0.04 -0.02 0 -0.01 0.07 -0.02 0.15 -0.03 0.08 -0.01 0.16 -0.02 0.16 -0.03 0 -0.01 0.06 -0.02 0.12 -0.02 0.06 0 0.12 -0.01 0.12 -0.02 0 -0.01 0.04 -0.02 0.09 -0.02 0.05 0 0.10 -0.01 0.12 -0.03 0.02 -0.02 0.06 -0.04 0.10 -0.04 0.04 -0.01 0.07 -0.02 0.07 -0.03 0 -0.01 0.02 -0.02 0.04 -0.02 0.02 0 0.04 -0.01 0.04 -0.02 0 -0.01 0.05 -0.02 0.11 -0.03 0.06 -0.01 0.11 -0.02 0.11 -0.03 0 -0.01 0.01 -0.02 0.03 -0.02 0.02 0 0.03 -0.01 0.03 -0.02 0 -0.01 0.07 -0.02 0.15 -0.03 0.08 -0.01 0.15 -0.02 0.15 -0.03 0 -0.01 0.02 -0.02 0.04 -0.02 0.02 0 0.05 -0.01 0.07 -0.03 0.02 -0.02 0.06 -0.03 0.10 -0.03 0.05 0 0.08 -0.01 0.11 -0.05 0.02 -0.03 0.06 -0.05 0.08 -0.05 0.03 0 0.05 -0.01 0.05 -0.02 0 -0.01 0.04 -0.03 0.08 -0.03 0.04 -0.01 0.08 -0.02 0.08 -0.03 0 -0.01 0.02 -0.02 0.04 -0.02 0.02 0 0.04 -0.01 0.04 -0.02 0 -0.01 0.04 -0.03 0.08 -0.03 0.04 -0.01 0.08 -0.02 0.08 -0.03 0 -0.01 0.02 -0.02 0.05 -0.02 0.03 0 0.05 -0.01 0.05 -0.02 0 -0.01 0.02 -0.02 0.05 -0.03 0.03 -0.01 0.07 -0.03 0.08 -0.05 0.02 -0.02 0.07 -0.04 0.13 -0.05 0.05 -0.01 0.09 -0.02 0.09 -0.03 0 -0.01 0.05 -0.02 0.10 -0.03 0.06 -0.01 0.12 -0.03 0.13 -0.05 0.02 -0.02 0.05 -0.04 0.08 -0.05 0.03 -0.01 0.06 -0.03 0.08 -0.05 0.02 -0.02 0.05 -0.04 0.07 -0.05 0.02 -0.01 0.04 -0.02 0.04 -0.03 0 -0.01 0.01 -0.02 0.03 -0.02 0.02 0 0.03 -0.01 0.03 -0.02 0 -0.01 0.03 -0.02 0.07 -0.03 0.04 -0.01 0.07 -0.02 0.07 -0.03 0 -0.01 0.01 -0.02 0.03 -0.02 0.02 0 0.03 -0.01 0.03 -0.02 0 -0.01 0.01 -0.02 0.03 -0.02 0.02 0 0.04 -0.01 0.05 -0.03 0.01 -0.02 0.05 -0.03 0.09 -0.04 0.04 -0.01 0.08 -0.03 0.10 -0.05 0.02 -0.02 0.05 -0.04 0.07 -0.05 0.02 -0.01 0.05 -0.03 0.05 -0.05 0.01 -0.03 0.04 -0.04 0.10 -0.05 0.06 -0.01 0.09 -0.02 0.10 -0.05 0.01 -0.02 0.03 -0.04 0.05 -0.04 0.02 0 0.04 -0.01 0.04 -0.03 0 -0.02 0.01 -0.03 0.03 -0.03 0.02 0 0.03 -0.01 0.03 -0.02 0 -0.01 0.02 -0.02 0.05 -0.03 0.03 -0.01 0.05 -0.02 0.05 -0.03 0 -0.01 0.03 -0.02 0.06 -0.03 0.03 -0.01 0.06 -0.02 0.06 -0.03 0 -0.01 0.02 -0.02 0.04 -0.02 0.02 0 0.04 -0.01 0.04 -0.02 0 -0.01 0.03 -0.02 0.06 -0.03 0.04 -0.01 0.06 -0.03 0.06 -0.05 0 -0.02 0.01 -0.04 0.03 -0.04 0.02 0 0.05 -0.02 0.07 -0.05 0.03 -0.03 0.06 -0.05 0.09 -0.06 0.02 -0.01 0.04 -0.02 0.04 -0.03 0 -0.01 0.02 -0.02 0.05 -0.03 0.03 -0.01 0.07 -0.03 0.08 -0.05 0.02 -0.02 0.05 -0.04 0.07 -0.05 0.02 -0.01 0.05 -0.03 0.05 -0.05 0.01 -0.02 0.03 -0.04 0.05 -0.05 0.02 -0.01 0.07 -0.04 0.11 -0.08 0.04 -0.04 0.08 -0.07 0.09 -0.07 0.02 0 0.03 -0.01 0.03 -0.02 0 -0.01 0.03 -0.02 0.06 -0.03 0.03 -0.01 0.06 -0.03 0.06 -0.04 0 -0.02 0.01 -0.03 0.03 -0.03 0.02 0 0.03 -0.02 0.03 -0.04 0 -0.02 0.02 -0.05 0.04 -0.05 0.02 -0.01 0.08 -0.05 0.14 -0.11 0.05 -0.05 0.10 -0.10 0.12 -0.10 0.01 0 0.04 -0.02 0.06 -0.05 0.03 -0.03 0.05 -0.05 0.07 -0.05 0.01 0 0.02 -0.01 0.02 -0.03 0 -0.02 0.02 -0.03 0.05 -0.03 0.02 0 0.06 -0.02 0.07 -0.04 0.02 -0.02 0.04 -0.04 0.05 -0.04 0.03 0 0.11 -0.07 0.11 -0.09 0 -0.04 0.09 -0.12 0.12 -0.12 0.02 0 0.03 -0.01 0.03 -0.03 0 -0.04 0.16 -0.20 0.21 -0.22 0.02 -0.01 0.05 -0.03 0.05 -0.05 0.01 -0.02 0.03 -0.04 0.05 -0.05 0.02 -0.01 0.04 -0.03 0.05 -0.05 0.01 -0.02 0.02 -0.04 0.03 -0.04 0.01 0 0.17 -0.15 0.35 -0.34 0.01 -0.01 0.05 -0.05 0.09 -0.09 0.04 -0.04 0.07 -0.07 0.07 -0.09 0 -0.01 0.06 -0.08 0.14 -0.16 0.08 -0.08 0.14 -0.15 0.14 -0.17 0 -0.02 0.02 -0.04 0.04 -0.04 0.02 -0.01 0.04 -0.03 0.04 -0.04 0 -0.02 0.06 -0.09 0.13 -0.16 0.07 -0.07 0.13 -0.13 0.13 -0.14 0 -0.02 0.07 -0.10 0.08 -0.10 0.01 0 0.02 0.02 0.02 0.05 0.01 0.03 0.01 0.02 0.01 -0.03 0 -0.04 0.01 -0.07 0.02 -0.07 0.01 0 0.02 -0.01 0.02 -0.03 0 -0.02 0.01 -0.03 0.02 -0.03 0.01 0 0.03 -0.02 0.03 -0.04 0.01 -0.02 0.03 -0.06 0.06 -0.09 0.03 -0.03 0.05 -0.06 0.05 -0.07 0 -0.01 0.02 -0.03 0.04 -0.04 0.02 -0.01 0.04 -0.03 0.04 -0.05 0 -0.02 0.01 -0.04 0.03 -0.05 0.02 -0.01 0.03 -0.03 0.04 -0.05 0.01 -0.02 0.03 -0.06 0.06 -0.09 0.03 -0.03 0.05 -0.06 0.05 -0.07 0 -0.01 0.02 -0.04 0.04 -0.05 0.02 -0.02 0.04 -0.04 0.04 -0.05 0 -0.01 0.01 -0.03 0.03 -0.04 0.02 -0.01 0.03 -0.03 0.03 -0.04 0 -0.01 0.02 -0.05 0.05 -0.07 0.03 -0.03 0.05 -0.05 0.05 -0.07 0 -0.01 0.03 -0.05 0.06 -0.08 0.03 -0.03 0.06 -0.07 0.06 -0.08 0 -0.01 0.01 -0.02 0.02 -0.02 0.01 0 0.02 -0.02 0.02 -0.04 0 -0.02 0.01 -0.04 0.02 -0.04 0.01 0 0.02 -0.02 0.03 -0.05 0.01 -0.03 0.03 -0.05 0.05 -0.05 0.03 0 0.04 -0.02 0.05 -0.06 0.01 -0.03 0.02 -0.06 0.03 -0.06 0.01 0 0.02 -0.02 0.02 -0.04 0 -0.02 0.01 -0.04 0.02 -0.04 0.01 0 0.02 -0.02 0.02 -0.04 0 -0.02 0.01 -0.05 0.03 -0.07 0.02 -0.02 0.04 -0.06 0.04 -0.09 0.01 -0.03 0.02 -0.06 0.03 -0.06 0.01 0 0.02 -0.01 0.02 -0.03 0 -0.02 0.01 -0.03 0.02 -0.03 0.01 0 0.02 -0.02 0.03 -0.05 0.01 -0.03 0.03 -0.05 0.05 -0.06 0.02 -0.01 0.04 -0.03 0.04 -0.05 0 -0.03 0.02 -0.05 0.05 -0.05 0.04 -0.01 0.04 -0.02 0.04 -0.10 0 -0.06 0.01 -0.11 0.03 -0.13 0.02 -0.02 0.03 -0.04 0.03 -0.05 0 -0.01 0.01 -0.02 0.02 -0.02 0.01 0 0.02 -0.03 0.03 -0.07 0.01 -0.04 0.02 -0.07 0.04 -0.08 0.02 -0.01 0.03 -0.03 0.03 -0.06 0 -0.03 0.01 -0.05 0.02 -0.05 0.01 0 0.02 -0.02 0.02 -0.04 0 -0.03 0.02 -0.04 0.05 -0.05 0.05 -0.01 0.07 -0.05 0.03 -0.05 -0.01 0 -0.02 -0.01 -0.02 -0.03 0 -0.02 0.01 -0.03 0.02 -0.03 0.01 0 0.02 -0.02 0.02 -0.05 0 -0.03 0.01 -0.05 0.02 -0.05 0.01 0 0.02 -0.03 0.03 -0.07 0.01 -0.05 0.02 -0.07 0.05 -0.07 0.03 0 0.04 -0.02 0.05 -0.11 0.01 -0.06 0.02 -0.11 0.03 -0.11 0.01 0 0.02 -0.04 0.03 -0.08 0.01 -0.04 0.02 -0.08 0.03 -0.08 0.01 0 0.02 -0.02 0.02 -0.04 0 -0.02 0.01 -0.05 0.03 -0.07 0.02 -0.02 0.03 -0.05 0.03 -0.08 0 -0.03 0.01 -0.05 0.02 -0.05 0.01 0 0.02 -0.02 0.02 -0.05 0 -0.03 0.01 -0.05 0.02 -0.05 0.01 0 0.03 -0.04 0.03 -0.08 0.01 -0.04 0.02 -0.08 0.03 -0.08 0.01 0 0.02 -0.01 0.02 -0.03 0 -0.02 0.01 -0.03 0.02 -0.03 0.01 0 0.02 -0.04 0.03 -0.08 0.01 -0.04 0.02 -0.08 0.03 -0.08 0.01 0 0.02 -0.02 0.02 -0.05 0 -0.03 0.01 -0.05 0.02 -0.05 0.01 0 0.02 -0.04 0.03 -0.09 0 -0.05 0.02 -0.10 0.03 -0.10 0.01 -0.01 0.02 -0.06 0.03 -0.12 0.01 -0.06 0.02 -0.11 0.03 -0.11 0.01 0 0.02 -0.01 0.02 -0.03 0 -0.02 0.01 -0.03 0.02 -0.03 0.01 0 0.02 -0.07 0.03 -0.15 0.01 -0.08 0.02 -0.15 0.03 -0.15 0.01 0 0.02 -0.02 0.02 -0.05 0 -0.03 0.01 -0.05 0.02 -0.05 0.01 -0 0.03 -0.05 0.03 -0.11 0 -0.06 0.02 -0.10 0.03 -0.10 0.01 0 0.02 -0.02 0.02 -0.05 0 -0.03 0.01 -0.05 0.02 -0.05 0.01 0 0.02 -0.05 0.03 -0.12 0.01 -0.07 0.03 -0.13 0.04 -0.15 0.02 -0.02 0.03 -0.05 0.03 -0.08 0 -0.03 0.01 -0.05 0.02 -0.05 0.01 0 0.02 -0.06 0.02 -0.14 0 -0.08 0.01 -0.14 0.02 -0.14 0.01 -0 0.03 -0.08 0.03 -0.17 0.01 -0.09 0.02 -0.16 0.03 -0.16 0.01 0 0.02 -0.02 0.02 -0.05 0 -0.03 0.01 -0.05 0.02 -0.05 0.01 0 0.02 -0.10 0.03 -0.23 0.01 -0.12 0.02 -0.23 0.03 -0.23 0.01 0 0.02 -0.04 0.02 -0.10 0 -0.05 0.01 -0.10 0.02 -0.10 0.01 -0 0.03 -0.15 0.03 -0.31 0.01 -0.17 0.02 -0.31 0.03 -0.31 0.01 0 0.02 -0.04 0.02 -0.09 0 -0.05 0.01 -0.09 0.03 -0.10 0.02 -0.01 0.02 -0.28 0.02 -1.28 0 -1 -0.01 -1.27 -0.02 -1.28 -0.01 -0 -0.03 -0.03 -0.03 -0.06 0 -0.03 -0.01 -0.06 -0.02 -0.06 -0.01 -0 -0.02 -0.14 -0.03 -0.31 -0.01 -0.17 -0.02 -0.31 -0.03 -0.31 -0.01 -0 -0.02 -0.04 -0.02 -0.08 0 -0.04 -0.01 -0.08 -0.02 -0.08 -0.01 0 -0.02 -0.09 -0.03 -0.20 -0.01 -0.11 -0.02 -0.20 -0.03 -0.21 -0.01 -0 -0.02 -0.03 -0.02 -0.05 0 -0.03 -0.01 -0.05 -0.02 -0.05 -0.01 0 -0.02 -0.06 -0.03 -0.14 -0.01 -0.08 -0.02 -0.15 -0.03 -0.15 -0.01 -0 -0.02 -0.05 -0.02 -0.10 0 -0.05 -0.01 -0.10 -0.02 -0.10 -0.01 0 -0.02 -0.05 -0.03 -0.10 -0.01 -0.05 -0.02 -0.10 -0.03 -0.10 -0.01 0 -0.02 -0.06 -0.03 -0.14 -0.01 -0.07 -0.02 -0.14 -0.03 -0.14 -0.01 0 -0.02 -0.03 -0.02 -0.07 0 -0.04 -0.01 -0.07 -0.02 -0.07 -0.01 0 -0.03 -0.06 -0.03 -0.13 -0.01 -0.07 -0.02 -0.13 -0.03 -0.13 -0.01 0 -0.02 -0.01 -0.02 -0.03 0 -0.02 -0.01 -0.03 -0.02 -0.03 -0.01 0 -0.02 -0.04 -0.03 -0.10 -0.01 -0.05 -0.02 -0.10 -0.03 -0.10 -0.01 0 -0.02 -0.02 -0.02 -0.05 0 -0.03 -0.01 -0.05 -0.02 -0.05 -0.01 0 -0.02 -0.03 -0.02 -0.07 0 -0.04 -0.01 -0.07 -0.03 -0.08 -0.02 -0.01 -0.03 -0.06 -0.04 -0.14 -0.01 -0.07 -0.02 -0.12 -0.03 -0.12 -0.01 0 -0.02 -0.03 -0.02 -0.07 0 -0.04 -0.01 -0.07 -0.02 -0.07 -0.01 0 -0.02 -0.02 -0.02 -0.05 0 -0.03 -0.02 -0.06 -0.05 -0.08 -0.04 -0.03 -0.05 -0.06 -0.06 -0.13 -0.01 -0.05 -0.02 -0.09 -0.03 -0.09 -0.01 0 -0.02 -0.03 -0.02 -0.07 0 -0.04 -0.01 -0.07 -0.02 -0.07 -0.01 0 -0.02 -0.01 -0.02 -0.03 0 -0.02 -0.01 -0.04 -0.03 -0.04 -0.02 -0.01 -0.03 -0.03 -0.03 -0.05 0 -0.02 -0.01 -0.04 -0.02 -0.04 -0.01 0 -0.03 -0.04 -0.03 -0.08 -0.01 -0.04 -0.02 -0.08 -0.03 -0.08 -0.01 0 -0.02 -0.03 -0.03 -0.07 -0.01 -0.04 -0.03 -0.07 -0.05 -0.08 -0.02 -0.01 -0.04 -0.04 -0.05 -0.09 -0.01 -0.04 -0.02 -0.08 -0.03 -0.08 -0.01 0 -0.02 -0.02 -0.02 -0.04 0 -0.02 -0.01 -0.04 -0.02 -0.04 -0.01 0 -0.02 -0.04 -0.03 -0.08 -0.01 -0.05 -0.02 -0.08 -0.05 -0.09 -0.03 -0.01 -0.04 -0.04 -0.05 -0.10 -0.01 -0.05 -0.02 -0.09 -0.03 -0.09 -0.01 0 -0.02 -0.03 -0.02 -0.06 0 -0.04 -0.02 -0.08 -0.05 -0.11 -0.03 -0.03 -0.05 -0.07 -0.06 -0.10 -0.01 -0.03 -0.02 -0.05 -0.03 -0.05 -0.01 0 -0.02 -0.01 -0.02 -0.03 0 -0.02 -0.01 -0.03 -0.02 -0.03 -0.01 0 -0.02 -0.03 -0.03 -0.06 -0.01 -0.04 -0.03 -0.08 -0.06 -0.10 -0.03 -0.02 -0.05 -0.05 -0.05 -0.08 0 -0.02 -0.02 -0.05 -0.04 -0.07 -0.02 -0.02 -0.04 -0.05 -0.05 -0.07 -0.01 -0.03 -0.02 -0.05 -0.03 -0.05 -0.01 0 -0.02 -0.03 -0.03 -0.06 -0.01 -0.03 -0.02 -0.06 -0.03 -0.06 -0.01 0 -0.02 -0.02 -0.02 -0.04 0 -0.02 -0.01 -0.04 -0.03 -0.05 -0.02 -0.01 -0.03 -0.02 -0.03 -0.04 0 -0.02 -0.01 -0.03 -0.02 -0.03 -0.01 0 -0.02 -0.01 -0.02 -0.03 0 -0.02 -0.02 -0.05 -0.05 -0.08 -0.03 -0.03 -0.05 -0.06 -0.05 -0.08 0 -0.02 -0.02 -0.05 -0.05 -0.08 -0.03 -0.03 -0.05 -0.06 -0.05 -0.07 0 -0.02 -0.01 -0.03 -0.03 -0.04 -0.02 -0.01 -0.03 -0.02 -0.03 -0.04 0 -0.02 -0.01 -0.03 -0.02 -0.03 -0.01 0 -0.02 -0.02 -0.02 -0.04 0 -0.02 -0.01 -0.05 -0.03 -0.05 -0.02 -0.01 -0.03 -0.03 -0.03 -0.05 0 -0.02 -0.01 -0.04 -0.03 -0.05 -0.02 -0.01 -0.03 -0.03 -0.03 -0.05 0 -0.02 -0.01 -0.04 -0.02 -0.04 -0.01 0 -0.02 -0.01 -0.02 -0.03 0 -0.02 -0.01 -0.03 -0.03 -0.04 -0.02 -0.01 -0.03 -0.03 -0.03 -0.05 0 -0.02 -0.02 -0.04 -0.04 -0.05 -0.02 -0.01 -0.04 -0.03 -0.04 -0.05 0 -0.02 -0.01 -0.04 -0.03 -0.05 -0.02 -0.01 -0.03 -0.03 -0.03 -0.05 0 -0.02 -0.02 -0.05 -0.05 -0.07 -0.03 -0.02 -0.05 -0.05 -0.06 -0.08 -0.01 -0.03 -0.02 -0.05 -0.03 -0.05 -0.01 0 -0.02 -0.01 -0.02 -0.02 0 -0.01 -0.03 -0.05 -0.07 -0.09 -0.04 -0.04 -0.07 -0.07 -0.07 -0.08 0 -0.01 -0.02 -0.04 -0.05 -0.07 -0.03 -0.03 -0.05 -0.06 -0.05 -0.06 0 -0.01 -0.02 -0.03 -0.04 -0.05 -0.02 -0.02 -0.04 -0.05 -0.04 -0.06 0 -0.01 -0.02 -0.04 -0.04 -0.05 -0.02 -0.02 -0.04 -0.04 -0.04 -0.05 0 -0.03 -0.06 -0.10 -0.11 -0.11 -0.03 -0.01 -0.05 -0.03 -0.05 -0.05 0 -0.04 -0.04 -0.10 -0.07 -0.10 -0.02 0 -0.12 -0.11 -0.13 -0.15 -0.01 -0.02 -0.03 -0.05 -0.05 -0.05 -0.02 -0.01 -0.04 -0.03 -0.05 -0.05 -0.01 -0.02 -0.03 -0.04 -0.05 -0.05 -0.02 -0.01 -0.04 -0.03 -0.05 -0.05 -0.01 -0.02 -0.11 -0.14 -0.24 -0.26 -0.12 -0.12 -0.22 -0.24 -0.22 -0.25 0 -0.02 -0.02 -0.04 -0.04 -0.04 -0.02 -0.01 -0.04 -0.03 -0.04 -0.05 0 -0.02 -0.01 -0.04 -0.03 -0.04 -0.01 0 -0.04 -0.02 -0.06 -0.05 -0.02 -0.03 -0.05 -0.05 -0.06 -0.05 -0.01 0 -0.09 -0.06 -0.16 -0.14 -0.08 -0.08 -0.15 -0.14 -0.17 -0.14 -0.02 0 -0.04 -0.02 -0.04 -0.04 -0.01 -0.02 -0.03 -0.04 -0.04 -0.04 -0.02 0 -0.07 -0.04 -0.12 -0.09 -0.05 -0.05 -0.10 -0.09 -0.11 -0.09 -0.02 0 -0.03 -0.02 -0.03 -0.04 0 -0.02 -0.01 -0.04 -0.03 -0.04 -0.02 0 -0.09 -0.07 -0.17 -0.15 -0.08 -0.08 -0.17 -0.15 -0.20 -0.16 -0.03 -0.01 -0.05 -0.02 -0.05 -0.03 0 -0.01 -0.02 -0.02 -0.04 -0.03 -0.05 -0.02 -0.19 -0.15 -0.20 -0.20 -0.01 -0.03 -0.03 -0.04 -0.08 -0.04 -0.04 0 -0.07 -0.01 -0.08 -0.03 -0.01 -0.02 -0.03 -0.03 -0.05 -0.03 -0.02 0 -0.04 -0.02 -0.05 -0.04 -0.01 -0.02 -0.03 -0.05 -0.05 -0.05 -0.02 -0.01 -0.04 -0.02 -0.05 -0.04 -0.01 -0.02 -0.03 -0.03 -0.06 -0.03 -0.04 0 -0.05 -0.01 -0.05 -0.04 0 -0.03 -0.02 -0.04 -0.05 -0.05 -0.03 -0.01 -0.05 -0.02 -0.05 -0.03 0 -0.01 -0.02 -0.02 -0.05 -0.02 -0.03 0 -0.05 -0.01 -0.05 -0.02 0 -0.01 -0.01 -0.02 -0.03 -0.02 -0.02 0 -0.06 -0.04 -0.10 -0.08 -0.04 -0.04 -0.10 -0.08 -0.13 -0.09 -0.03 -0.01 -0.05 -0.02 -0.05 -0.03 0 -0.01 -0.02 -0.02 -0.04 -0.02 -0.02 0 -0.04 -0.01 -0.04 -0.02 0 -0.01 -0.03 -0.02 -0.06 -0.03 -0.03 -0.01 -0.06 -0.02 -0.06 -0.03 0 -0.01 -0.02 -0.02 -0.04 -0.02 -0.02 0 -0.04 -0.01 -0.05 -0.03 -0.01 -0.02 -0.03 -0.03 -0.05 -0.03 -0.02 0 -0.04 -0.01 -0.04 -0.02 0 -0.01 -0.01 -0.02 -0.02 -0.02 -0.01 0 -0.05 -0.03 -0.09 -0.07 -0.05 -0.05 -0.09 -0.07 -0.16 -0.08 -0.05 -0 -0.09 -0.02 -0.09 -0.02 0 -0.01 -0.02 -0.02 -0.05 -0.03 -0.03 -0.01 -0.07 -0.03 -0.08 -0.05 -0.02 -0.02 -0.05 -0.04 -0.07 -0.05 -0.02 -0.01 -0.05 -0.03 -0.05 -0.05 -0.01 -0.02 -0.03 -0.04 -0.06 -0.04 -0.03 0 -0.06 -0.01 -0.08 -0.03 -0.02 -0.02 -0.04 -0.03 -0.05 -0.03 -0.01 0 -0.02 -0.01 -0.02 -0.02 0 -0.01 -0.04 -0.02 -0.08 -0.02 -0.05 0 -0.08 -0.01 -0.08 -0.03 0 -0.02 -0.03 -0.03 -0.09 -0.04 -0.05 -0.01 -0.09 -0.02 -0.09 -0.03 0 -0.01 -0.01 -0.02 -0.03 -0.02 -0.02 0 -0.03 -0.01 -0.03 -0.02 0 -0.01 -0.03 -0.02 -0.07 -0.03 -0.04 -0.01 -0.08 -0.03 -0.10 -0.05 -0.02 -0.02 -0.07 -0.04 -0.11 -0.05 -0.04 -0.01 -0.07 -0.02 -0.07 -0.03 0 -0.01 -0.02 -0.02 -0.05 -0.02 -0.03 0 -0.05 -0.01 -0.05 -0.02 0 -0.01 -0.04 -0.02 -0.10 -0.03 -0.05 -0.01 -0.10 -0.02 -0.10 -0.03 0 -0.01 -0.01 -0.02 -0.03 -0.02 -0.02 0 -0.03 -0.01 -0.03 -0.02 0 -0.01 -0.03 -0.03 -0.06 -0.03 -0.04 -0.01 -0.07 -0.02 -0.08 -0.03 -0.01 -0.01 -0.05 -0.02 -0.09 -0.03 -0.04 -0.01 -0.08 -0.02 -0.08 -0.03 0 -0.01 -0.02 -0.02 -0.04 -0.02 -0.02 0 -0.05 -0.01 -0.07 -0.03 -0.02 -0.02 -0.06 -0.03 -0.09 -0.03 -0.03 0 -0.06 -0.01 -0.06 -0.02 0 -0.01 -0.02 -0.02 -0.04 -0.02 -0.02 0 -0.04 -0.01 -0.04 -0.02 0 -0.01 -0.05 -0.03 -0.11 -0.03 -0.06 -0.01 -0.11 -0.02 -0.11 -0.03 0 -0.01 -0.02 -0.02 -0.04 -0.02 -0.02 0 -0.04 -0.01 -0.05 -0.02 -0 -0.01 -0.05 -0.03 -0.10 -0.03 -0.05 -0.01 -0.11 -0.03 -0.13 -0.05 -0.02 -0.02 -0.08 -0.04 -0.20 -0.05 -0.13 -0.01 -0.17 -0.02 -0.17 -0.04 0 -0.02 -0.02 -0.03 -0.05 -0.03 -0.03 0 -0.05 -0.01 -0.05 -0.02 0 -0.01 -0.03 -0.02 -0.06 -0.02 -0.03 0 -0.06 -0.01 -0.06 -0.02 0 -0.01 -0.07 -0.02 -0.17 -0.03 -0.09 -0.01 -0.17 -0.02 -0.17 -0.03 0 -0.01 -0.01 -0.02 -0.03 -0.02 -0.02 0 -0.03 -0.01 -0.04 -0.02 -0.01 -0.01 -0.06 -0.03 -0.15 -0.03 -0.08 -0 -0.14 -0.02 -0.14 -0.03 0 -0.01 -0.04 -0.02 -0.09 -0.02 -0.05 0 -0.09 -0.01 -0.09 -0.02 -0 -0.01 -0.10 -0.03 -0.22 -0.03 -0.12 -0.01 -0.22 -0.02 -0.23 -0.03 -0.01 -0.01 -0.09 -0.02 -0.19 -0.03 -0.10 -0 -0.18 -0.02 -0.18 -0.03 0 -0.01 -0.03 -0.02 -0.06 -0.02 -0.03 0 -0.06 -0.01 -0.06 -0.02 -0 -0.01 -0.13 -0.03 -0.28 -0.03 -0.15 -0.01 -0.27 -0.02 -0.27 -0.03 0 -0.01 -0.04 -0.02 -0.08 -0.02 -0.05 0 -0.08 -0.01 -0.08 -0.02 -0.01 -0.02 -0.28 -0.03 -1.27 -0.03 -0.99 0 -1.26 0.01 -1.27 0.03 -0.01 0.02 -0.06 0.02 -0.17 0.02 -0.08 0 -0.16 0.01 -0.16 0.02 0 0.01 -0.14 0.02 -0.32 0.03 -0.19 0.01 -0.32 0.02 -0.33 0.03 -0 0.01 -0.05 0.02 -0.11 0.02 -0.06 0 -0.11 0.01 -0.11 0.02 0 0.01 -0.07 0.02 -0.16 0.03 -0.09 0 -0.17 0.02 -0.17 0.03 -0.01 0.01 -0.11 0.03 -0.25 0.04 -0.13 0.01 -0.23 0.02 -0.23 0.03 0 0.03 -0.09 0.02 -0.10 -0.01 -0.01 -0.02 -0.02 -0.01 -0.05 0.02 -0.04 0.04 -0.06 0.05 -0.21 0.05 -0.09 0.01 -0.17 0.02 -0.17 0.03 0 0.01 -0.01 0.02 -0.02 0.02 -0.01 0 -0.03 0.01 -0.05 0.03 -0.02 0.02 -0.06 0.03 -0.11 0.03 -0.04 0 -0.08 0.01 -0.08 0.02 0 0.01 -0.04 0.02 -0.10 0.02 -0.07 0 -0.10 0.01 -0.11 0.03 -0.01 0.02 -0.04 0.03 -0.10 0.03 -0.05 0 -0.09 0.01 -0.09 0.02 0 0.01 -0.03 0.02 -0.06 0.03 -0.03 0.01 -0.06 0.02 -0.06 0.03 0 0.01 -0.02 0.02 -0.05 0.02 -0.03 0 -0.05 0.01 -0.05 0.02 0 0.01 -0.05 0.02 -0.12 0.03 -0.09 0.01 -0.12 0.02 -0.13 0.05 -0.01 0.03 -0.04 0.04 -0.13 0.05 -0.06 0.01 -0.12 0.02 -0.12 0.03 0 0.01 -0.02 0.02 -0.05 0.02 -0.03 0 -0.05 0.01 -0.05 0.02 0 0.01 -0.04 0.03 -0.09 0.03 -0.05 0.01 -0.09 0.02 -0.09 0.03 0 0.01 -0.02 0.02 -0.04 0.02 -0.02 0 -0.04 0.01 -0.04 0.02 0 0.01 -0.04 0.03 -0.08 0.03 -0.04 0.01 -0.08 0.02 -0.08 0.03 0 0.01 -0.03 0.02 -0.06 0.02 -0.03 0 -0.07 0.01 -0.09 0.03 -0.02 0.02 -0.05 0.03 -0.07 0.03 -0.02 0 -0.04 0.01 -0.04 0.02 0 0.01 -0.04 0.03 -0.08 0.03 -0.04 0.01 -0.08 0.02 -0.08 0.03 0 0.01 -0.02 0.02 -0.05 0.02 -0.03 0 -0.05 0.01 -0.05 0.02 0 0.01 -0.02 0.02 -0.05 0.02 -0.03 0 -0.06 0.01 -0.08 0.03 -0.02 0.02 -0.05 0.03 -0.07 0.03 -0.02 0 -0.04 0.01 -0.04 0.02 0 0.01 -0.03 0.02 -0.06 0.03 -0.03 0.01 -0.06 0.02 -0.06 0.03 0 0.01 -0.01 0.02 -0.03 0.02 -0.02 0 -0.03 0.01 -0.03 0.02 0 0.01 -0.02 0.02 -0.04 0.02 -0.02 0 -0.05 0.01 -0.05 0.03 -0.01 0.02 -0.05 0.03 -0.11 0.04 -0.05 0.01 -0.10 0.02 -0.10 0.03 0 0.01 -0.03 0.02 -0.06 0.02 -0.04 0 -0.08 0.02 -0.13 0.07 -0.04 0.04 -0.09 0.07 -0.12 0.08 -0.03 0.01 -0.05 0.02 -0.05 0.03 0 0.01 -0.02 0.02 -0.04 0.02 -0.02 0 -0.04 0.01 -0.04 0.02 0 0.01 -0.02 0.02 -0.04 0.02 -0.02 0 -0.05 0.01 -0.07 0.03 -0.02 0.02 -0.05 0.03 -0.09 0.03 -0.04 0 -0.06 0.01 -0.06 0.03 0 0.02 -0.02 0.03 -0.05 0.03 -0.03 0 -0.05 0.01 -0.06 0.03 -0.01 0.02 -0.03 0.03 -0.05 0.03 -0.02 0 -0.04 0.02 -0.05 0.04 -0.01 0.03 -0.04 0.04 -0.09 0.05 -0.04 0.01 -0.08 0.02 -0.08 0.03 0 0.01 -0.01 0.02 -0.03 0.02 -0.02 0 -0.06 0.03 -0.09 0.07 -0.04 0.04 -0.08 0.07 -0.11 0.08 -0.02 0.01 -0.04 0.02 -0.04 0.03 0 0.01 -0.03 0.02 -0.05 0.03 -0.03 0.01 -0.07 0.03 -0.09 0.06 -0.02 0.03 -0.05 0.05 -0.08 0.05 -0.02 0 -0.05 0.02 -0.07 0.04 -0.02 0.02 -0.05 0.04 -0.07 0.05 -0.03 0.01 -0.05 0.02 -0.05 0.03 0 0.01 -0.01 0.02 -0.03 0.02 -0.02 0 -0.03 0.01 -0.03 0.02 0 0.01 -0.02 0.02 -0.05 0.02 -0.03 0 -0.05 0.01 -0.05 0.02 0 0.04 -0.12 0.14 -0.18 0.15 -0.07 0.01 -0.13 0.07 -0.13 0.12 0 0.01 -0.02 0.03 -0.04 0.03 -0.02 0 -0.04 0.01 -0.04 0.02 0 0.01 -0.02 0.02 -0.05 0.03 -0.03 0.01 -0.05 0.03 -0.06 0.05 -0.01 0.02 -0.03 0.04 -0.05 0.05 -0.02 0.01 -0.04 0.02 -0.04 0.03 0 0.01 -0.01 0.02 -0.02 0.02 -0.01 0 -0.05 0.03 -0.08 0.06 -0.03 0.03 -0.06 0.06 -0.08 0.06 -0.01 0 -0.05 0.03 -0.08 0.07 -0.04 0.04 -0.07 0.07 -0.09 0.07 -0.01 0 -0.02 0.01 -0.02 0.02 0 0.01 -0.02 0.02 -0.04 0.03 -0.02 0.01 -0.05 0.03 -0.05 0.05 -0.01 0.02 -0.03 0.04 -0.06 0.05 -0.03 0.01 -0.05 0.02 -0.05 0.03 0 0.01 -0.03 0.02 -0.07 0.03 -0.04 0.01 -0.07 0.02 -0.07 0.04 0 0.04 -0.38 0.42 -0.42 0.42 -0.02 0 -0.03 0.02 -0.04 0.04 -0.01 0.02 -0.03 0.05 -0.05 0.05 -0.02 0.01 -0.04 0.02 -0.04 0.03 0 0.01 -0.04 0.06 -0.09 0.10 -0.05 0.05 -0.09 0.10 -0.09 0.11 0 0.01 -0.02 0.02 -0.04 0.02 -0.02 0 -0.04 0.02 -0.05 0.04 -0.01 0.02 -0.03 0.05 -0.05 0.05 -0.02 0.01 -0.04 0.03 -0.04 0.05 -0 0.03 -0.02 0.05 -0.05 0.05 -0.02 0 -0.05 0.02 -0.05 0.04 -0.01 0.02 -0.02 0.04 -0.04 0.05 -0.02 0.01 -0.03 0.02 -0.03 0.03 0 0.03 -0.19 0.22 -0.21 0.22 -0.04 0 -0.08 0.06 -0.08 0.11 0 0.03 -0.01 0.05 -0.02 0.05 -0.01 0 -0.02 0.02 -0.03 0.05 -0.01 0.03 -0.03 0.05 -0.05 0.06 -0.06 0.02 -0.15 0.11 -0.15 0.15 0 0.04 -0.08 0.13 -0.12 0.13 -0.01 0 -0.02 0.01 -0.02 0.03 0 0.02 -0.01 0.03 -0.02 0.03 -0.01 0 -0.02 0.02 -0.03 0.05 -0.01 0.03 -0.03 0.05 -0.06 0.06 -0.03 0.01 -0.05 0.03 -0.05 0.05 0 0.02 -0.01 0.04 -0.02 0.04 -0.01 0 -0.02 0.02 -0.03 0.05 -0.01 0.03 -0.05 0.08 -0.08 0.12 -0.04 0.04 -0.07 0.07 -0.07 0.09 0 0.01 -0.01 0.02 -0.02 0.02 -0.01 0 -0.03 0.02 -0.03 0.04 -0.01 0.02 -0.03 0.06 -0.06 0.09 -0.03 0.03 -0.05 0.06 -0.05 0.07 0 0.03 -0.05 0.08 -0.09 0.08 -0.03 0 -0.04 0.02 -0.05 0.08 -0.01 0.04 -0.02 0.08 -0.03 0.08 -0.01 0 -0.02 0.01 -0.02 0.03 0 0.02 -0.01 0.03 -0.02 0.03 -0.01 0 -0.02 0.01 -0.02 0.03 0 0.02 -0.02 0.05 -0.05 0.07 -0.03 0.03 -0.05 0.07 -0.06 0.09 -0.01 0.03 -0.03 0.06 -0.04 0.07 -0.02 0.01 -0.03 0.04 -0.03 0.05 0 0.01 -0.02 0.04 -0.05 0.06 -0.03 0.02 -0.05 0.05 -0.05 0.07 0 0.02 -0.02 0.04 -0.04 0.05 -0.02 0.01 -0.04 0.03 -0.04 0.05 0 0.02 -0.01 0.04 -0.03 0.05 -0.02 0.01 -0.03 0.03 -0.03 0.05 0 0.02 -0.01 0.04 -0.02 0.04 -0.01 0 -0.02 0.04 -0.03 0.08 -0.01 0.04 -0.02 0.08 -0.03 0.08 -0.01 0 -0.02 0.01 -0.02 0.03 0 0.02 -0.01 0.03 -0.02 0.03 -0.01 0 -0.02 0.02 -0.03 0.05 -0.01 0.03 -0.03 0.05 -0.04 0.05 -0.02 0 -0.03 0.01 -0.03 0.03 0 0.02 -0.01 0.03 -0.02 0.03 -0.01 0 -0.02 0.02 -0.02 0.05 0 0.03 -0.01 0.05 -0.02 0.05 -0.01 0 -0.02 0.03 -0.03 0.07 -0.01 0.04 -0.04 0.09 -0.06 0.12 -0.03 0.03 -0.05 0.06 -0.05 0.07 0 0.02 -0.01 0.03 -0.02 0.03 -0.01 0 -0.02 0.01 -0.02 0.02 0 0.01 -0.01 0.03 -0.03 0.05 -0.02 0.02 -0.03 0.05 -0.03 0.08 0 0.02 -0.01 0.05 -0.03 0.06 -0.02 0.01 -0.03 0.03 -0.03 0.05 0 0.02 -0.01 0.04 -0.02 0.04 -0.01 0 -0.02 0.02 -0.02 0.05 0 0.03 -0.01 0.05 -0.03 0.06 -0.02 0.01 -0.03 0.03 -0.03 0.05 0 0.03 -0.02 0.06 -0.04 0.07 -0.02 0.02 -0.05 0.06 -0.05 0.10 -0.01 0.04 -0.02 0.07 -0.03 0.07 -0.01 0 -0.02 0.01 -0.02 0.03 0 0.02 -0.01 0.03 -0.02 0.03 -0.01 0 -0.02 0.04 -0.03 0.09 -0.01 0.05 -0.03 0.11 -0.05 0.13 -0.02 0.02 -0.05 0.06 -0.05 0.10 -0.01 0.04 -0.02 0.07 -0.03 0.07 -0.01 0 -0.02 0.03 -0.03 0.07 -0.01 0.04 -0.03 0.08 -0.05 0.10 -0.02 0.02 -0.04 0.07 -0.05 0.13 -0.01 0.05 -0.02 0.09 -0.03 0.09 -0.01 0 -0.02 0.02 -0.02 0.05 0 0.03 -0.01 0.05 -0.02 0.05 -0.01 0 -0.02 0.04 -0.03 0.08 -0.01 0.05 -0.03 0.09 -0.05 0.11 -0.02 0.02 -0.04 0.07 -0.05 0.12 -0.01 0.05 -0.02 0.09 -0.03 0.09 -0.01 0 -0.02 0.03 -0.02 0.05 0 0.03 -0.01 0.05 -0.02 0.05 -0.01 0 -0.02 0.03 -0.02 0.06 0 0.03 -0.01 0.07 -0.03 0.08 -0.01 0.02 -0.03 0.08 -0.04 0.14 -0.01 0.06 -0.02 0.11 -0.03 0.11 -0.01 0 -0.02 0.02 -0.02 0.04 0 0.02 -0.01 0.04 -0.02 0.04 -0.01 0 -0.02 0.06 -0.03 0.13 -0.01 0.07 -0.02 0.14 -0.03 0.14 -0.01 0 -0.02 0.02 -0.02 0.04 0 0.02 -0.01 0.03 -0.02 0.03 -0.01 0 -0.02 0.04 -0.03 0.08 -0.01 0.04 -0.02 0.08 -0.03 0.08 -0.01 0 -0.02 0.04 -0.02 0.08 0 0.04 -0.01 0.08 -0.02 0.08 -0.01 0 -0.02 0.09 -0.03 0.19 -0.01 0.11 -0.02 0.20 -0.04 0.20 -0.01 0.01 -0.03 0.07 -0.03 0.13 -0 0.07 -0.02 0.12 -0.03 0.12 -0.01 0 -0.02 0.03 -0.02 0.07 0 0.04 -0.01 0.07 -0.02 0.07 -0.01 0 -0.02 0.10 -0.03 0.23 -0.01 0.12 -0.02 0.23 -0.03 0.23 -0.01 0 -0.02 0.02 -0.02 0.05 0 0.03 -0.01 0.05 -0.02 0.05 -0.01 0 -0.02 0.10 -0.03 0.22 -0.01 0.12 -0.02 0.22 -0.03 0.22 -0.01 0 -0.02 0.07 -0.02 0.17 0 0.09 -0.01 0.17 -0.02 0.17 -0.01 0 -0.02 0.26 -0.03 0.58 -0.01 0.32 -0.02 0.58 -0.03 0.58 -0.02 0.01 -0.02 0.10 -0 0.10 0.01 0 0.02 0.35 0.03 0.77 0.01 0.46 0.02 0.77 0.03 0.78 0.01 0 0.02 0.05 0.02 0.11 0 0.06 0.01 0.11 0.02 0.11 0.01 0 0.02 0.14 0.03 0.30 0.01 0.16 0.02 0.30 0.03 0.30 0.01 0 0.02 0.02 0.02 0.05 0 0.02 0.01 0.04 0.02 0.04 0.01 0 0.02 0.08 0.03 0.18 0.01 0.10 0.02 0.18 0.03 0.19 0.01 0 0.02 0.06 0.02 0.13 0 0.07 0.01 0.13 0.02 0.13 0.01 0 0.02 0.08 0.03 0.19 0.01 0.11 0.02 0.20 0.03 0.20 0.01 0.01 0.03 0.05 0.03 0.11 0.01 0.05 0.02 0.09 0.03 0.09 0.01 0 0.02 0.02 0.02 0.05 0 0.03 0.01 0.05 0.02 0.05 0.01 0 0.02 0.07 0.03 0.15 0.01 0.08 0.02 0.15 0.03 0.16 0.01 0 0.02 0.02 0.02 0.05 0 0.02 0.01 0.04 0.02 0.04 0.01 0 0.02 0.05 0.03 0.12 0.01 0.07 0.02 0.12 0.03 0.13 0.01 0 0.02 0.03 0.02 0.05 0 0.03 0.01 0.05 0.02 0.05 0.01 0 0.02 0.05 0.03 0.11 0.01 0.06 0.02 0.11 0.03 0.11 0.01 0 0.02 0.04 0.03 0.09 0.01 0.05 0.02 0.10 0.03 0.10 0.01 0 0.02 0.03 0.02 0.05 0 0.03 0.01 0.05 0.02 0.05 0.01 0 0.03 0.06 0.03 0.13 0.01 0.07 0.02 0.13 0.03 0.13 0.01 0 0.02 0.03 0.02 0.07 0 0.04 0.01 0.07 0.02 0.07 0.01 0 0.02 0.01 0.02 0.03 0 0.02 0.01 0.04 0.03 0.04 0.02 0.01 0.03 0.03 0.03 0.06 0 0.03 0.01 0.05 0.02 0.05 0.01 0 0.03 0.04 0.03 0.09 0.01 0.06 0.03 0.09 0.05 0.10 0.02 0.01 0.04 0.04 0.05 0.09 0.01 0.04 0.02 0.08 0.03 0.08 0.01 0 0.02 0.04 0.03 0.09 0.01 0.05 0.03 0.11 0.05 0.12 0.02 0.02 0.04 0.07 0.05 0.12 0.01 0.05 0.02 0.09 0.03 0.09 0.01 0 0.02 0.01 0.02 0.03 0 0.02 0.01 0.03 0.02 0.03 0.01 0 0.03 0.04 0.03 0.08 0.01 0.04 0.02 0.08 0.03 0.08 0.01 0 0.02 0.01 0.02 0.03 0 0.02 0.01 0.03 0.02 0.03 0.01 0 0.02 0.03 0.03 0.07 0.01 0.04 0.02 0.07 0.03 0.07 0.01 0 0.02 0.01 0.02 0.03 0 0.02 0.01 0.03 0.02 0.03 0.01 0 0.02 0.03 0.03 0.07 0.01 0.04 0.02 0.07 0.03 0.07 0.01 0 0.02 0.02 0.03 0.05 0.01 0.03 0.02 0.05 0.03 0.05 0.01 0 0.02 0.01 0.02 0.03 0 0.02 0.01 0.03 0.02 0.03 0.01 0 0.02 0.03 0.03 0.07 0.01 0.04 0.02 0.07 0.03 0.07 0.01 0 0.02 0.01 0.02 0.02 0 0.01 0.01 0.03 0.03 0.05 0.02 0.02 0.03 0.05 0.03 0.08 0 0.03 0.01 0.05 0.04 0.06 0.02 0.01 0.04 0.03 0.05 0.06 0.01 0.03 0.02 0.05 0.03 0.05 0.01 0 0.02 0.03 0.03 0.07 0.01 0.04 0.02 0.07 0.03 0.07 0.01 0 0.02 0.01 0.02 0.03 0 0.02 0.01 0.03 0.02 0.03 0.01 0 0.02 0.03 0.03 0.06 0.01 0.04 0.03 0.06 0.05 0.06 0.03 0 0.04 0.01 0.04 0.05 0 0.03 0.01 0.06 0.03 0.08 0.02 0.02 0.03 0.04 0.03 0.05 0 0.01 0.01 0.02 0.02 0.02 0.01 0 0.02 0.02 0.02 0.04 0 0.02 0.02 0.05 0.05 0.07 0.03 0.02 0.05 0.05 0.06 0.08 0.01 0.03 0.02 0.05 0.03 0.05 0.01 0 0.02 0.02 0.02 0.05 0 0.03 0.02 0.06 0.05 0.08 0.03 0.02 0.05 0.06 0.06 0.10 0.01 0.04 0.02 0.06 0.03 0.06 0.01 0 0.02 0.01 0.02 0.03 0 0.03 0.02 0.07 0.07 0.11 0.01 0.01 0.04 0.04 0.05 0.05 0.01 0.01 0.04 0.04 0.06 0.06 0.02 0.02 0.03 0.05 0.03 0.07 0 0.02 0.02 0.04 0.04 0.05 0.02 0.01 0.05 0.03 0.05 0.06 0.01 0.03 0.02 0.05 0.03 0.05 0.01 0 0.02 0.01 0.02 0.03 0 0.02 0.01 0.03 0.02 0.03 0.01 0 0.02 0.02 0.03 0.04 0.01 0.02 0.03 0.05 0.05 0.05 0.02 0.01 0.05 0.03 0.05 0.06 0.01 0.03 0.02 0.05 0.03 0.05 0.01 0 0.02 0.02 0.02 0.04 0 0.02 0.01 0.04 0.02 0.04 0.01 0 0.02 0.02 0.02 0.05 0 0.03 0.01 0.05 0.03 0.05 0.02 0 0.04 0.01 0.04 0.03 0.01 0.02 0.03 0.03 0.05 0.04 0.02 0.01 0.04 0.03 0.05 0.05 0.01 0.02 0.03 0.04 0.05 0.05 0.02 0.01 0.04 0.03 0.05 0.05 0.01 0.02 0.04 0.07 0.08 0.11 0.04 0.04 0.07 0.07 0.07 0.08 0 0.02 0.05 0.07 0.08 0.07 0.01 0 0.03 0.03 0.03 0.07 0.01 0.04 0.02 0.07 0.04 0.07 0.04 0 0.16 0.13 0.16 0.17 0 0.02 0.02 0.03 0.04 0.03 0.02 0 0.04 0.01 0.04 0.03 0 0.02 0.02 0.04 0.04 0.04 0.02 0.01 0.04 0.03 0.04 0.05 0 0.02 0.02 0.04 0.05 0.05 0.03 0.01 0.05 0.03 0.05 0.05 0 0.02 0.02 0.04 0.04 0.05 0.02 0.01 0.05 0.03 0.05 0.05 0.02 0.05 0.15 0.19 0.21 0.20 0.02 0.01 0.17 0.14 0.32 0.29 0.15 0.15 0.29 0.27 0.30 0.27 0.01 0 0.03 0.01 0.03 0.02 0 0.01 0.01 0.02 0.03 0.02 0.02 0 0.03 0.01 0.03 0.02 0 0.01 0.02 0.03 0.04 0.03 0.02 0.01 0.05 0.03 0.05 0.06 0.01 0.03 0.02 0.05 0.03 0.05 0.01 0 0.02 0.01 0.02 0.03 0 0.02 0.02 0.03 0.05 0.03 0.03 0 0.05 0.01 0.06 0.04 0.01 0.02 0.03 0.04 0.05 0.04 0.02 0 0.05 0.02 0.07 0.05 0.02 0.03 0.06 0.05 0.10 0.06 0.05 0.01 0.06 0.02 0.06 0.05 0 0.02 0.01 0.04 0.03 0.04 0.01 0 0.04 0.02 0.06 0.04 0.02 0.02 0.05 0.04 0.06 0.04 0.02 0 0.03 0.02 0.03 0.04 0 0.02 0.01 0.04 0.03 0.04 0.02 0 0.06 0.03 0.09 0.06 0.03 0.03 0.07 0.06 0.08 0.06 0.02 0 0.03 0.01 0.03 0.02 0 0.01 0.01 0.02 0.03 0.02 0.02 0 0.03 0.01 0.03 0.02 0 0.01 0.01 0.02 0.03 0.02 0.02 0 0.05 0.02 0.07 0.05 0.03 0.03 0.06 0.05 0.09 0.06 0.02 0.01 0.05 0.03 0.05 0.04 0.01 0.02 0.03 0.03 0.05 0.03 0.03 0 0.04 0.02 0.05 0.06 0.02 0.08 0.05 0.11 0.16 0.12 0.05 0.01 0.11 0.03 0.13 0.05 0.02 0.02 0.05 0.04 0.08 0.05 0.03 0.01 0.05 0.02 0.05 0.03 0 0.01 0.01 0.02 0.03 0.02 0.02 0 0.06 0.03 0.09 0.06 0.03 0.04 0.07 0.06 0.10 0.06 0.04 0 0.05 0.01 0.05 0.04 0 0.03 0.01 0.04 0.05 0.04 0.03 0 0.06 0.02 0.08 0.05 0.02 0.03 0.06 0.05 0.11 0.06 0.04 0.01 0.07 0.02 0.07 0.03 0 0.01 0.02 0.02 0.05 0.02 0.03 0 0.05 0.01 0.05 0.02 0 0.01 0.02 0.02 0.05 0.03 0.03 0.01 0.05 0.02 0.05 0.03 0 0.01 0.02 0.02 0.05 0.03 0.03 0.01 0.07 0.03 0.09 0.05 0.02 0.02 0.06 0.04 0.09 0.05 0.04 0.01 0.07 0.03 0.07 0.05 0.01 0.02 0.03 0.04 0.05 0.04 0.04 0 0.09 0.05 0.11 0.10 0.01 0.02 0.02 0.02 0.04 -0.01 0.04 -0.04 0.07 -0.04 0.07 -0.01 0 0.03 0.05 0.08 0.10 0.08 0.02 0 0.04 0.01 0.04 0.02 0 0.01 0.05 0.02 0.10 0.03 0.05 0.01 0.10 0.02 0.10 0.03 0 0.01 0.04 0.02 0.08 0.03 0.04 0.01 0.08 0.02 0.08 0.03 0 0.01 0.01 0.02 0.03 0.02 0.02 0 0.03 0.01 0.03 0.02 0 0.01 0.02 0.02 0.05 0.03 0.03 0.01 0.06 0.03 0.08 0.06 0.03 0.04 0.05 0.05 0.13 0.05 0.05 0 0.10 0.01 0.10 0.02 0 0.01 0.02 0.02 0.04 0.02 0.02 0 0.04 0.01 0.04 0.02 0 0.01 0.04 0.02 0.08 0.03 0.05 0.01 0.09 0.02 0.09 0.03 0.01 0.01 0.05 0.03 0.11 0.03 0.05 0.01 0.09 0.02 0.09 0.03 0 0.01 0.02 0.02 0.04 0.02 0.02 0 0.04 0.01 0.05 0.03 0.01 0.02 0.03 0.03 0.05 0.03 0.02 0 0.04 0.01 0.04 0.02 0 0.01 0.01 0.02 0.03 0.02 0.02 0 0.03 0.01 0.03 0.02 0 0.01 0.07 0.02 0.15 0.03 0.08 0.01 0.16 0.02 0.16 0.03 0 0.01 0.02 0.02 0.04 0.02 0.02 0 0.03 0.01 0.03 0.02 0 0.01 0.03 0.02 0.07 0.03 0.04 0.01 0.07 0.02 0.07 0.03 0 0.01 0.04 0.02 0.10 0.02 0.05 0 0.10 0.01 0.10 0.02 0 0.01 0.05 0.03 0.09 0.03 0.05 0.01 0.10 0.02 0.10 0.04 0.01 0.02 0.05 0.03 0.10 0.03 0.05 0 0.09 0.01 0.09 0.02 0 0.01 0.03 0.02 0.06 0.02 0.03 0 0.06 0.01 0.06 0.02 0 0.01 0.07 0.02 0.17 0.03 0.09 0.01 0.17 0.02 0.17 0.03 0 0.01 0.01 0.02 0.03 0.02 0.02 0 0.03 0.01 0.03 0.02 0 0.01 0.07 0.02 0.15 0.03 0.08 0.01 0.16 0.02 0.16 0.03 0 0.01 0.04 0.02 0.07 0.02 0.04 0 0.07 0.01 0.07 0.02 0 0.01 0.07 0.03 0.15 0.03 0.08 0.01 0.15 0.02 0.16 0.03 0.01 0.01 0.10 0.02 0.20 0.03 0.10 0 0.19 0.02 0.19 0.03 0 0.01 0.06 0.02 0.13 0.02 0.07 0 0.13 0.01 0.13 0.02 0 0.01 0.13 0.02 0.27 0.03 0.22 0.01 0.27 0.02 0.30 0.05 0.03 0.03 0.06 0.04 0.25 0.04 0.18 0 0.22 0.01 0.23 0.03 0.01 0.03 0.07 0.04 0.07 0.01 0 -0.01 0.16 -0.02 0.44 -0.02 0.43 0 0.44 0 0.44 0.04 0 0.02 0.01 0.04 0.03 0.04 0.01 0 0.04 -0.02 0.05 -0.04z"/>
  <path d="M16.28 28.80 c0 -0.01 -0.04 -0.02 -0.09 -0.02 -0.05 0 -0.09 -0.01 -0.09 -0.02 0 -0.01 -0.11 -0.02 -0.25 -0.03 -0.14 -0.01 -0.25 -0.02 -0.26 -0.03 -0.01 -0.01 -0.11 -0.03 -0.23 -0.03 -0.12 -0.01 -0.22 -0.02 -0.22 -0.03 -0 -0.01 -0.05 -0.02 -0.10 -0.02 -0.06 0 -0.10 -0.01 -0.11 -0.03 -0.01 -0.02 -0.04 -0.03 -0.08 -0.03 -0.04 0 -0.07 -0.01 -0.07 -0.02 0 -0.01 -0.03 -0.02 -0.07 -0.02 -0.04 0 -0.07 -0.01 -0.07 -0.02 0 -0.01 -0.02 -0.02 -0.05 -0.03 -0.03 -0.01 -0.06 -0.02 -0.07 -0.04 -0.01 -0.02 -0.02 -0.02 -0.03 0 -0.01 0.03 -0.05 0.03 -0.08 -0.01 -0.02 -0.02 -0.07 -0.04 -0.13 -0.05 -0.05 -0.01 -0.11 -0.03 -0.13 -0.05 -0.02 -0.02 -0.07 -0.04 -0.12 -0.05 -0.05 -0.01 -0.10 -0.03 -0.10 -0.04 -0.01 -0.02 -0.03 -0.03 -0.05 -0.03 -0.02 0 -0.04 -0.01 -0.04 -0.02 0 -0.01 -0.02 -0.02 -0.04 -0.02 -0.02 0 -0.04 -0.01 -0.04 -0.02 0 -0.01 -0.02 -0.02 -0.05 -0.02 -0.03 0 -0.07 -0.02 -0.09 -0.05 -0.03 -0.03 -0.08 -0.05 -0.13 -0.06 -0.05 -0.01 -0.08 -0.02 -0.08 -0.03 0 -0.01 -0.01 -0.02 -0.03 -0.02 -0.02 0 -0.05 -0.03 -0.09 -0.06 -0.03 -0.03 -0.08 -0.06 -0.11 -0.06 -0.03 0 -0.05 -0.01 -0.05 -0.02 0 -0.01 -0.01 -0.02 -0.03 -0.02 -0.02 0 -0.03 -0.01 -0.03 -0.02 0 -0.01 -0.02 -0.02 -0.05 -0.03 -0.03 -0.01 -0.07 -0.03 -0.09 -0.05 -0.02 -0.02 -0.06 -0.04 -0.09 -0.05 -0.03 -0.01 -0.07 -0.03 -0.07 -0.05 -0.01 -0.02 -0.04 -0.04 -0.07 -0.05 -0.03 -0.01 -0.09 -0.05 -0.13 -0.09 -0.04 -0.04 -0.09 -0.08 -0.11 -0.08 -0.02 0 -0.05 -0.02 -0.07 -0.04 -0.02 -0.02 -0.04 -0.04 -0.05 -0.04 -0.01 0 -0.05 -0.03 -0.08 -0.06 -0.03 -0.03 -0.06 -0.06 -0.07 -0.06 -0.01 0 -0.04 -0.02 -0.06 -0.05 -0.03 -0.03 -0.06 -0.05 -0.07 -0.05 -0.01 0 -0.04 -0.02 -0.05 -0.04 -0.02 -0.02 -0.04 -0.04 -0.05 -0.04 -0.01 0 -0.04 -0.02 -0.06 -0.04 -0.02 -0.02 -0.05 -0.04 -0.07 -0.04 -0.02 0 -0.04 -0.02 -0.05 -0.06 -0.01 -0.07 -0.05 -0.10 -0.11 -0.13 -0.03 -0.01 -0.06 -0.03 -0.08 -0.05 -0.02 -0.02 -0.04 -0.04 -0.05 -0.04 -0.03 0 -0.15 -0.12 -0.17 -0.17 -0.01 -0.03 -0.03 -0.05 -0.04 -0.05 -0.05 0 -0.17 -0.14 -0.17 -0.19 0 -0.04 -0.01 -0.05 -0.05 -0.05 -0.04 0 -0.11 -0.06 -0.28 -0.23 -0.12 -0.12 -0.23 -0.24 -0.23 -0.25 0 -0.02 -0.02 -0.04 -0.04 -0.04 -0.02 -0.01 -0.04 -0.03 -0.04 -0.05 0 -0.02 -0.01 -0.04 -0.03 -0.05 -0.02 -0.01 -0.03 -0.03 -0.03 -0.05 0 -0.02 -0.02 -0.04 -0.05 -0.05 -0.03 -0.01 -0.05 -0.03 -0.06 -0.05 -0.01 -0.02 -0.03 -0.04 -0.05 -0.05 -0.02 -0.01 -0.04 -0.03 -0.05 -0.05 -0.01 -0.02 -0.03 -0.06 -0.05 -0.07 -0.02 -0.02 -0.04 -0.04 -0.04 -0.05 0 -0.01 -0.04 -0.06 -0.09 -0.11 -0.05 -0.05 -0.09 -0.10 -0.09 -0.12 0 -0.02 -0.02 -0.04 -0.04 -0.04 -0.02 -0.01 -0.05 -0.03 -0.05 -0.05 -0.01 -0.02 -0.03 -0.06 -0.05 -0.07 -0.02 -0.02 -0.04 -0.05 -0.05 -0.08 -0.01 -0.03 -0.03 -0.05 -0.05 -0.05 -0.02 0 -0.04 -0.01 -0.04 -0.04 0 -0.02 -0.01 -0.05 -0.03 -0.05 -0.02 -0.01 -0.03 -0.04 -0.04 -0.08 -0.01 -0.04 -0.03 -0.07 -0.05 -0.08 -0.02 -0.01 -0.04 -0.04 -0.05 -0.08 -0.01 -0.04 -0.02 -0.07 -0.03 -0.07 -0.01 0 -0.02 -0.01 -0.02 -0.03 0 -0.02 -0.01 -0.03 -0.02 -0.03 -0.01 0 -0.02 -0.02 -0.03 -0.04 -0.01 -0.02 -0.03 -0.05 -0.05 -0.05 -0.02 -0.01 -0.04 -0.03 -0.05 -0.06 -0.01 -0.03 -0.02 -0.05 -0.03 -0.05 -0.01 0 -0.02 -0.03 -0.03 -0.07 -0.01 -0.04 -0.04 -0.09 -0.06 -0.12 -0.03 -0.03 -0.05 -0.06 -0.05 -0.07 0 -0.01 -0.02 -0.03 -0.04 -0.04 -0.02 -0.01 -0.04 -0.04 -0.05 -0.07 -0.01 -0.03 -0.03 -0.07 -0.05 -0.09 -0.02 -0.02 -0.04 -0.07 -0.05 -0.13 -0.01 -0.05 -0.02 -0.09 -0.03 -0.09 -0.01 0 -0.02 -0.01 -0.02 -0.03 0 -0.02 -0.01 -0.03 -0.03 -0.04 -0.02 -0.01 -0.03 -0.03 -0.03 -0.05 0 -0.02 -0.01 -0.04 -0.03 -0.05 -0.02 -0.01 -0.03 -0.03 -0.03 -0.05 0 -0.02 -0.02 -0.04 -0.04 -0.05 -0.03 -0.01 -0.04 -0.04 -0.05 -0.10 -0.01 -0.06 -0.02 -0.09 -0.05 -0.09 -0.03 0 -0.04 -0.02 -0.05 -0.09 -0.01 -0.05 -0.02 -0.09 -0.03 -0.09 -0.01 0 -0.02 -0.02 -0.02 -0.04 0 -0.02 -0.01 -0.04 -0.02 -0.04 -0.01 0 -0.02 -0.03 -0.02 -0.06 0 -0.05 -0.04 -0.12 -0.08 -0.12 -0.01 0 -0.02 -0.03 -0.03 -0.07 -0.01 -0.04 -0.02 -0.07 -0.03 -0.07 -0.01 0 -0.02 -0.03 -0.03 -0.07 -0.01 -0.04 -0.03 -0.09 -0.05 -0.11 -0.02 -0.02 -0.04 -0.07 -0.04 -0.15 -0.01 -0.08 -0.02 -0.12 -0.05 -0.14 -0.02 -0.02 -0.04 -0.07 -0.05 -0.11 -0.01 -0.04 -0.03 -0.09 -0.05 -0.11 -0.02 -0.02 -0.04 -0.07 -0.05 -0.12 -0.01 -0.05 -0.02 -0.09 -0.03 -0.10 -0.01 -0.01 -0.03 -0.05 -0.03 -0.10 -0.01 -0.05 -0.02 -0.09 -0.03 -0.09 -0.01 0 -0.02 -0.02 -0.02 -0.05 0 -0.03 -0.01 -0.05 -0.02 -0.05 -0.01 0 -0.02 -0.03 -0.03 -0.06 -0.01 -0.03 -0.02 -0.06 -0.03 -0.06 -0.01 0 -0.02 -0.02 -0.02 -0.04 0 -0.02 -0.01 -0.04 -0.02 -0.04 -0.01 0 -0.02 -0.05 -0.03 -0.11 -0.01 -0.06 -0.02 -0.11 -0.03 -0.11 -0.01 0 -0.02 -0.01 -0.02 -0.03 0 -0.02 -0.01 -0.03 -0.02 -0.03 -0.01 0 -0.02 -0.04 -0.03 -0.09 -0.01 -0.05 -0.02 -0.09 -0.03 -0.09 -0.01 0 -0.02 -0.04 -0.02 -0.08 0 -0.04 -0.01 -0.08 -0.02 -0.08 -0.01 0 -0.02 -0.04 -0.03 -0.10 -0.01 -0.05 -0.02 -0.10 -0.03 -0.10 -0.01 0 -0.02 -0.06 -0.03 -0.13 -0.01 -0.07 -0.02 -0.13 -0.03 -0.13 -0.01 0 -0.02 -0.02 -0.02 -0.05 0 -0.03 -0.01 -0.05 -0.02 -0.05 -0.01 0 -0.02 -0.06 -0.03 -0.14 -0.01 -0.07 -0.02 -0.14 -0.03 -0.14 -0.01 0 -0.02 -0.03 -0.02 -0.07 0 -0.04 -0.01 -0.07 -0.02 -0.07 -0.01 -0 -0.03 -0.06 -0.03 -0.13 -0.01 -0.07 -0.02 -0.12 -0.03 -0.12 -0.01 0 -0.02 -0.02 -0.02 -0.05 0 -0.03 -0.01 -0.05 -0.02 -0.05 -0.01 0 -0.02 -0.05 -0.03 -0.12 -0 -0.06 -0.02 -0.13 -0.03 -0.13 -0.01 -0.01 -0.03 -0.10 -0.04 -0.20 -0.01 -0.10 -0.02 -0.19 -0.03 -0.19 -0.01 0 -0.02 -0.03 -0.02 -0.06 0 -0.03 -0.01 -0.06 -0.02 -0.06 -0.01 0 -0.02 -0.10 -0.03 -0.23 -0.01 -0.12 -0.02 -0.23 -0.03 -0.23 -0.01 0 -0.02 -0.02 -0.02 -0.05 0 -0.03 -0.01 -0.05 -0.02 -0.05 -0.01 0 -0.02 -0.12 -0.03 -0.28 -0.01 -0.15 -0.02 -0.28 -0.03 -0.28 -0.01 0 -0.02 -0.04 -0.02 -0.10 0 -0.05 -0.01 -0.10 -0.02 -0.10 -0.01 -0 -0.03 -0.17 -0.03 -0.37 -0.01 -0.20 -0.02 -0.37 -0.03 -0.37 -0.01 0 -0.02 -0.04 -0.02 -0.08 0 -0.04 -0.01 -0.08 -0.02 -0.08 -0.01 -0 -0.02 -0.36 -0.03 -0.90 -0.01 -0.50 -0.02 -0.90 -0.03 -0.90 -0.01 0 -0.02 -0.35 -0.02 -0.78 0 -0.43 0.01 -0.78 0.02 -0.78 0.01 0 0.02 -0.37 0.03 -0.83 0.01 -0.57 0.02 -0.83 0.03 -0.84 0.01 -0 0.02 -0.06 0.02 -0.13 0 -0.07 0.01 -0.13 0.02 -0.13 0.01 0 0.02 -0.15 0.03 -0.33 0.01 -0.18 0.02 -0.33 0.03 -0.34 0.01 -0 0.02 -0.05 0.02 -0.10 0 -0.05 0.01 -0.10 0.02 -0.10 0.01 0 0.02 -0.10 0.03 -0.23 0.01 -0.12 0.02 -0.23 0.03 -0.23 0.01 0 0.02 -0.02 0.02 -0.04 0 -0.02 0.01 -0.04 0.02 -0.04 0.01 0 0.02 -0.08 0.03 -0.17 0.01 -0.10 0.02 -0.17 0.03 -0.18 0.01 -0 0.02 -0.05 0.02 -0.09 0 -0.05 0.01 -0.09 0.02 -0.09 0.01 0 0.02 -0.05 0.03 -0.12 0.01 -0.06 0.02 -0.12 0.03 -0.12 0.01 0 0.02 -0.06 0.03 -0.13 0.01 -0.07 0.02 -0.13 0.03 -0.13 0.01 0 0.02 -0.02 0.02 -0.05 0 -0.03 0.01 -0.05 0.02 -0.05 0.01 0 0.02 -0.05 0.03 -0.10 0.01 -0.06 0.02 -0.11 0.03 -0.11 0.01 -0 0.02 -0.02 0.02 -0.05 0 -0.02 0.01 -0.04 0.02 -0.04 0.01 0 0.02 -0.04 0.03 -0.10 0.01 -0.05 0.02 -0.10 0.03 -0.10 0.01 0 0.02 -0.01 0.02 -0.03 0 -0.02 0.01 -0.03 0.02 -0.03 0.01 0 0.02 -0.03 0.03 -0.06 0.01 -0.03 0.02 -0.06 0.03 -0.06 0.01 0 0.02 -0.03 0.03 -0.07 0.01 -0.04 0.02 -0.07 0.03 -0.07 0.01 0 0.02 -0.01 0.02 -0.03 0 -0.02 0.01 -0.03 0.02 -0.03 0.01 0 0.02 -0.02 0.03 -0.04 0.01 -0.02 0.03 -0.05 0.05 -0.05 0.02 -0.01 0.04 -0.04 0.05 -0.08 0.01 -0.04 0.02 -0.07 0.03 -0.07 0.01 0 0.02 -0.02 0.02 -0.04 0 -0.02 0.04 -0.07 0.08 -0.12 0.04 -0.04 0.08 -0.08 0.08 -0.10 0 -0.03 0.09 -0.12 0.12 -0.12 0.01 0 0.02 -0.02 0.03 -0.04 0.01 -0.02 0.03 -0.05 0.05 -0.05 0.06 -0.02 0.15 -0.11 0.15 -0.15 0 -0.02 0.01 -0.03 0.03 -0.03 0.02 0 0.05 -0.03 0.08 -0.06 0.03 -0.03 0.08 -0.06 0.10 -0.06 0.02 0 0.04 -0.01 0.04 -0.03 0 -0.02 0.02 -0.03 0.06 -0.03 0.06 0 0.12 -0.04 0.12 -0.08 0 -0.01 0.01 -0.02 0.03 -0.02 0.02 0 0.03 -0.02 0.04 -0.04 0.01 -0.03 0.04 -0.04 0.10 -0.05 0.05 -0.01 0.09 -0.02 0.09 -0.03 0 -0.01 0.01 -0.02 0.03 -0.02 0.02 0 0.03 -0.01 0.03 -0.02 0 -0.01 0.04 -0.03 0.08 -0.03 0.04 -0.01 0.08 -0.02 0.08 -0.03 0 -0.01 0.04 -0.02 0.09 -0.03 0.05 -0.01 0.10 -0.02 0.10 -0.03 0 -0.01 0.02 -0.02 0.03 -0.02 0.01 0 0.03 -0.01 0.03 -0.02 0 -0.01 0.07 -0.03 0.14 -0.03 0.09 -0.01 0.15 -0.02 0.17 -0.05 0.03 -0.03 0.08 -0.04 0.26 -0.05 0.13 -0.01 0.23 -0.02 0.23 -0.03 0 -0.01 0.12 -0.02 0.27 -0.02 0.16 0 0.27 -0.01 0.27 -0.02 0 -0.01 1.77 -0.02 5.28 -0.02 3.51 0 5.28 0.01 5.28 0.02 0 0.01 0.23 0.02 0.66 0.02 0.37 0 0.66 0.01 0.66 0.02 0 0.01 0.09 0.02 0.21 0.03 0.11 0.01 0.21 0.02 0.21 0.03 0 0.01 0.02 0.02 0.05 0.02 0.03 0 0.05 0.01 0.05 0.02 0 0.01 0.03 0.02 0.07 0.03 0.04 0.01 0.09 0.03 0.10 0.05 0.03 0.04 0.08 0.05 0.08 0.02 0 -0.01 0.02 -0.02 0.04 -0.02 0.02 0 0.04 0.01 0.04 0.02 0 0.01 0.04 0.02 0.08 0.03 0.04 0.01 0.08 0.02 0.08 0.03 0 0.01 0.04 0.03 0.08 0.03 0.04 0.01 0.08 0.02 0.08 0.03 0 0.01 0.01 0.02 0.03 0.02 0.02 0 0.03 0.01 0.03 0.02 0 0.01 0.04 0.02 0.08 0.03 0.06 0.01 0.08 0.02 0.08 0.05 0 0.02 0.01 0.04 0.04 0.04 0.02 0 0.05 0.02 0.07 0.05 0.03 0.04 0.05 0.05 0.10 0.05 0.04 0 0.07 0.01 0.07 0.03 0.01 0.02 0.03 0.03 0.05 0.04 0.02 0.01 0.04 0.03 0.05 0.05 0.01 0.02 0.03 0.04 0.04 0.04 0.02 0 0.03 0.01 0.03 0.02 0 0.03 0.05 0.08 0.08 0.08 0.03 0 0.22 0.19 0.22 0.23 0 0.02 0.01 0.03 0.03 0.03 0.04 0 0.17 0.13 0.17 0.17 0 0.02 0.01 0.03 0.03 0.04 0.02 0.01 0.03 0.03 0.03 0.05 0 0.02 0.02 0.04 0.04 0.05 0.02 0.01 0.04 0.03 0.04 0.05 0 0.02 0.01 0.04 0.03 0.05 0.02 0.01 0.03 0.02 0.03 0.04 0 0.02 0.01 0.03 0.02 0.03 0.01 0 0.02 0.04 0.03 0.09 0.01 0.05 0.02 0.09 0.03 0.09 0.01 0 0.02 0.01 0.02 0.03 0 0.02 0.01 0.03 0.03 0.03 0.02 0 0.03 0.01 0.03 0.03 0 0.02 0.01 0.03 0.02 0.03 0.01 0 0.02 0.05 0.03 0.10 0.01 0.05 0.02 0.10 0.03 0.10 0.01 0 0.02 0.01 0.02 0.03 0 0.02 0.01 0.03 0.02 0.03 0.01 0 0.03 0.04 0.03 0.09 0.01 0.05 0.02 0.09 0.03 0.09 0.01 0 0.02 0.01 0.02 0.03 0 0.02 0.01 0.03 0.02 0.04 0.01 0 0.02 0.08 0.03 0.20 0 0.18 0.01 0.19 0.06 0.24 0.03 0.03 0.05 0.07 0.05 0.09 0 0.02 0.01 0.04 0.02 0.04 0.01 0 0.02 0.06 0.03 0.13 0.01 0.07 0.02 0.13 0.03 0.13 0.01 0 0.02 0.02 0.02 0.04 0 0.02 0.01 0.04 0.02 0.04 0.01 0 0.02 0.08 0.03 0.19 0.01 0.10 0.02 0.19 0.03 0.19 0.01 0 0.02 0.05 0.02 0.12 0 0.06 0.01 0.12 0.02 0.12 0.01 0 0.03 0.11 0.03 0.25 0.01 0.13 0.02 0.24 0.03 0.24 0.01 0 0.02 0.03 0.02 0.06 0 0.03 0.01 0.06 0.02 0.06 0.01 0 0.03 0.17 0.03 0.37 0.01 0.21 0.02 0.37 0.03 0.38 0.01 0.01 0.02 0.28 0.03 0.74 0.01 0.40 0.02 0.73 0.03 0.73 0.01 0 0.02 0.02 0.02 0.05 0 0.03 0.01 0.05 0.02 0.05 0.01 0 0.02 0.32 0.02 0.92 0 0.60 -0.01 0.92 -0.02 0.92 -0.01 0 -0.02 0.03 -0.02 0.06 0 0.03 -0.01 0.06 -0.02 0.06 -0.01 0 -0.02 0.37 -0.03 0.82 -0.01 0.45 -0.02 0.82 -0.03 0.83 -0.01 0.01 -0.02 0.15 -0.03 0.33 -0.01 0.17 -0.02 0.32 -0.03 0.32 -0.01 0 -0.02 0.03 -0.02 0.06 0 0.03 -0.01 0.06 -0.02 0.06 -0.01 0 -0.02 0.13 -0.03 0.29 -0.01 0.16 -0.02 0.29 -0.03 0.29 -0.01 0 -0.02 0.04 -0.02 0.08 0 0.04 -0.01 0.08 -0.02 0.08 -0.01 0 -0.02 0.11 -0.03 0.25 -0.01 0.14 -0.02 0.25 -0.03 0.25 -0.01 0 -0.02 0.01 -0.02 0.03 0 0.02 -0.01 0.03 -0.02 0.03 -0.01 0 -0.02 0.09 -0.03 0.20 -0.01 0.11 -0.02 0.20 -0.03 0.20 -0.01 0 -0.02 0.06 -0.03 0.13 -0.01 0.09 -0.02 0.14 -0.05 0.17 -0.03 0.03 -0.04 0.07 -0.05 0.23 -0.01 0.11 -0.02 0.20 -0.03 0.20 -0.01 0 -0.02 0.03 -0.02 0.07 0 0.04 -0.01 0.07 -0.02 0.07 -0.01 0 -0.03 0.06 -0.03 0.13 -0.01 0.07 -0.02 0.12 -0.03 0.12 -0.01 0 -0.02 0.01 -0.02 0.03 0 0.02 -0.01 0.03 -0.02 0.03 -0.01 0 -0.02 0.05 -0.03 0.12 -0.01 0.07 -0.02 0.13 -0.03 0.13 -0.01 0 -0.02 0.02 -0.02 0.05 0 0.02 -0.01 0.04 -0.02 0.04 -0.01 0 -0.02 0.06 -0.03 0.14 -0.01 0.08 -0.02 0.15 -0.03 0.15 -0.01 0 -0.03 0.04 -0.03 0.08 -0.01 0.04 -0.02 0.08 -0.03 0.08 -0.01 0 -0.02 0.01 -0.02 0.03 0 0.02 -0.01 0.03 -0.02 0.03 -0.01 0 -0.02 0.06 -0.03 0.13 -0.01 0.07 -0.02 0.13 -0.03 0.13 -0.01 0 -0.02 0.01 -0.02 0.03 0 0.02 -0.01 0.03 -0.02 0.03 -0.01 0 -0.02 0.04 -0.03 0.09 -0.01 0.05 -0.02 0.09 -0.03 0.09 -0.01 0 -0.02 0.02 -0.02 0.05 0 0.03 -0.01 0.05 -0.02 0.05 -0.01 0 -0.02 0.05 -0.03 0.10 -0.01 0.07 -0.02 0.11 -0.05 0.14 -0.03 0.03 -0.05 0.07 -0.05 0.14 -0 0.05 -0.02 0.10 -0.03 0.10 -0.01 0 -0.02 0.03 -0.03 0.07 -0.01 0.04 -0.02 0.07 -0.03 0.07 -0.01 0 -0.02 0.01 -0.02 0.03 0 0.02 -0.01 0.03 -0.03 0.03 -0.02 0 -0.03 0.02 -0.03 0.05 0 0.03 -0.01 0.05 -0.02 0.05 -0.01 0 -0.02 0.03 -0.02 0.06 0 0.03 -0.01 0.06 -0.02 0.06 -0.01 0 -0.02 0.04 -0.03 0.09 -0.01 0.05 -0.03 0.11 -0.05 0.12 -0.02 0.02 -0.04 0.05 -0.05 0.07 -0.01 0.02 -0.02 0.04 -0.03 0.04 -0.01 0 -0.02 0.04 -0.03 0.10 -0.01 0.07 -0.02 0.10 -0.05 0.11 -0.02 0.01 -0.04 0.04 -0.05 0.08 -0.01 0.04 -0.02 0.07 -0.03 0.07 -0.01 0 -0.02 0.02 -0.02 0.05 0 0.03 -0.01 0.05 -0.02 0.05 -0.01 0 -0.02 0.02 -0.03 0.05 -0.01 0.03 -0.03 0.07 -0.05 0.09 -0.02 0.02 -0.04 0.06 -0.05 0.09 -0.01 0.03 -0.02 0.06 -0.03 0.06 -0.01 0 -0.02 0.01 -0.02 0.03 0 0.02 -0.01 0.03 -0.02 0.03 -0.01 0 -0.02 0.03 -0.03 0.06 -0.01 0.03 -0.02 0.06 -0.03 0.06 -0.01 0 -0.02 0.02 -0.03 0.05 -0.01 0.03 -0.02 0.05 -0.03 0.05 -0.01 0 -0.02 0.02 -0.02 0.04 0 0.02 -0.01 0.04 -0.02 0.04 -0.01 0 -0.02 0.02 -0.03 0.05 -0.01 0.03 -0.03 0.07 -0.05 0.08 -0.02 0.02 -0.04 0.05 -0.05 0.08 -0.01 0.03 -0.03 0.06 -0.05 0.08 -0.02 0.02 -0.04 0.06 -0.05 0.09 -0.01 0.03 -0.02 0.06 -0.04 0.07 -0.02 0.01 -0.03 0.03 -0.03 0.05 0 0.02 -0.02 0.04 -0.04 0.05 -0.02 0.01 -0.04 0.03 -0.04 0.04 0 0.01 -0.03 0.05 -0.06 0.08 -0.03 0.03 -0.06 0.07 -0.06 0.09 0 0.02 -0.02 0.05 -0.04 0.07 -0.02 0.02 -0.04 0.04 -0.04 0.05 0 0.01 -0.02 0.05 -0.05 0.07 -0.03 0.03 -0.05 0.07 -0.06 0.09 -0.01 0.03 -0.05 0.07 -0.08 0.11 -0.04 0.03 -0.07 0.07 -0.07 0.08 0 0.03 -0.15 0.18 -0.18 0.18 -0.01 0 -0.02 0.02 -0.02 0.05 0 0.03 -0.02 0.07 -0.05 0.09 -0.03 0.03 -0.05 0.06 -0.06 0.09 -0.01 0.02 -0.03 0.05 -0.04 0.05 -0.02 0.01 -0.03 0.03 -0.03 0.05 0 0.02 -0.01 0.04 -0.02 0.04 -0.03 0 -0.22 0.19 -0.22 0.23 0 0.02 -0.01 0.03 -0.02 0.03 -0.01 0 -0.02 0.02 -0.03 0.05 -0.01 0.03 -0.03 0.05 -0.04 0.05 -0.02 0 -0.03 0.01 -0.03 0.02 0 0.03 -0.11 0.14 -0.14 0.14 -0.03 0 -0.13 0.11 -0.13 0.15 0 0.04 -0.12 0.17 -0.16 0.17 -0.01 0 -0.02 0.01 -0.02 0.02 0 0.01 -0.02 0.02 -0.04 0.02 -0.02 0 -0.04 0.02 -0.05 0.05 -0.01 0.05 -0.19 0.24 -0.22 0.24 -0.01 0 -0.03 0.02 -0.05 0.05 -0.02 0.03 -0.05 0.05 -0.08 0.06 -0.03 0.01 -0.05 0.02 -0.05 0.03 0 0.02 -0.05 0.08 -0.07 0.08 -0.03 0 -0.09 0.07 -0.09 0.10 0 0.02 -0.02 0.04 -0.05 0.04 -0.03 0 -0.06 0.01 -0.07 0.03 -0.01 0.02 -0.04 0.04 -0.05 0.05 -0.01 0.01 -0.06 0.05 -0.10 0.09 -0.04 0.04 -0.09 0.08 -0.12 0.08 -0.02 0.01 -0.05 0.03 -0.05 0.05 -0.01 0.02 -0.03 0.04 -0.05 0.04 -0.02 0 -0.05 0.02 -0.07 0.05 -0.02 0.03 -0.05 0.05 -0.08 0.06 -0.03 0.01 -0.05 0.03 -0.06 0.05 -0.01 0.02 -0.03 0.05 -0.06 0.05 -0.03 0.01 -0.05 0.02 -0.05 0.03 0 0.01 -0.02 0.02 -0.04 0.02 -0.02 0 -0.05 0.02 -0.07 0.05 -0.02 0.03 -0.06 0.05 -0.08 0.05 -0.02 0 -0.05 0.01 -0.05 0.03 -0.01 0.02 -0.02 0.03 -0.04 0.03 -0.02 0 -0.06 0.03 -0.10 0.07 -0.04 0.04 -0.09 0.07 -0.14 0.08 -0.05 0.01 -0.07 0.02 -0.08 0.05 -0.01 0.02 -0.03 0.04 -0.05 0.04 -0.02 0 -0.04 0.01 -0.05 0.03 -0.01 0.02 -0.05 0.03 -0.10 0.04 -0.06 0.01 -0.09 0.02 -0.10 0.05 -0.01 0.03 -0.04 0.04 -0.09 0.05 -0.06 0.01 -0.08 0.02 -0.08 0.05 0 0.03 -0.02 0.04 -0.09 0.05 -0.05 0.01 -0.09 0.02 -0.09 0.03 0 0.01 -0.01 0.02 -0.03 0.02 -0.02 0 -0.03 0.01 -0.03 0.02 0 0.01 -0.01 0.02 -0.03 0.02 -0.02 0 -0.04 0.01 -0.05 0.03 -0.01 0.02 -0.06 0.03 -0.10 0.04 -0.04 0.01 -0.07 0.02 -0.07 0.03 0 0.01 -0.03 0.02 -0.07 0.02 -0.04 0 -0.07 0.01 -0.07 0.02 0 0.01 -0.02 0.02 -0.05 0.02 -0.03 0 -0.05 0.01 -0.05 0.03 0 0.02 -0.02 0.03 -0.09 0.03 -0.05 0 -0.09 0.01 -0.09 0.02 0 0.01 -0.02 0.02 -0.05 0.02 -0.03 0 -0.06 0.01 -0.08 0.03 -0.02 0.02 -0.05 0.03 -0.08 0.03 -0.03 0 -0.05 0.01 -0.05 0.02 0 0.01 -0.06 0.02 -0.13 0.03 -0.07 0.01 -0.14 0.02 -0.14 0.03 -0 0.01 -0.02 0.02 -0.03 0.02 -0.01 0 -0.03 0.01 -0.03 0.02 -0 0.01 -0.07 0.03 -0.15 0.03 -0.08 0.01 -0.15 0.02 -0.16 0.03 -0.01 0.01 -0.16 0.02 -0.35 0.03 -0.19 0.01 -0.34 0.02 -0.34 0.03 0 0.01 -0.01 0.02 -0.03 0.02 -0.02 0 -0.03 0.01 -0.03 0.02 0 0.01 -0.12 0.02 -0.33 0.02 -0.21 0 -0.33 -0.01 -0.33 -0.02z m0.62 -3.32 c0.48 -0.09 0.41 -0.07 0.85 -0.29 0.25 -0.12 0.32 -0.17 0.44 -0.28 0.08 -0.07 0.15 -0.15 0.17 -0.17 0.01 -0.02 0.05 -0.09 0.10 -0.15 0.04 -0.06 0.07 -0.12 0.07 -0.13 0 -0.02 -0.08 -0.02 -0.28 0.02 -0.06 0.01 -0.17 0.03 -0.26 0.04 -0.08 0.01 -0.18 0.03 -0.22 0.04 -0.07 0.02 -0.24 0.05 -0.41 0.08 -0.06 0.01 -0.12 0.02 -0.14 0.03 -0.09 0.04 -1.16 0.09 -1.24 0.06 -0.02 -0.01 -0.11 -0.03 -0.20 -0.04 -0.09 -0.01 -0.20 -0.03 -0.25 -0.05 -0.04 -0.01 -0.16 -0.03 -0.26 -0.04 -0.10 -0.01 -0.20 -0.03 -0.22 -0.04 -0.03 -0.01 -0.06 -0.02 -0.08 -0.02 -0.02 0 -0.11 -0.02 -0.19 -0.05 -0.17 -0.06 -0.41 -0.08 -0.43 -0.05 -0.02 0.03 0.06 0.17 0.13 0.24 0.03 0.03 0.05 0.06 0.05 0.07 0 0.01 0.04 0.05 0.09 0.09 0.20 0.16 0.25 0.19 0.33 0.27 0.07 0.07 0.44 0.27 0.50 0.27 0.01 0 0.08 0.02 0.16 0.05 0.08 0.03 0.17 0.05 0.20 0.06 0.12 0.02 0.97 0.01 1.06 -0.01z m0.03 -1.84 c0.33 -0.01 0.61 -0.03 0.63 -0.03 0.02 -0.01 0.08 -0.02 0.13 -0.03 0.05 -0.01 0.18 -0.03 0.28 -0.05 0.10 -0.01 0.21 -0.04 0.26 -0.05 0.04 -0.01 0.13 -0.04 0.20 -0.05 0.18 -0.04 0.26 -0.06 0.28 -0.08 0.01 -0.01 0.06 -0.02 0.11 -0.03 0.30 -0.06 0.40 -0.10 0.63 -0.21 0.05 -0.02 0.17 -0.07 0.26 -0.11 0.09 -0.04 0.18 -0.08 0.21 -0.10 0.03 -0.02 0.08 -0.05 0.12 -0.06 0.10 -0.04 0.26 -0.13 0.34 -0.18 0.03 -0.02 0.09 -0.06 0.13 -0.08 0.15 -0.09 0.22 -0.15 0.34 -0.27 0.07 -0.07 0.13 -0.13 0.14 -0.13 0.06 -0.05 0.17 -0.20 0.20 -0.28 0.07 -0.16 0.01 -0.20 -0.16 -0.14 -0.26 0.10 -0.44 0.18 -0.55 0.24 -0.06 0.04 -0.12 0.07 -0.14 0.07 -0.01 0 -0.06 0.02 -0.12 0.05 -0.05 0.03 -0.10 0.05 -0.12 0.05 -0.02 0 -0.06 0.02 -0.10 0.04 -0.10 0.05 -0.30 0.12 -0.46 0.15 -0.07 0.01 -0.16 0.04 -0.21 0.05 -0.04 0.01 -0.13 0.03 -0.19 0.04 -0.15 0.02 -0.81 0.02 -0.99 -0 -0.09 -0.01 -0.29 -0.02 -0.45 -0.02 -0.33 -0 -0.48 0.02 -0.68 0.12 -0.20 0.09 -0.33 0.13 -0.46 0.12 -0.16 -0.01 -0.31 -0.05 -0.43 -0.09 -0.15 -0.06 -0.30 -0.10 -0.45 -0.12 -0.16 -0.03 -0.17 -0.03 -0.63 0 -0.19 0.01 -0.57 0.02 -0.83 0.01 -0.44 -0.01 -0.49 -0.01 -0.64 -0.06 -0.09 -0.03 -0.20 -0.07 -0.24 -0.09 -0.04 -0.02 -0.08 -0.04 -0.10 -0.04 -0.02 0 -0.07 -0.03 -0.13 -0.05 -0.06 -0.03 -0.15 -0.07 -0.19 -0.08 -0.24 -0.07 -0.22 -0.06 -0.72 -0.30 -0.31 -0.15 -0.37 -0.12 -0.25 0.12 0.10 0.20 0.26 0.35 0.51 0.50 0.05 0.03 0.13 0.08 0.17 0.11 0.04 0.03 0.08 0.05 0.09 0.05 0.01 0 0.03 0.01 0.05 0.03 0.04 0.04 0.07 0.05 0.25 0.15 0.08 0.04 0.15 0.07 0.17 0.07 0.02 0 0.05 0.02 0.07 0.04 0.03 0.02 0.07 0.05 0.10 0.05 0.03 0.01 0.07 0.02 0.09 0.04 0.07 0.04 0.33 0.15 0.36 0.15 0.02 0 0.07 0.02 0.13 0.05 0.05 0.03 0.11 0.05 0.13 0.05 0.02 0 0.06 0.01 0.09 0.03 0.03 0.01 0.09 0.03 0.14 0.04 0.05 0.01 0.11 0.02 0.14 0.03 0.03 0.01 0.10 0.03 0.17 0.05 0.06 0.02 0.16 0.05 0.21 0.06 0.19 0.06 0.46 0.11 0.80 0.15 0.12 0.01 0.23 0.03 0.25 0.04 0.02 0.01 0.14 0.01 0.27 0.01 0.13 -0 0.50 -0.02 0.83 -0.03z m-0.39 -3.01 c0.04 -0.01 0.10 -0.03 0.13 -0.04 0.03 -0.01 0.08 -0.02 0.11 -0.03 0.03 -0 0.09 -0.03 0.15 -0.05 0.05 -0.03 0.13 -0.06 0.17 -0.08 0.09 -0.04 0.22 -0.12 0.29 -0.17 0.09 -0.07 0.26 -0.15 0.35 -0.17 0.05 -0.01 0.11 -0.03 0.14 -0.04 0.03 -0.01 0.11 -0.03 0.18 -0.04 0.19 -0.03 0.31 -0.05 0.37 -0.09 0.11 -0.06 0.20 -0.21 0.20 -0.34 0 -0.03 -0.03 -0.17 -0.05 -0.21 -0.02 -0.04 -0.20 -0.15 -0.32 -0.19 -0.12 -0.04 -0.28 -0.07 -0.48 -0.08 -0.15 -0.01 -0.16 -0.01 -0.33 0.08 -0.10 0.05 -0.27 0.14 -0.38 0.20 -0.25 0.14 -0.41 0.19 -0.55 0.17 -0.16 -0.02 -0.37 -0.08 -0.37 -0.11 0 -0.01 -0.03 -0.03 -0.07 -0.05 -0.04 -0.02 -0.09 -0.04 -0.10 -0.06 -0.02 -0.02 -0.04 -0.03 -0.05 -0.03 -0.02 0 -0.05 -0.02 -0.08 -0.04 -0.03 -0.03 -0.07 -0.05 -0.09 -0.06 -0.10 -0.06 -0.16 -0.11 -0.29 -0.25 -0.22 -0.23 -0.26 -0.28 -0.32 -0.47 -0.05 -0.15 -0.05 -0.19 -0.05 -0.34 0.01 -0.10 0.02 -0.22 0.03 -0.28 0.03 -0.12 0.08 -0.48 0.10 -0.71 0.01 -0.10 0.02 -0.19 0.03 -0.21 0.02 -0.03 0.05 -0.26 0.08 -0.54 0.02 -0.17 0.02 -0.49 0.02 -1.52 0 -0.10 0 -0.25 0 -0.35 0 -0.10 -0.01 -0.22 -0.02 -0.28 -0.01 -0.06 -0.03 -0.23 -0.04 -0.37 -0.01 -0.15 -0.03 -0.30 -0.04 -0.33 -0.01 -0.04 -0.03 -0.12 -0.05 -0.17 -0.02 -0.06 -0.03 -0.12 -0.03 -0.15 0 -0.02 -0.01 -0.06 -0.03 -0.08 -0.03 -0.04 -0.07 -0.15 -0.11 -0.27 -0.01 -0.03 -0.04 -0.10 -0.07 -0.16 -0.03 -0.05 -0.08 -0.16 -0.11 -0.24 -0.04 -0.07 -0.07 -0.15 -0.08 -0.16 -0.01 -0.01 -0.04 -0.05 -0.07 -0.09 -0.03 -0.04 -0.08 -0.10 -0.11 -0.15 -0.12 -0.17 -0.38 -0.44 -0.49 -0.50 -0.02 -0.01 -0.06 -0.05 -0.11 -0.09 -0.05 -0.04 -0.11 -0.10 -0.15 -0.12 -0.04 -0.03 -0.09 -0.06 -0.11 -0.08 -0.02 -0.02 -0.08 -0.05 -0.13 -0.07 -0.05 -0.02 -0.11 -0.05 -0.13 -0.06 -0.02 -0.02 -0.04 -0.03 -0.05 -0.03 -0.01 0 -0.10 -0.04 -0.20 -0.09 -0.27 -0.13 -0.30 -0.14 -0.47 -0.16 -0.08 -0.01 -0.18 -0.03 -0.21 -0.05 -0.07 -0.04 -0.25 -0.08 -0.44 -0.11 -0.19 -0.03 -1.21 -0.03 -1.39 0 -0.08 0.01 -0.24 0.03 -0.34 0.05 -0.11 0.02 -0.23 0.04 -0.27 0.06 -0.04 0.02 -0.11 0.04 -0.16 0.05 -0.05 0.01 -0.10 0.02 -0.10 0.03 -0.01 0.01 -0.03 0.02 -0.05 0.02 -0.02 0 -0.08 0.02 -0.12 0.05 -0.04 0.03 -0.09 0.05 -0.10 0.05 -0.02 0 -0.06 0.01 -0.10 0.03 -0.04 0.02 -0.10 0.04 -0.13 0.06 -0.04 0.02 -0.07 0.03 -0.08 0.03 -0.01 0 -0.05 0.02 -0.09 0.05 -0.04 0.03 -0.12 0.07 -0.18 0.10 -0.06 0.03 -0.14 0.08 -0.17 0.11 -0.04 0.03 -0.12 0.09 -0.17 0.13 -0.05 0.04 -0.10 0.08 -0.11 0.09 -0.20 0.15 -0.23 0.18 -0.21 0.20 0.02 0.02 0.50 -0.04 0.55 -0.07 0.01 -0.01 0.07 -0.02 0.13 -0.03 0.06 -0.01 0.18 -0.04 0.26 -0.05 0.09 -0.02 0.25 -0.04 0.36 -0.05 0.28 -0.03 1.39 -0.03 1.55 0 0.54 0.09 0.77 0.13 0.82 0.15 0.02 0.01 0.07 0.03 0.10 0.04 0.03 0.02 0.07 0.03 0.08 0.03 0.01 0 0.04 0.01 0.06 0.02 0.02 0.01 0.07 0.03 0.11 0.05 0.04 0.02 0.12 0.05 0.18 0.08 0.05 0.03 0.13 0.06 0.17 0.08 0.04 0.02 0.10 0.05 0.13 0.07 0.03 0.02 0.08 0.05 0.10 0.06 0.02 0.01 0.07 0.05 0.10 0.08 0.03 0.04 0.08 0.08 0.12 0.10 0.03 0.02 0.07 0.05 0.08 0.07 0.01 0.02 0.05 0.05 0.08 0.06 0.06 0.03 0.26 0.23 0.27 0.27 0 0.01 0.02 0.04 0.04 0.06 0.07 0.08 0.16 0.18 0.16 0.19 0 0.01 0.06 0.13 0.13 0.27 0.07 0.14 0.13 0.29 0.14 0.33 0.01 0.04 0.03 0.11 0.05 0.16 0.02 0.05 0.05 0.14 0.05 0.21 0.01 0.06 0.03 0.16 0.04 0.22 0.01 0.05 0.03 0.16 0.04 0.23 0.01 0.07 0.03 0.16 0.04 0.20 0.02 0.05 0.02 0.92 0 1.36 -0 0.03 -0 0.07 -0 0.10 0 0.09 -0.04 0.51 -0.05 0.54 -0.02 0.03 -0.04 0.14 -0.07 0.35 -0.01 0.08 -0.04 0.18 -0.06 0.23 -0.02 0.04 -0.04 0.15 -0.05 0.23 -0.03 0.20 -0.05 0.32 -0.09 0.46 -0.09 0.31 -0.11 0.54 -0.10 0.94 0.01 0.35 0.01 0.35 0.07 0.47 0.04 0.06 0.08 0.13 0.09 0.15 0.02 0.02 0.03 0.04 0.03 0.05 0 0.01 0.06 0.07 0.13 0.12 0.07 0.05 0.14 0.11 0.15 0.12 0.01 0.01 0.06 0.04 0.12 0.06 0.05 0.03 0.19 0.10 0.30 0.16 0.27 0.15 0.38 0.21 0.59 0.30 0.22 0.10 0.27 0.12 0.38 0.13 0.05 0.01 0.13 0.03 0.17 0.05 0.04 0.02 0.12 0.05 0.17 0.06 0.23 0.05 0.27 0.06 0.28 0.07 0.02 0.02 0.16 0.01 0.24 -0.01z m-4.26 -5.65 c0.05 -0.01 0.13 -0.03 0.19 -0.04 0.11 -0.02 0.14 -0.03 0.68 -0.24 0.07 -0.03 0.19 -0.06 0.27 -0.09 0.23 -0.06 0.35 -0.12 0.54 -0.23 0.07 -0.04 0.08 -0.10 0.01 -0.13 -0.03 -0.01 -0.06 -0.04 -0.07 -0.05 -0.01 -0.02 -0.05 -0.04 -0.09 -0.06 -0.04 -0.02 -0.07 -0.04 -0.08 -0.05 -0.01 -0.01 -0.10 -0.07 -0.20 -0.14 -0.21 -0.13 -0.67 -0.35 -0.80 -0.37 -0.04 -0.01 -0.12 -0.03 -0.18 -0.05 -0.06 -0.02 -0.17 -0.05 -0.24 -0.06 -0.19 -0.03 -0.74 -0.05 -0.93 -0.04 -0.09 0.01 -0.27 0.03 -0.39 0.04 -0.13 0.01 -0.28 0.03 -0.32 0.05 -0.05 0.02 -0.14 0.04 -0.21 0.06 -0.28 0.06 -0.37 0.10 -0.80 0.33 -0.05 0.03 -0.12 0.06 -0.15 0.07 -0.06 0.03 -0.11 0.05 -0.19 0.12 -0.03 0.02 -0.06 0.04 -0.08 0.04 -0.04 0 -0.23 0.13 -0.23 0.15 0 0.01 0.04 0.04 0.08 0.07 0.05 0.02 0.14 0.07 0.20 0.11 0.15 0.08 0.32 0.17 0.35 0.17 0.01 0 0.05 0.02 0.08 0.04 0.08 0.05 0.32 0.14 0.48 0.17 0.07 0.02 0.16 0.04 0.20 0.05 0.13 0.04 0.35 0.08 0.44 0.10 0.05 0.01 0.10 0.02 0.11 0.03 0.02 0.03 1.22 0 1.32 -0.02z m9.50 -0.02 c0.01 -0.01 0.08 -0.02 0.17 -0.03 0.09 -0.01 0.17 -0.02 0.18 -0.03 0.01 -0.01 0.05 -0.02 0.07 -0.02 0.03 0 0.06 -0.01 0.07 -0.02 0.01 -0.01 0.05 -0.02 0.11 -0.02 0.05 0 0.11 -0.01 0.13 -0.03 0.02 -0.02 0.07 -0.03 0.12 -0.03 0.05 0 0.09 -0.01 0.09 -0.02 0.01 -0.01 0.06 -0.02 0.12 -0.03 0.06 -0.01 0.13 -0.02 0.15 -0.03 0.02 -0.01 0.06 -0.03 0.08 -0.04 0.02 -0.01 0.05 -0.02 0.07 -0.02 0.08 0 0.68 -0.29 0.68 -0.33 0 -0.02 -0.19 -0.20 -0.22 -0.20 -0.01 0 -0.08 -0.04 -0.15 -0.09 -0.08 -0.05 -0.15 -0.09 -0.16 -0.09 -0.01 0 -0.07 -0.02 -0.12 -0.05 -0.05 -0.03 -0.11 -0.05 -0.12 -0.05 -0.01 0 -0.05 -0.01 -0.07 -0.03 -0.03 -0.01 -0.08 -0.03 -0.13 -0.04 -0.04 -0.01 -0.09 -0.02 -0.11 -0.03 -0.02 -0.01 -0.05 -0.03 -0.08 -0.04 -0.02 -0.01 -0.07 -0.03 -0.12 -0.03 -0.05 -0.01 -0.11 -0.03 -0.14 -0.05 -0.03 -0.02 -0.10 -0.04 -0.17 -0.05 -0.06 -0.01 -0.12 -0.02 -0.13 -0.03 -0.01 -0.01 -0.04 -0.02 -0.07 -0.02 -0.03 0 -0.07 -0.01 -0.09 -0.02 -0.02 -0.02 -0.20 -0.03 -0.77 -0.03 -0.82 0 -0.70 -0.02 -1.13 0.16 -0.06 0.03 -0.15 0.06 -0.20 0.09 -0.16 0.08 -0.26 0.12 -0.28 0.12 -0.01 0 -0.03 0.01 -0.05 0.03 -0.05 0.05 -0.46 0.25 -0.49 0.24 -0.03 -0.01 -0.02 -0.21 0.01 -0.44 0.03 -0.21 0.33 -0.80 0.44 -0.88 0.02 -0.01 0.04 -0.04 0.04 -0.05 0 -0.03 0.23 -0.24 0.35 -0.32 0.02 -0.02 0.06 -0.05 0.09 -0.07 0.08 -0.08 0.11 -0.09 0.19 -0.13 0.09 -0.04 0.29 -0.16 0.36 -0.21 0.02 -0.01 0.11 -0.05 0.21 -0.09 0.09 -0.03 0.21 -0.08 0.26 -0.10 0.13 -0.05 0.38 -0.12 0.61 -0.16 0.31 -0.06 1.61 -0.05 1.83 0 0.13 0.03 0.38 0.08 0.56 0.10 0.09 0.01 0.17 0.02 0.20 0.03 0.02 0.01 0.09 0.02 0.16 0.03 0.06 0.01 0.15 0.02 0.19 0.03 0.04 0.01 0.08 0 0.08 -0.01 0.02 -0.03 -0.50 -0.50 -0.55 -0.50 -0.01 0 -0.03 -0.01 -0.04 -0.03 -0.02 -0.02 -0.06 -0.04 -0.10 -0.06 -0.04 -0.02 -0.07 -0.04 -0.08 -0.05 -0.02 -0.03 -0.17 -0.10 -0.50 -0.22 -0.06 -0.02 -0.12 -0.04 -0.15 -0.04 -0.03 -0 -0.07 -0.01 -0.09 -0.03 -0.03 -0.02 -0.07 -0.03 -0.10 -0.03 -0.03 0 -0.07 -0.02 -0.10 -0.03 -0.12 -0.08 -0.49 -0.12 -1.48 -0.14 -0.50 -0.01 -0.55 -0.01 -0.72 0.05 -0.03 0.01 -0.09 0.03 -0.15 0.04 -0.05 0.01 -0.14 0.03 -0.19 0.05 -0.05 0.02 -0.16 0.05 -0.24 0.07 -0.24 0.07 -0.63 0.23 -0.67 0.27 -0.01 0.01 -0.05 0.03 -0.09 0.05 -0.07 0.04 -0.27 0.16 -0.31 0.19 -0.01 0.01 -0.05 0.03 -0.08 0.05 -0.03 0.02 -0.07 0.05 -0.08 0.07 -0.01 0.02 -0.04 0.04 -0.05 0.04 -0.03 0 -0.46 0.44 -0.46 0.47 0 0.01 -0.02 0.05 -0.05 0.08 -0.03 0.04 -0.05 0.08 -0.06 0.11 -0.01 0.03 -0.03 0.07 -0.05 0.09 -0.02 0.02 -0.05 0.07 -0.06 0.10 -0.02 0.03 -0.04 0.08 -0.05 0.10 -0.07 0.13 -0.12 0.25 -0.14 0.34 -0.04 0.20 -0.09 0.39 -0.12 0.51 -0.03 0.09 -0.01 0.81 0.02 0.92 0.06 0.24 0.16 0.34 0.45 0.44 0.07 0.03 0.14 0.04 0.17 0.03 0.02 -0.01 0.07 -0.02 0.11 -0.03 0.09 -0.02 0.24 -0.08 0.26 -0.10 0.01 -0.01 0.04 -0.03 0.06 -0.05 0.03 -0.02 0.06 -0.06 0.08 -0.08 0.03 -0.07 0.10 -0.08 0.20 -0.03 0.05 0.02 0.15 0.06 0.23 0.08 0.23 0.07 0.41 0.13 0.54 0.18 0.06 0.03 0.14 0.05 0.18 0.05 0.04 0 0.07 0.01 0.08 0.02 0.01 0.01 0.05 0.02 0.11 0.02 0.05 0 0.10 0.01 0.11 0.02 0.01 0.01 0.11 0.02 0.22 0.03 0.12 0.01 0.23 0.02 0.24 0.03 0.04 0.02 0.90 0.02 0.91 0z"/>
 </g>
</svg>