<?xml version="1.0" encoding="utf-8"?>
<!DOCTYPE svg PUBLIC "-//W3C//DTD SVG 1.0//EN" "http://www.w3.org/TR/2001/REC-SVG-20010904/DTD/svg10.dtd">
<svg version="1.0" xmlns="http://www.w3.org/2000/svg" width="32px" height="32px" viewBox="0 0 32 32" preserveAspectRatio="xMidYMid meet">
 <g fill="#ffffff">
  <path d="M4.23 27.77 c-0.60 -0.57 -0.03 -1.60 2.20 -4 5.53 -5.90 5.23 -5.23 3.33 -7.20 -2.30 -2.37 -2.60 -2.97 -1.93 -4.23 0.27 -0.53 0.80 -1.13 1.13 -1.33 0.83 -0.43 3.80 -0.43 4.23 0 0.20 0.20 1 -0.20 2.20 -1.10 1.90 -1.40 1.93 -1.43 1.93 -3.10 0 -1.93 0.57 -2.67 2.27 -3 1.33 -0.27 2.10 0.20 5.23 3.37 3.17 3.13 3.63 3.90 3.37 5.23 -0.33 1.70 -1.07 2.27 -3 2.27 -1.67 0 -1.70 0.03 -3.10 1.93 -0.90 1.20 -1.30 2 -1.10 2.20 0.20 0.20 0.33 1.13 0.33 2.10 0 1.47 -0.17 1.97 -0.83 2.60 -1.37 1.40 -2.57 1.13 -4.87 -1.03 -2.20 -2.13 -1.50 -2.43 -7.40 3.10 -2.40 2.23 -3.43 2.80 -4 2.20z m14.97 -6.27 c0.13 -0.27 -0.03 -1.10 -0.33 -1.83 -0.63 -1.63 -0.60 -1.73 2.20 -5.40 2 -2.63 2.77 -3.10 3.60 -2.10 0.57 0.67 1.33 0.63 1.33 -0.07 0 -0.77 -5.30 -6.10 -6.07 -6.10 -0.73 0 -0.77 0.77 -0.10 1.33 1 0.83 0.53 1.60 -2.07 3.60 -3.67 2.77 -3.83 2.83 -5.30 2.23 -1.50 -0.63 -2.10 -0.63 -2.33 -0.03 -0.20 0.53 7.73 8.80 8.47 8.83 0.23 0.03 0.50 -0.20 0.60 -0.47z"/>
 </g>
</svg>